<mxfile host="app.diagrams.net" agent="Mozilla/5.0 (Windows NT 10.0; Win64; x64) AppleWebKit/537.36 (KHTML, like Gecko) Chrome/141.0.0.0 Safari/537.36" version="28.2.8" pages="2">
  <diagram id="FefDWBaQlUwgcq6p-n2y" name="Flowchart">
    <mxGraphModel grid="1" page="1" gridSize="10" guides="1" tooltips="1" connect="1" arrows="1" fold="1" pageScale="1" pageWidth="850" pageHeight="1100" math="0" shadow="0">
      <root>
        <mxCell id="0" />
        <mxCell id="1" parent="0" />
        <mxCell id="kTCFsRzS2SGjxPNvN--O-6" style="edgeStyle=orthogonalEdgeStyle;rounded=1;orthogonalLoop=1;jettySize=auto;html=1;exitX=1;exitY=0.5;exitDx=0;exitDy=0;entryX=0;entryY=0.5;entryDx=0;entryDy=0;" edge="1" parent="1" source="WGFKa5A3ILm1g8Ws_Rq3-4" target="kTCFsRzS2SGjxPNvN--O-5">
          <mxGeometry relative="1" as="geometry" />
        </mxCell>
        <mxCell id="GqIOpusUxmnsHTRb35qK-7" value="" style="edgeStyle=orthogonalEdgeStyle;rounded=1;orthogonalLoop=1;jettySize=auto;html=1;" edge="1" parent="1" source="WGFKa5A3ILm1g8Ws_Rq3-4" target="GqIOpusUxmnsHTRb35qK-6">
          <mxGeometry relative="1" as="geometry" />
        </mxCell>
        <mxCell id="WGFKa5A3ILm1g8Ws_Rq3-4" value="pilih == 1" style="rhombus;whiteSpace=wrap;html=1;fillColor=#FFCCCC;strokeColor=#FF0000;rounded=0;" vertex="1" parent="1">
          <mxGeometry x="400" y="400" width="80" height="80" as="geometry" />
        </mxCell>
        <mxCell id="kTCFsRzS2SGjxPNvN--O-1" value="input&amp;nbsp;&lt;span style=&quot;background-color: transparent; color: light-dark(rgb(0, 0, 0), rgb(255, 255, 255));&quot;&gt;username,&lt;/span&gt;&lt;span style=&quot;background-color: transparent; color: light-dark(rgb(0, 0, 0), rgb(255, 255, 255));&quot;&gt;&amp;nbsp;password,&amp;nbsp;&lt;/span&gt;&lt;div&gt;&lt;span style=&quot;background-color: transparent; color: light-dark(rgb(0, 0, 0), rgb(255, 255, 255));&quot;&gt;nama lengkap, alamat, nomor hp&lt;/span&gt;&lt;/div&gt;" style="shape=parallelogram;html=1;strokeWidth=2;perimeter=parallelogramPerimeter;whiteSpace=wrap;rounded=0;arcSize=12;size=0.23;fillColor=#FFCCE6;strokeColor=#FF3399;" vertex="1" parent="1">
          <mxGeometry x="312.5" y="800" width="255" height="90" as="geometry" />
        </mxCell>
        <mxCell id="5fkRjXRHGFC-vEdVIcNM-1" style="edgeStyle=orthogonalEdgeStyle;rounded=1;orthogonalLoop=1;jettySize=auto;html=1;exitX=0.5;exitY=1;exitDx=0;exitDy=0;entryX=0.5;entryY=0;entryDx=0;entryDy=0;" edge="1" parent="1" source="kTCFsRzS2SGjxPNvN--O-5" target="BkTA1rFJATQWOww_pqdA-7">
          <mxGeometry relative="1" as="geometry" />
        </mxCell>
        <mxCell id="WAqWC5dXHU8QIvfoeytL-6" style="edgeStyle=orthogonalEdgeStyle;rounded=1;orthogonalLoop=1;jettySize=auto;html=1;exitX=1;exitY=0.5;exitDx=0;exitDy=0;entryX=0;entryY=0.5;entryDx=0;entryDy=0;" edge="1" parent="1" source="kTCFsRzS2SGjxPNvN--O-5" target="WAqWC5dXHU8QIvfoeytL-5">
          <mxGeometry relative="1" as="geometry" />
        </mxCell>
        <mxCell id="kTCFsRzS2SGjxPNvN--O-5" value="pilih == 2" style="rhombus;whiteSpace=wrap;html=1;fillColor=#FFCCCC;strokeColor=#FF0000;rounded=0;" vertex="1" parent="1">
          <mxGeometry x="810" y="400" width="80" height="80" as="geometry" />
        </mxCell>
        <mxCell id="dUcthm7WZjBeY3SveAUl-18" style="edgeStyle=orthogonalEdgeStyle;rounded=0;orthogonalLoop=1;jettySize=auto;html=1;entryX=0.5;entryY=0;entryDx=0;entryDy=0;" edge="1" parent="1" source="BkTA1rFJATQWOww_pqdA-3" target="IGN_vdbDmE5IbCvixLgF-2">
          <mxGeometry relative="1" as="geometry" />
        </mxCell>
        <mxCell id="BkTA1rFJATQWOww_pqdA-3" value="percobaan_login &amp;lt;= 3&amp;nbsp;" style="shape=hexagon;perimeter=hexagonPerimeter2;whiteSpace=wrap;html=1;fixedSize=1;rounded=0;fillColor=#fff2cc;strokeColor=#d6b656;" vertex="1" parent="1">
          <mxGeometry x="760" y="730" width="180" height="80" as="geometry" />
        </mxCell>
        <mxCell id="BkTA1rFJATQWOww_pqdA-27" value="" style="edgeStyle=orthogonalEdgeStyle;rounded=1;orthogonalLoop=1;jettySize=auto;html=1;" edge="1" parent="1" source="BkTA1rFJATQWOww_pqdA-7" target="BkTA1rFJATQWOww_pqdA-3">
          <mxGeometry relative="1" as="geometry" />
        </mxCell>
        <mxCell id="BkTA1rFJATQWOww_pqdA-7" value="percobaan_login = 0" style="rounded=0;whiteSpace=wrap;html=1;strokeColor=#FF9933;fillColor=#FFE6CC;" vertex="1" parent="1">
          <mxGeometry x="790" y="560" width="120" height="60" as="geometry" />
        </mxCell>
        <mxCell id="dUcthm7WZjBeY3SveAUl-13" style="edgeStyle=orthogonalEdgeStyle;rounded=0;orthogonalLoop=1;jettySize=auto;html=1;" edge="1" parent="1" source="BkTA1rFJATQWOww_pqdA-14">
          <mxGeometry relative="1" as="geometry">
            <mxPoint x="630" y="2100" as="targetPoint" />
            <Array as="points">
              <mxPoint x="630" y="2090" />
            </Array>
          </mxGeometry>
        </mxCell>
        <mxCell id="BkTA1rFJATQWOww_pqdA-14" value="output&amp;nbsp;&lt;div&gt;&quot;Terlalu banyak&lt;/div&gt;&lt;div&gt;&amp;nbsp;percobaan login,&lt;/div&gt;&lt;div&gt;&amp;nbsp;Program dihentikan&quot;&lt;/div&gt;" style="shape=parallelogram;html=1;strokeWidth=2;perimeter=parallelogramPerimeter;whiteSpace=wrap;rounded=0;arcSize=12;size=0.23;fillColor=#FFCCE6;strokeColor=#FF3399;" vertex="1" parent="1">
          <mxGeometry x="540" y="910" width="180" height="100" as="geometry" />
        </mxCell>
        <mxCell id="BkTA1rFJATQWOww_pqdA-16" value="END" style="ellipse;whiteSpace=wrap;html=1;rounded=1;fillColor=#E5CCFF;strokeColor=#9933FF;" vertex="1" parent="1">
          <mxGeometry x="380" y="2060.001526692708" width="120" height="80" as="geometry" />
        </mxCell>
        <mxCell id="TYRc2fW6bbKFDIMmHtEb-2" style="edgeStyle=orthogonalEdgeStyle;rounded=0;orthogonalLoop=1;jettySize=auto;html=1;exitX=0.5;exitY=0;exitDx=0;exitDy=0;entryX=0.5;entryY=1;entryDx=0;entryDy=0;" edge="1" parent="1" source="BkTA1rFJATQWOww_pqdA-33" target="zOBfL6AUY9TSXzOepJmh-2">
          <mxGeometry relative="1" as="geometry" />
        </mxCell>
        <mxCell id="BkTA1rFJATQWOww_pqdA-33" value="output&amp;nbsp;&lt;div&gt;&quot;Username atau&amp;nbsp;&lt;/div&gt;&lt;div&gt;Password salah,&amp;nbsp;&lt;/div&gt;&lt;div&gt;silahkan coba lagi&quot;&lt;/div&gt;" style="shape=parallelogram;html=1;strokeWidth=2;perimeter=parallelogramPerimeter;whiteSpace=wrap;rounded=0;arcSize=12;size=0.23;fillColor=#FFCCE6;strokeColor=#FF3399;" vertex="1" parent="1">
          <mxGeometry x="765" y="1225" width="170" height="100" as="geometry" />
        </mxCell>
        <mxCell id="ba6c0RpfKHp4X5wGSwr2-2" style="edgeStyle=orthogonalEdgeStyle;rounded=0;orthogonalLoop=1;jettySize=auto;html=1;" edge="1" parent="1" source="zOBfL6AUY9TSXzOepJmh-2" target="BkTA1rFJATQWOww_pqdA-3">
          <mxGeometry relative="1" as="geometry" />
        </mxCell>
        <mxCell id="zOBfL6AUY9TSXzOepJmh-2" value="percobaan_login += 1" style="rounded=0;whiteSpace=wrap;html=1;fillColor=#FFE6CC;strokeColor=#FF9933;" vertex="1" parent="1">
          <mxGeometry x="790" y="930" width="120" height="60" as="geometry" />
        </mxCell>
        <mxCell id="5fkRjXRHGFC-vEdVIcNM-9" value="" style="edgeStyle=orthogonalEdgeStyle;rounded=1;orthogonalLoop=1;jettySize=auto;html=1;" edge="1" parent="1" source="IGN_vdbDmE5IbCvixLgF-2" target="5fkRjXRHGFC-vEdVIcNM-8">
          <mxGeometry relative="1" as="geometry">
            <Array as="points">
              <mxPoint x="1049" y="1275" />
            </Array>
          </mxGeometry>
        </mxCell>
        <mxCell id="IGN_vdbDmE5IbCvixLgF-2" value="input&amp;nbsp;&lt;span style=&quot;background-color: transparent; color: light-dark(rgb(0, 0, 0), rgb(255, 255, 255));&quot;&gt;username&amp;nbsp;&lt;/span&gt;&lt;div&gt;&lt;span style=&quot;background-color: transparent; color: light-dark(rgb(0, 0, 0), rgb(255, 255, 255));&quot;&gt;&amp;amp; password&lt;/span&gt;&lt;/div&gt;" style="shape=parallelogram;html=1;strokeWidth=2;perimeter=parallelogramPerimeter;whiteSpace=wrap;rounded=0;arcSize=12;size=0.23;fillColor=#FFCCE6;strokeColor=#FF3399;" vertex="1" parent="1">
          <mxGeometry x="964" y="910" width="170" height="100" as="geometry" />
        </mxCell>
        <mxCell id="5fkRjXRHGFC-vEdVIcNM-10" style="edgeStyle=orthogonalEdgeStyle;rounded=1;orthogonalLoop=1;jettySize=auto;html=1;exitX=0;exitY=0.5;exitDx=0;exitDy=0;entryX=1;entryY=0.5;entryDx=0;entryDy=0;" edge="1" parent="1" source="5fkRjXRHGFC-vEdVIcNM-8" target="BkTA1rFJATQWOww_pqdA-33">
          <mxGeometry relative="1" as="geometry" />
        </mxCell>
        <mxCell id="dUcthm7WZjBeY3SveAUl-29" style="edgeStyle=orthogonalEdgeStyle;rounded=0;orthogonalLoop=1;jettySize=auto;html=1;entryX=0.5;entryY=0;entryDx=0;entryDy=0;" edge="1" parent="1" source="5fkRjXRHGFC-vEdVIcNM-8">
          <mxGeometry relative="1" as="geometry">
            <mxPoint x="1049" y="1390" as="targetPoint" />
          </mxGeometry>
        </mxCell>
        <mxCell id="5fkRjXRHGFC-vEdVIcNM-8" value="AKUN TERSEDIA" style="rhombus;whiteSpace=wrap;html=1;fillColor=#FFCCCC;strokeColor=#FF0000;rounded=0;" vertex="1" parent="1">
          <mxGeometry x="989" y="1220" width="120" height="110" as="geometry" />
        </mxCell>
        <mxCell id="dUcthm7WZjBeY3SveAUl-38" style="edgeStyle=orthogonalEdgeStyle;rounded=0;orthogonalLoop=1;jettySize=auto;html=1;entryX=0.5;entryY=0;entryDx=0;entryDy=0;" edge="1" parent="1" source="5fkRjXRHGFC-vEdVIcNM-22" target="WAqWC5dXHU8QIvfoeytL-3">
          <mxGeometry relative="1" as="geometry" />
        </mxCell>
        <mxCell id="5fkRjXRHGFC-vEdVIcNM-22" value="output&amp;nbsp;&lt;div&gt;&quot;Login berhasil&amp;nbsp;&lt;/div&gt;&lt;div&gt;sebagai pengguna,&amp;nbsp;&lt;/div&gt;&lt;div&gt;&lt;span style=&quot;background-color: transparent; color: light-dark(rgb(0, 0, 0), rgb(255, 255, 255));&quot;&gt;selamat&lt;/span&gt;&lt;span style=&quot;background-color: transparent; color: light-dark(rgb(0, 0, 0), rgb(255, 255, 255));&quot;&gt;&amp;nbsp;datang.&lt;/span&gt;&lt;span style=&quot;background-color: transparent; color: light-dark(rgb(0, 0, 0), rgb(255, 255, 255));&quot;&gt;&quot;&lt;/span&gt;&lt;/div&gt;" style="shape=parallelogram;html=1;strokeWidth=2;perimeter=parallelogramPerimeter;whiteSpace=wrap;rounded=0;arcSize=12;size=0.23;fillColor=#FFCCE6;strokeColor=#FF3399;" vertex="1" parent="1">
          <mxGeometry x="1245" y="1590" width="180" height="100" as="geometry" />
        </mxCell>
        <mxCell id="WAqWC5dXHU8QIvfoeytL-3" value="MENU PENGGUNA" style="shape=process;whiteSpace=wrap;html=1;backgroundOutline=1;fillColor=#CCFFCC;rounded=0;strokeColor=#97D077;" vertex="1" parent="1">
          <mxGeometry x="1275" y="1800" width="120" height="60" as="geometry" />
        </mxCell>
        <mxCell id="WAqWC5dXHU8QIvfoeytL-8" style="edgeStyle=orthogonalEdgeStyle;rounded=1;orthogonalLoop=1;jettySize=auto;html=1;exitX=0.5;exitY=1;exitDx=0;exitDy=0;" edge="1" parent="1" source="WAqWC5dXHU8QIvfoeytL-5" target="WAqWC5dXHU8QIvfoeytL-7">
          <mxGeometry relative="1" as="geometry" />
        </mxCell>
        <mxCell id="UrAMfg5zWOG8u9Mk6wa0-1" style="edgeStyle=orthogonalEdgeStyle;rounded=1;orthogonalLoop=1;jettySize=auto;html=1;entryX=0.5;entryY=0;entryDx=0;entryDy=0;" edge="1" parent="1" source="WAqWC5dXHU8QIvfoeytL-5" target="WAqWC5dXHU8QIvfoeytL-7">
          <mxGeometry relative="1" as="geometry" />
        </mxCell>
        <mxCell id="t_WGj7whDtWNZ_SXQKLY-2" value="" style="edgeStyle=orthogonalEdgeStyle;rounded=1;orthogonalLoop=1;jettySize=auto;html=1;" edge="1" parent="1" source="auLrO9RY4HXhn0hgR3kY-1" target="t_WGj7whDtWNZ_SXQKLY-1">
          <mxGeometry relative="1" as="geometry" />
        </mxCell>
        <mxCell id="WAqWC5dXHU8QIvfoeytL-7" value="output&amp;nbsp;&lt;div&gt;&quot;Terima Kasih telah menggunakan program&amp;nbsp;&lt;/div&gt;&lt;div&gt;petshop ini&lt;span style=&quot;background-color: transparent; color: light-dark(rgb(0, 0, 0), rgb(255, 255, 255));&quot;&gt;&amp;nbsp;&lt;/span&gt;&lt;span style=&quot;background-color: transparent; color: light-dark(rgb(0, 0, 0), rgb(255, 255, 255));&quot;&gt;&quot;&lt;/span&gt;&lt;/div&gt;" style="shape=parallelogram;html=1;strokeWidth=2;perimeter=parallelogramPerimeter;whiteSpace=wrap;rounded=0;arcSize=12;size=0.23;fillColor=#FFCCE6;strokeColor=#FF3399;" vertex="1" parent="1">
          <mxGeometry x="1440" y="600" width="180" height="100" as="geometry" />
        </mxCell>
        <mxCell id="WAqWC5dXHU8QIvfoeytL-11" value="" style="endArrow=classic;html=1;rounded=1;" edge="1" parent="1">
          <mxGeometry width="50" height="50" relative="1" as="geometry">
            <mxPoint x="1570" y="690" as="sourcePoint" />
            <mxPoint x="1630" y="690" as="targetPoint" />
          </mxGeometry>
        </mxCell>
        <mxCell id="WAqWC5dXHU8QIvfoeytL-12" value="True" style="text;html=1;align=center;verticalAlign=middle;whiteSpace=wrap;rounded=1;" vertex="1" parent="1">
          <mxGeometry x="440" y="480" width="60" height="30" as="geometry" />
        </mxCell>
        <mxCell id="DAyHQwH7wr2phk7b_Ucu-1" value="False" style="text;html=1;align=center;verticalAlign=middle;whiteSpace=wrap;rounded=1;" vertex="1" parent="1">
          <mxGeometry x="525" y="410" width="60" height="30" as="geometry" />
        </mxCell>
        <mxCell id="DAyHQwH7wr2phk7b_Ucu-2" value="False" style="text;html=1;align=center;verticalAlign=middle;whiteSpace=wrap;rounded=1;" vertex="1" parent="1">
          <mxGeometry x="900" y="410" width="60" height="30" as="geometry" />
        </mxCell>
        <mxCell id="DAyHQwH7wr2phk7b_Ucu-3" value="True" style="text;html=1;align=center;verticalAlign=middle;whiteSpace=wrap;rounded=1;" vertex="1" parent="1">
          <mxGeometry x="840" y="510" width="60" height="30" as="geometry" />
        </mxCell>
        <mxCell id="DAyHQwH7wr2phk7b_Ucu-5" value="False" style="text;html=1;align=center;verticalAlign=middle;whiteSpace=wrap;rounded=1;" vertex="1" parent="1">
          <mxGeometry x="1600" y="410" width="60" height="30" as="geometry" />
        </mxCell>
        <mxCell id="QnofTfZ3_4MNjuNKp3YF-1" style="edgeStyle=orthogonalEdgeStyle;rounded=0;orthogonalLoop=1;jettySize=auto;html=1;entryX=0.5;entryY=0;entryDx=0;entryDy=0;" edge="1" parent="1" source="t_WGj7whDtWNZ_SXQKLY-1" target="QnofTfZ3_4MNjuNKp3YF-2">
          <mxGeometry relative="1" as="geometry">
            <mxPoint x="440" y="290" as="targetPoint" />
          </mxGeometry>
        </mxCell>
        <mxCell id="t_WGj7whDtWNZ_SXQKLY-1" value="&lt;div&gt;Menu Login&lt;/div&gt;1. Registrasi&lt;div&gt;2. Login&lt;/div&gt;&lt;div&gt;3. Keluar&lt;/div&gt;" style="shape=parallelogram;perimeter=parallelogramPerimeter;whiteSpace=wrap;html=1;fixedSize=1;fillColor=#FFCCE6;strokeColor=#FF3399;strokeWidth=2;shadow=1;rounded=0;" vertex="1" parent="1">
          <mxGeometry x="370" y="190" width="140" height="70" as="geometry" />
        </mxCell>
        <mxCell id="DAyHQwH7wr2phk7b_Ucu-9" value="True" style="text;html=1;align=center;verticalAlign=middle;whiteSpace=wrap;rounded=1;" vertex="1" parent="1">
          <mxGeometry x="1530" y="510" width="60" height="30" as="geometry" />
        </mxCell>
        <mxCell id="WAqWC5dXHU8QIvfoeytL-10" style="edgeStyle=orthogonalEdgeStyle;rounded=1;orthogonalLoop=1;jettySize=auto;html=1;exitX=0.5;exitY=1;exitDx=0;exitDy=0;entryX=1;entryY=0.5;entryDx=0;entryDy=0;" edge="1" parent="1" source="WAqWC5dXHU8QIvfoeytL-7" target="BkTA1rFJATQWOww_pqdA-16">
          <mxGeometry relative="1" as="geometry" />
        </mxCell>
        <mxCell id="fw-Dkt5grC2mR6McyDsN-23" style="edgeStyle=orthogonalEdgeStyle;rounded=0;orthogonalLoop=1;jettySize=auto;html=1;entryX=0;entryY=0.5;entryDx=0;entryDy=0;" edge="1" parent="1" source="WAqWC5dXHU8QIvfoeytL-5" target="DAyHQwH7wr2phk7b_Ucu-7">
          <mxGeometry relative="1" as="geometry" />
        </mxCell>
        <mxCell id="WAqWC5dXHU8QIvfoeytL-5" value="pilih == 3" style="rhombus;whiteSpace=wrap;html=1;fillColor=#FFCCCC;strokeColor=#FF0000;rounded=0;" vertex="1" parent="1">
          <mxGeometry x="1490" y="400" width="80" height="80" as="geometry" />
        </mxCell>
        <mxCell id="DAyHQwH7wr2phk7b_Ucu-7" value="output&amp;nbsp;&lt;div&gt;&quot; input tidak valid&lt;span style=&quot;background-color: transparent; color: light-dark(rgb(0, 0, 0), rgb(255, 255, 255));&quot;&gt;&amp;nbsp;&lt;/span&gt;&lt;span style=&quot;background-color: transparent; color: light-dark(rgb(0, 0, 0), rgb(255, 255, 255));&quot;&gt;&quot;&lt;/span&gt;&lt;/div&gt;" style="shape=parallelogram;html=1;strokeWidth=2;perimeter=parallelogramPerimeter;whiteSpace=wrap;rounded=0;arcSize=12;size=0.23;fillColor=#FFCCE6;strokeColor=#FF3399;" vertex="1" parent="1">
          <mxGeometry x="1706.75" y="390" width="180" height="100" as="geometry" />
        </mxCell>
        <mxCell id="auLrO9RY4HXhn0hgR3kY-1" value="START" style="strokeWidth=2;html=1;shape=mxgraph.flowchart.start_1;whiteSpace=wrap;shadow=1;strokeColor=#9933FF;fillColor=#E5CCFF;rounded=1;" vertex="1" parent="1">
          <mxGeometry x="390" y="90" width="100" height="60" as="geometry" />
        </mxCell>
        <mxCell id="1GTf2wimsxzN_o2xGQE2-1" style="edgeStyle=orthogonalEdgeStyle;rounded=1;orthogonalLoop=1;jettySize=auto;html=1;exitX=1;exitY=0.75;exitDx=0;exitDy=0;entryX=1;entryY=0.5;entryDx=0;entryDy=0;" edge="1" parent="1" source="DAyHQwH7wr2phk7b_Ucu-7" target="t_WGj7whDtWNZ_SXQKLY-1">
          <mxGeometry relative="1" as="geometry">
            <Array as="points">
              <mxPoint x="1859" y="450" />
              <mxPoint x="1930" y="450" />
              <mxPoint x="1930" y="225" />
            </Array>
          </mxGeometry>
        </mxCell>
        <mxCell id="GqIOpusUxmnsHTRb35qK-1" value="False" style="text;html=1;align=center;verticalAlign=middle;whiteSpace=wrap;rounded=1;" vertex="1" parent="1">
          <mxGeometry x="940" y="1240" width="60" height="30" as="geometry" />
        </mxCell>
        <mxCell id="GqIOpusUxmnsHTRb35qK-9" value="" style="edgeStyle=orthogonalEdgeStyle;rounded=1;orthogonalLoop=1;jettySize=auto;html=1;" edge="1" parent="1" source="GqIOpusUxmnsHTRb35qK-6" target="GqIOpusUxmnsHTRb35qK-8">
          <mxGeometry relative="1" as="geometry" />
        </mxCell>
        <mxCell id="dUcthm7WZjBeY3SveAUl-3" style="edgeStyle=orthogonalEdgeStyle;rounded=0;orthogonalLoop=1;jettySize=auto;html=1;entryX=1;entryY=0.5;entryDx=0;entryDy=0;" edge="1" parent="1" source="GqIOpusUxmnsHTRb35qK-6" target="dUcthm7WZjBeY3SveAUl-4">
          <mxGeometry relative="1" as="geometry">
            <mxPoint x="330" y="565" as="targetPoint" />
          </mxGeometry>
        </mxCell>
        <mxCell id="GqIOpusUxmnsHTRb35qK-6" value="jumlahuser &amp;lt;= 50" style="rhombus;whiteSpace=wrap;html=1;fillColor=#FFCCCC;strokeColor=#FF0000;rounded=0;" vertex="1" parent="1">
          <mxGeometry x="380" y="510" width="120" height="110" as="geometry" />
        </mxCell>
        <mxCell id="GqIOpusUxmnsHTRb35qK-10" value="" style="edgeStyle=orthogonalEdgeStyle;rounded=1;orthogonalLoop=1;jettySize=auto;html=1;" edge="1" parent="1" source="GqIOpusUxmnsHTRb35qK-8" target="kTCFsRzS2SGjxPNvN--O-1">
          <mxGeometry relative="1" as="geometry" />
        </mxCell>
        <mxCell id="GqIOpusUxmnsHTRb35qK-8" value="registrasi pengguna baru" style="rounded=0;whiteSpace=wrap;html=1;fillColor=#FFE6CC;strokeColor=#FF9933;" vertex="1" parent="1">
          <mxGeometry x="380" y="670" width="120" height="60" as="geometry" />
        </mxCell>
        <mxCell id="GqIOpusUxmnsHTRb35qK-13" style="edgeStyle=orthogonalEdgeStyle;rounded=1;orthogonalLoop=1;jettySize=auto;html=1;exitX=0.5;exitY=1;exitDx=0;exitDy=0;entryX=0;entryY=0.5;entryDx=0;entryDy=0;" edge="1" parent="1" source="GqIOpusUxmnsHTRb35qK-11" target="t_WGj7whDtWNZ_SXQKLY-1">
          <mxGeometry relative="1" as="geometry">
            <Array as="points">
              <mxPoint x="430" y="1050" />
              <mxPoint x="110" y="1050" />
              <mxPoint x="110" y="225" />
            </Array>
          </mxGeometry>
        </mxCell>
        <mxCell id="GqIOpusUxmnsHTRb35qK-11" value="registrasi berhasil sebagai pengguna baru" style="rounded=0;whiteSpace=wrap;html=1;fillColor=#FFE6CC;strokeColor=#FF9933;" vertex="1" parent="1">
          <mxGeometry x="370" y="970" width="120" height="60" as="geometry" />
        </mxCell>
        <mxCell id="GqIOpusUxmnsHTRb35qK-14" style="edgeStyle=orthogonalEdgeStyle;rounded=1;orthogonalLoop=1;jettySize=auto;html=1;exitX=0.5;exitY=1;exitDx=0;exitDy=0;entryX=0.582;entryY=0.022;entryDx=0;entryDy=0;entryPerimeter=0;" edge="1" parent="1" source="kTCFsRzS2SGjxPNvN--O-1" target="GqIOpusUxmnsHTRb35qK-11">
          <mxGeometry relative="1" as="geometry" />
        </mxCell>
        <mxCell id="dUcthm7WZjBeY3SveAUl-8" style="edgeStyle=orthogonalEdgeStyle;rounded=0;orthogonalLoop=1;jettySize=auto;html=1;" edge="1" parent="1" source="dUcthm7WZjBeY3SveAUl-4">
          <mxGeometry relative="1" as="geometry">
            <mxPoint x="110" y="565" as="targetPoint" />
          </mxGeometry>
        </mxCell>
        <mxCell id="dUcthm7WZjBeY3SveAUl-4" value="output &quot;kapasitas&amp;nbsp;&lt;div&gt;pengguna penuh.&quot;&lt;/div&gt;" style="shape=parallelogram;html=1;strokeWidth=2;perimeter=parallelogramPerimeter;whiteSpace=wrap;rounded=0;arcSize=12;size=0.23;fillColor=#FFCCE6;strokeColor=#FF3399;" vertex="1" parent="1">
          <mxGeometry x="160" y="530" width="170" height="70" as="geometry" />
        </mxCell>
        <mxCell id="dUcthm7WZjBeY3SveAUl-10" value="" style="endArrow=classic;html=1;rounded=0;" edge="1" parent="1">
          <mxGeometry width="50" height="50" relative="1" as="geometry">
            <mxPoint x="324.75" y="810" as="sourcePoint" />
            <mxPoint x="394.75" y="810" as="targetPoint" />
          </mxGeometry>
        </mxCell>
        <mxCell id="dUcthm7WZjBeY3SveAUl-12" style="edgeStyle=orthogonalEdgeStyle;rounded=0;orthogonalLoop=1;jettySize=auto;html=1;entryX=0.556;entryY=-0.035;entryDx=0;entryDy=0;entryPerimeter=0;" edge="1" parent="1" source="BkTA1rFJATQWOww_pqdA-3" target="BkTA1rFJATQWOww_pqdA-14">
          <mxGeometry relative="1" as="geometry" />
        </mxCell>
        <mxCell id="dUcthm7WZjBeY3SveAUl-14" value="True" style="text;html=1;align=center;verticalAlign=middle;resizable=0;points=[];autosize=1;strokeColor=none;fillColor=none;" vertex="1" parent="1">
          <mxGeometry x="445" y="620" width="50" height="30" as="geometry" />
        </mxCell>
        <mxCell id="dUcthm7WZjBeY3SveAUl-15" value="False" style="text;html=1;align=center;verticalAlign=middle;resizable=0;points=[];autosize=1;strokeColor=none;fillColor=none;" vertex="1" parent="1">
          <mxGeometry x="345" y="528" width="50" height="30" as="geometry" />
        </mxCell>
        <mxCell id="dUcthm7WZjBeY3SveAUl-17" value="" style="endArrow=classic;html=1;rounded=0;" edge="1" parent="1">
          <mxGeometry width="50" height="50" relative="1" as="geometry">
            <mxPoint x="280" y="590" as="sourcePoint" />
            <mxPoint x="330" y="590" as="targetPoint" />
          </mxGeometry>
        </mxCell>
        <mxCell id="dUcthm7WZjBeY3SveAUl-30" style="edgeStyle=orthogonalEdgeStyle;rounded=0;orthogonalLoop=1;jettySize=auto;html=1;entryX=0.5;entryY=0;entryDx=0;entryDy=0;" edge="1" parent="1" source="dUcthm7WZjBeY3SveAUl-31" target="dUcthm7WZjBeY3SveAUl-32">
          <mxGeometry relative="1" as="geometry" />
        </mxCell>
        <mxCell id="dUcthm7WZjBeY3SveAUl-31" value="output&amp;nbsp;&lt;span style=&quot;background-color: transparent; color: light-dark(rgb(0, 0, 0), rgb(255, 255, 255));&quot;&gt;&quot;Login berhasil&amp;nbsp;&lt;/span&gt;&lt;div&gt;&lt;span style=&quot;background-color: transparent; color: light-dark(rgb(0, 0, 0), rgb(255, 255, 255));&quot;&gt;sebagai,&amp;nbsp;&lt;/span&gt;&lt;span style=&quot;background-color: transparent; color: light-dark(rgb(0, 0, 0), rgb(255, 255, 255));&quot;&gt;&amp;nbsp;admin&amp;nbsp;&lt;/span&gt;&lt;span style=&quot;background-color: transparent; color: light-dark(rgb(0, 0, 0), rgb(255, 255, 255));&quot;&gt;selamat&lt;/span&gt;&lt;/div&gt;&lt;div&gt;&lt;span style=&quot;background-color: transparent; color: light-dark(rgb(0, 0, 0), rgb(255, 255, 255));&quot;&gt;&amp;nbsp;datang pawpatrol&amp;nbsp;&lt;/span&gt;&lt;span style=&quot;background-color: transparent; color: light-dark(rgb(0, 0, 0), rgb(255, 255, 255));&quot;&gt;&quot;&lt;/span&gt;&lt;/div&gt;" style="shape=parallelogram;html=1;strokeWidth=2;perimeter=parallelogramPerimeter;whiteSpace=wrap;rounded=0;arcSize=12;size=0.23;fillColor=#FFCCE6;strokeColor=#FF3399;" vertex="1" parent="1">
          <mxGeometry x="938.5" y="1590" width="221" height="100" as="geometry" />
        </mxCell>
        <mxCell id="dUcthm7WZjBeY3SveAUl-32" value="MENU ADMIN" style="shape=process;whiteSpace=wrap;html=1;backgroundOutline=1;rounded=0;fillColor=#CCFFCC;strokeColor=#97D077;" vertex="1" parent="1">
          <mxGeometry x="989" y="1800" width="120" height="60" as="geometry" />
        </mxCell>
        <mxCell id="dUcthm7WZjBeY3SveAUl-33" value="True" style="text;html=1;align=center;verticalAlign=middle;resizable=0;points=[];autosize=1;strokeColor=none;fillColor=none;" vertex="1" parent="1">
          <mxGeometry x="1059" y="1340" width="50" height="30" as="geometry" />
        </mxCell>
        <mxCell id="dUcthm7WZjBeY3SveAUl-35" style="edgeStyle=orthogonalEdgeStyle;rounded=0;orthogonalLoop=1;jettySize=auto;html=1;entryX=0.5;entryY=0;entryDx=0;entryDy=0;" edge="1" parent="1" source="dUcthm7WZjBeY3SveAUl-34" target="dUcthm7WZjBeY3SveAUl-31">
          <mxGeometry relative="1" as="geometry" />
        </mxCell>
        <mxCell id="OEmXZxtR8yDGG8L4QjC0-4" style="edgeStyle=orthogonalEdgeStyle;rounded=0;orthogonalLoop=1;jettySize=auto;html=1;exitX=1;exitY=0.5;exitDx=0;exitDy=0;entryX=0;entryY=0.5;entryDx=0;entryDy=0;" edge="1" parent="1" source="dUcthm7WZjBeY3SveAUl-34" target="OEmXZxtR8yDGG8L4QjC0-1">
          <mxGeometry relative="1" as="geometry" />
        </mxCell>
        <mxCell id="dUcthm7WZjBeY3SveAUl-34" value="username = pawpatrol&lt;div&gt;password = bayardulu&lt;/div&gt;" style="rhombus;whiteSpace=wrap;html=1;rounded=0;strokeColor=#FF0000;align=center;verticalAlign=middle;fontFamily=Helvetica;fontSize=12;fontColor=default;fillColor=#FFCCCC;" vertex="1" parent="1">
          <mxGeometry x="969" y="1390" width="160" height="130" as="geometry" />
        </mxCell>
        <mxCell id="dUcthm7WZjBeY3SveAUl-40" value="True" style="text;html=1;align=center;verticalAlign=middle;resizable=0;points=[];autosize=1;strokeColor=none;fillColor=none;" vertex="1" parent="1">
          <mxGeometry x="1059" y="1540" width="50" height="30" as="geometry" />
        </mxCell>
        <mxCell id="dUcthm7WZjBeY3SveAUl-41" value="False" style="text;html=1;align=center;verticalAlign=middle;whiteSpace=wrap;rounded=1;" vertex="1" parent="1">
          <mxGeometry x="1134" y="1420" width="60" height="30" as="geometry" />
        </mxCell>
        <mxCell id="dUcthm7WZjBeY3SveAUl-42" value="" style="endArrow=classic;html=1;rounded=0;" edge="1" parent="1">
          <mxGeometry width="50" height="50" relative="1" as="geometry">
            <mxPoint x="1090" y="1680" as="sourcePoint" />
            <mxPoint x="1160" y="1680" as="targetPoint" />
          </mxGeometry>
        </mxCell>
        <mxCell id="dUcthm7WZjBeY3SveAUl-43" value="" style="endArrow=classic;html=1;rounded=0;" edge="1" parent="1">
          <mxGeometry width="50" height="50" relative="1" as="geometry">
            <mxPoint x="1350" y="1680" as="sourcePoint" />
            <mxPoint x="1430" y="1680" as="targetPoint" />
          </mxGeometry>
        </mxCell>
        <mxCell id="dUcthm7WZjBeY3SveAUl-44" value="" style="endArrow=classic;html=1;rounded=0;" edge="1" parent="1">
          <mxGeometry width="50" height="50" relative="1" as="geometry">
            <mxPoint x="870" y="1310" as="sourcePoint" />
            <mxPoint x="940" y="1310" as="targetPoint" />
          </mxGeometry>
        </mxCell>
        <mxCell id="dUcthm7WZjBeY3SveAUl-45" value="" style="endArrow=classic;html=1;rounded=0;" edge="1" parent="1">
          <mxGeometry width="50" height="50" relative="1" as="geometry">
            <mxPoint x="964" y="920" as="sourcePoint" />
            <mxPoint x="1024" y="920" as="targetPoint" />
          </mxGeometry>
        </mxCell>
        <mxCell id="dUcthm7WZjBeY3SveAUl-46" value="" style="endArrow=classic;html=1;rounded=0;" edge="1" parent="1">
          <mxGeometry width="50" height="50" relative="1" as="geometry">
            <mxPoint x="660" y="1000" as="sourcePoint" />
            <mxPoint x="730" y="1000" as="targetPoint" />
          </mxGeometry>
        </mxCell>
        <mxCell id="QnofTfZ3_4MNjuNKp3YF-4" style="edgeStyle=orthogonalEdgeStyle;rounded=0;orthogonalLoop=1;jettySize=auto;html=1;entryX=0.5;entryY=0;entryDx=0;entryDy=0;" edge="1" parent="1" source="QnofTfZ3_4MNjuNKp3YF-2" target="WGFKa5A3ILm1g8Ws_Rq3-4">
          <mxGeometry relative="1" as="geometry" />
        </mxCell>
        <mxCell id="QnofTfZ3_4MNjuNKp3YF-2" value="input opsi" style="shape=parallelogram;perimeter=parallelogramPerimeter;whiteSpace=wrap;html=1;fixedSize=1;rounded=0;shadow=1;strokeColor=#FF3399;strokeWidth=2;align=center;verticalAlign=middle;fontFamily=Helvetica;fontSize=12;fontColor=default;fillColor=#FFCCE6;" vertex="1" parent="1">
          <mxGeometry x="380" y="300" width="120" height="50" as="geometry" />
        </mxCell>
        <mxCell id="QnofTfZ3_4MNjuNKp3YF-5" value="" style="endArrow=classic;html=1;rounded=0;" edge="1" parent="1">
          <mxGeometry width="50" height="50" relative="1" as="geometry">
            <mxPoint x="470" y="250" as="sourcePoint" />
            <mxPoint x="520" y="250" as="targetPoint" />
          </mxGeometry>
        </mxCell>
        <mxCell id="QnofTfZ3_4MNjuNKp3YF-8" value="" style="endArrow=classic;html=1;rounded=0;entryX=0.25;entryY=0.2;entryDx=0;entryDy=0;entryPerimeter=0;" edge="1" parent="1" target="QnofTfZ3_4MNjuNKp3YF-2">
          <mxGeometry width="50" height="50" relative="1" as="geometry">
            <mxPoint x="370" y="310" as="sourcePoint" />
            <mxPoint x="420" y="260" as="targetPoint" />
          </mxGeometry>
        </mxCell>
        <mxCell id="ClJgnw6vTi-d_eeJ4Fy6-2" value="" style="endArrow=classic;html=1;rounded=0;" edge="1" parent="1">
          <mxGeometry width="50" height="50" relative="1" as="geometry">
            <mxPoint x="1826.75" y="480" as="sourcePoint" />
            <mxPoint x="1896.75" y="480" as="targetPoint" />
          </mxGeometry>
        </mxCell>
        <mxCell id="3vmuXIG5i8YdK94iF34Q-1" value="" style="edgeStyle=orthogonalEdgeStyle;rounded=0;orthogonalLoop=1;jettySize=auto;html=1;" edge="1" parent="1" source="3vmuXIG5i8YdK94iF34Q-2" target="3vmuXIG5i8YdK94iF34Q-6">
          <mxGeometry relative="1" as="geometry" />
        </mxCell>
        <mxCell id="3vmuXIG5i8YdK94iF34Q-2" value="Menu Admin" style="shape=process;whiteSpace=wrap;html=1;backgroundOutline=1;shadow=1;strokeColor=#97D077;fillColor=#CCFFCC;" vertex="1" parent="1">
          <mxGeometry x="678.5" y="2345" width="120" height="60" as="geometry" />
        </mxCell>
        <mxCell id="3vmuXIG5i8YdK94iF34Q-3" style="edgeStyle=orthogonalEdgeStyle;rounded=0;orthogonalLoop=1;jettySize=auto;html=1;entryX=0.5;entryY=0;entryDx=0;entryDy=0;" edge="1" parent="1" source="3vmuXIG5i8YdK94iF34Q-6" target="3vmuXIG5i8YdK94iF34Q-47">
          <mxGeometry relative="1" as="geometry" />
        </mxCell>
        <mxCell id="3vmuXIG5i8YdK94iF34Q-4" style="edgeStyle=orthogonalEdgeStyle;rounded=0;orthogonalLoop=1;jettySize=auto;html=1;exitX=0;exitY=0.5;exitDx=0;exitDy=0;" edge="1" parent="1" source="3vmuXIG5i8YdK94iF34Q-6">
          <mxGeometry relative="1" as="geometry">
            <mxPoint x="633" y="2510" as="targetPoint" />
          </mxGeometry>
        </mxCell>
        <mxCell id="3vmuXIG5i8YdK94iF34Q-6" value="&lt;div&gt;&lt;span style=&quot;background-color: transparent; color: light-dark(rgb(0, 0, 0), rgb(255, 255, 255));&quot;&gt;Menu Admin&lt;/span&gt;&lt;/div&gt;&lt;div&gt;&lt;span style=&quot;background-color: transparent; color: light-dark(rgb(0, 0, 0), rgb(255, 255, 255));&quot;&gt;1. Tampilkan Data&lt;/span&gt;&lt;/div&gt;&lt;div&gt;&lt;div&gt;&lt;span style=&quot;background-color: transparent; color: light-dark(rgb(0, 0, 0), rgb(255, 255, 255));&quot;&gt;2. Menambahkan Hewan&amp;nbsp;&lt;/span&gt;&lt;/div&gt;&lt;div&gt;&lt;/div&gt;&lt;/div&gt;&lt;div&gt;3. Mengubah Data&lt;/div&gt;&lt;div&gt;4. Menghapus Data&lt;/div&gt;&lt;div&gt;5. Tampilkan Laporan&lt;/div&gt;&lt;div&gt;6. Kembali&amp;nbsp;&lt;/div&gt;" style="shape=parallelogram;perimeter=parallelogramPerimeter;whiteSpace=wrap;html=1;fixedSize=1;verticalAlign=top;fillColor=#FFCCE6;strokeColor=#FF3399;rounded=0;shadow=1;" vertex="1" parent="1">
          <mxGeometry x="627" y="2455" width="223" height="110" as="geometry" />
        </mxCell>
        <mxCell id="3vmuXIG5i8YdK94iF34Q-7" value="" style="edgeStyle=orthogonalEdgeStyle;rounded=0;orthogonalLoop=1;jettySize=auto;html=1;" edge="1" parent="1" source="3vmuXIG5i8YdK94iF34Q-11" target="3vmuXIG5i8YdK94iF34Q-16">
          <mxGeometry relative="1" as="geometry" />
        </mxCell>
        <mxCell id="3vmuXIG5i8YdK94iF34Q-8" value="False" style="edgeLabel;html=1;align=center;verticalAlign=middle;resizable=0;points=[];" connectable="0" vertex="1" parent="3vmuXIG5i8YdK94iF34Q-7">
          <mxGeometry x="-0.12" y="1" relative="1" as="geometry">
            <mxPoint as="offset" />
          </mxGeometry>
        </mxCell>
        <mxCell id="3vmuXIG5i8YdK94iF34Q-9" value="" style="edgeStyle=orthogonalEdgeStyle;rounded=0;orthogonalLoop=1;jettySize=auto;html=1;" edge="1" parent="1" source="3vmuXIG5i8YdK94iF34Q-11" target="3vmuXIG5i8YdK94iF34Q-38">
          <mxGeometry relative="1" as="geometry" />
        </mxCell>
        <mxCell id="3vmuXIG5i8YdK94iF34Q-10" value="True" style="edgeLabel;html=1;align=center;verticalAlign=middle;resizable=0;points=[];" connectable="0" vertex="1" parent="3vmuXIG5i8YdK94iF34Q-9">
          <mxGeometry x="-0.2397" relative="1" as="geometry">
            <mxPoint as="offset" />
          </mxGeometry>
        </mxCell>
        <mxCell id="3vmuXIG5i8YdK94iF34Q-11" value="Opsi==1" style="rhombus;whiteSpace=wrap;html=1;fillColor=#FFCCCC;strokeColor=#FF0000;strokeWidth=2;shadow=1;" vertex="1" parent="1">
          <mxGeometry x="698" y="2755" width="80" height="80" as="geometry" />
        </mxCell>
        <mxCell id="3vmuXIG5i8YdK94iF34Q-12" value="" style="edgeStyle=orthogonalEdgeStyle;rounded=0;orthogonalLoop=1;jettySize=auto;html=1;" edge="1" parent="1" source="3vmuXIG5i8YdK94iF34Q-16" target="3vmuXIG5i8YdK94iF34Q-21">
          <mxGeometry relative="1" as="geometry" />
        </mxCell>
        <mxCell id="3vmuXIG5i8YdK94iF34Q-13" value="False" style="edgeLabel;html=1;align=center;verticalAlign=middle;resizable=0;points=[];" connectable="0" vertex="1" parent="3vmuXIG5i8YdK94iF34Q-12">
          <mxGeometry x="-0.112" y="-1" relative="1" as="geometry">
            <mxPoint as="offset" />
          </mxGeometry>
        </mxCell>
        <mxCell id="3vmuXIG5i8YdK94iF34Q-14" value="" style="edgeStyle=orthogonalEdgeStyle;rounded=0;orthogonalLoop=1;jettySize=auto;html=1;" edge="1" parent="1" source="3vmuXIG5i8YdK94iF34Q-16" target="3vmuXIG5i8YdK94iF34Q-39">
          <mxGeometry relative="1" as="geometry" />
        </mxCell>
        <mxCell id="3vmuXIG5i8YdK94iF34Q-15" value="True" style="edgeLabel;html=1;align=center;verticalAlign=middle;resizable=0;points=[];" connectable="0" vertex="1" parent="3vmuXIG5i8YdK94iF34Q-14">
          <mxGeometry x="-0.1667" y="1" relative="1" as="geometry">
            <mxPoint as="offset" />
          </mxGeometry>
        </mxCell>
        <mxCell id="3vmuXIG5i8YdK94iF34Q-16" value="Opsi==2" style="rhombus;whiteSpace=wrap;html=1;fillColor=#FFCCCC;strokeColor=#FF0000;strokeWidth=2;shadow=1;" vertex="1" parent="1">
          <mxGeometry x="882.9999999999999" y="2755" width="80" height="80" as="geometry" />
        </mxCell>
        <mxCell id="3vmuXIG5i8YdK94iF34Q-17" value="" style="edgeStyle=orthogonalEdgeStyle;rounded=0;orthogonalLoop=1;jettySize=auto;html=1;" edge="1" parent="1" source="3vmuXIG5i8YdK94iF34Q-21" target="3vmuXIG5i8YdK94iF34Q-26">
          <mxGeometry relative="1" as="geometry" />
        </mxCell>
        <mxCell id="3vmuXIG5i8YdK94iF34Q-18" value="False" style="edgeLabel;html=1;align=center;verticalAlign=middle;resizable=0;points=[];" connectable="0" vertex="1" parent="3vmuXIG5i8YdK94iF34Q-17">
          <mxGeometry x="-0.12" relative="1" as="geometry">
            <mxPoint as="offset" />
          </mxGeometry>
        </mxCell>
        <mxCell id="3vmuXIG5i8YdK94iF34Q-19" value="" style="edgeStyle=orthogonalEdgeStyle;rounded=0;orthogonalLoop=1;jettySize=auto;html=1;" edge="1" parent="1" source="3vmuXIG5i8YdK94iF34Q-21" target="3vmuXIG5i8YdK94iF34Q-40">
          <mxGeometry relative="1" as="geometry" />
        </mxCell>
        <mxCell id="3vmuXIG5i8YdK94iF34Q-20" value="True" style="edgeLabel;html=1;align=center;verticalAlign=middle;resizable=0;points=[];" connectable="0" vertex="1" parent="3vmuXIG5i8YdK94iF34Q-19">
          <mxGeometry x="-0.1667" y="-1" relative="1" as="geometry">
            <mxPoint as="offset" />
          </mxGeometry>
        </mxCell>
        <mxCell id="3vmuXIG5i8YdK94iF34Q-21" value="Opsi==3" style="rhombus;whiteSpace=wrap;html=1;fillColor=#FFCCCC;strokeColor=#FF0000;strokeWidth=2;shadow=1;" vertex="1" parent="1">
          <mxGeometry x="1063" y="2755" width="80" height="80" as="geometry" />
        </mxCell>
        <mxCell id="3vmuXIG5i8YdK94iF34Q-22" value="" style="edgeStyle=orthogonalEdgeStyle;rounded=0;orthogonalLoop=1;jettySize=auto;html=1;" edge="1" parent="1" source="3vmuXIG5i8YdK94iF34Q-26" target="3vmuXIG5i8YdK94iF34Q-31">
          <mxGeometry relative="1" as="geometry" />
        </mxCell>
        <mxCell id="3vmuXIG5i8YdK94iF34Q-23" value="False" style="edgeLabel;html=1;align=center;verticalAlign=middle;resizable=0;points=[];" connectable="0" vertex="1" parent="3vmuXIG5i8YdK94iF34Q-22">
          <mxGeometry x="-0.122" relative="1" as="geometry">
            <mxPoint as="offset" />
          </mxGeometry>
        </mxCell>
        <mxCell id="3vmuXIG5i8YdK94iF34Q-24" value="" style="edgeStyle=orthogonalEdgeStyle;rounded=0;orthogonalLoop=1;jettySize=auto;html=1;" edge="1" parent="1" source="3vmuXIG5i8YdK94iF34Q-26" target="3vmuXIG5i8YdK94iF34Q-41">
          <mxGeometry relative="1" as="geometry" />
        </mxCell>
        <mxCell id="3vmuXIG5i8YdK94iF34Q-25" value="True" style="edgeLabel;html=1;align=center;verticalAlign=middle;resizable=0;points=[];" connectable="0" vertex="1" parent="3vmuXIG5i8YdK94iF34Q-24">
          <mxGeometry x="-0.1" relative="1" as="geometry">
            <mxPoint as="offset" />
          </mxGeometry>
        </mxCell>
        <mxCell id="3vmuXIG5i8YdK94iF34Q-26" value="Opsi==4" style="rhombus;whiteSpace=wrap;html=1;fillColor=#f8cecc;strokeColor=#b85450;strokeWidth=2;shadow=1;" vertex="1" parent="1">
          <mxGeometry x="1243" y="2755" width="80" height="80" as="geometry" />
        </mxCell>
        <mxCell id="3vmuXIG5i8YdK94iF34Q-27" value="" style="edgeStyle=orthogonalEdgeStyle;rounded=0;orthogonalLoop=1;jettySize=auto;html=1;" edge="1" parent="1" source="3vmuXIG5i8YdK94iF34Q-31" target="3vmuXIG5i8YdK94iF34Q-36">
          <mxGeometry relative="1" as="geometry" />
        </mxCell>
        <mxCell id="3vmuXIG5i8YdK94iF34Q-28" value="False" style="edgeLabel;html=1;align=center;verticalAlign=middle;resizable=0;points=[];" connectable="0" vertex="1" parent="3vmuXIG5i8YdK94iF34Q-27">
          <mxGeometry x="-0.09" y="1" relative="1" as="geometry">
            <mxPoint as="offset" />
          </mxGeometry>
        </mxCell>
        <mxCell id="3vmuXIG5i8YdK94iF34Q-29" value="" style="edgeStyle=orthogonalEdgeStyle;rounded=0;orthogonalLoop=1;jettySize=auto;html=1;" edge="1" parent="1" source="3vmuXIG5i8YdK94iF34Q-31" target="3vmuXIG5i8YdK94iF34Q-42">
          <mxGeometry relative="1" as="geometry" />
        </mxCell>
        <mxCell id="3vmuXIG5i8YdK94iF34Q-30" value="True" style="edgeLabel;html=1;align=center;verticalAlign=middle;resizable=0;points=[];" connectable="0" vertex="1" parent="3vmuXIG5i8YdK94iF34Q-29">
          <mxGeometry x="-0.1333" y="1" relative="1" as="geometry">
            <mxPoint as="offset" />
          </mxGeometry>
        </mxCell>
        <mxCell id="3vmuXIG5i8YdK94iF34Q-31" value="Opsi==5" style="rhombus;whiteSpace=wrap;html=1;fillColor=#f8cecc;strokeColor=#b85450;strokeWidth=2;shadow=1;" vertex="1" parent="1">
          <mxGeometry x="1425.5" y="2755" width="80" height="80" as="geometry" />
        </mxCell>
        <mxCell id="3vmuXIG5i8YdK94iF34Q-32" value="" style="edgeStyle=orthogonalEdgeStyle;rounded=0;orthogonalLoop=1;jettySize=auto;html=1;" edge="1" parent="1" source="3vmuXIG5i8YdK94iF34Q-36">
          <mxGeometry relative="1" as="geometry">
            <mxPoint x="1785.5" y="2795" as="targetPoint" />
          </mxGeometry>
        </mxCell>
        <mxCell id="3vmuXIG5i8YdK94iF34Q-33" value="False" style="edgeLabel;html=1;align=center;verticalAlign=middle;resizable=0;points=[];" connectable="0" vertex="1" parent="3vmuXIG5i8YdK94iF34Q-32">
          <mxGeometry x="-0.202" y="-1" relative="1" as="geometry">
            <mxPoint as="offset" />
          </mxGeometry>
        </mxCell>
        <mxCell id="3vmuXIG5i8YdK94iF34Q-34" value="" style="edgeStyle=orthogonalEdgeStyle;rounded=0;orthogonalLoop=1;jettySize=auto;html=1;" edge="1" parent="1" source="3vmuXIG5i8YdK94iF34Q-36">
          <mxGeometry relative="1" as="geometry">
            <mxPoint x="1645" y="3135" as="targetPoint" />
          </mxGeometry>
        </mxCell>
        <mxCell id="3vmuXIG5i8YdK94iF34Q-35" value="True" style="edgeLabel;html=1;align=center;verticalAlign=middle;resizable=0;points=[];" connectable="0" vertex="1" parent="3vmuXIG5i8YdK94iF34Q-34">
          <mxGeometry x="-0.28" y="1" relative="1" as="geometry">
            <mxPoint y="-77" as="offset" />
          </mxGeometry>
        </mxCell>
        <mxCell id="3vmuXIG5i8YdK94iF34Q-36" value="Opsi==6" style="rhombus;whiteSpace=wrap;html=1;fillColor=#f8cecc;strokeColor=#b85450;strokeWidth=2;shadow=1;" vertex="1" parent="1">
          <mxGeometry x="1605.5" y="2755" width="80" height="80" as="geometry" />
        </mxCell>
        <mxCell id="3vmuXIG5i8YdK94iF34Q-37" value="" style="edgeStyle=orthogonalEdgeStyle;rounded=0;orthogonalLoop=1;jettySize=auto;html=1;" edge="1" parent="1" source="3vmuXIG5i8YdK94iF34Q-38">
          <mxGeometry relative="1" as="geometry">
            <mxPoint x="737.9999999999999" y="3055" as="targetPoint" />
          </mxGeometry>
        </mxCell>
        <mxCell id="3vmuXIG5i8YdK94iF34Q-38" value="tampilkanData()" style="shape=process;whiteSpace=wrap;html=1;backgroundOutline=1;fillColor=#CCE5FF;strokeColor=#007FFF;strokeWidth=2;shadow=1;" vertex="1" parent="1">
          <mxGeometry x="666" y="2895" width="145" height="60" as="geometry" />
        </mxCell>
        <mxCell id="3vmuXIG5i8YdK94iF34Q-39" value="tambahkanHewan()" style="shape=process;whiteSpace=wrap;html=1;backgroundOutline=1;fillColor=#CCE5FF;strokeColor=#007FFF;strokeWidth=2;shadow=1;" vertex="1" parent="1">
          <mxGeometry x="850.4999999999999" y="2895" width="145" height="60" as="geometry" />
        </mxCell>
        <mxCell id="3vmuXIG5i8YdK94iF34Q-40" value="ubahData()" style="shape=process;whiteSpace=wrap;html=1;backgroundOutline=1;fillColor=#CCE5FF;strokeColor=#007FFF;strokeWidth=2;shadow=1;" vertex="1" parent="1">
          <mxGeometry x="1030.5" y="2895" width="145" height="60" as="geometry" />
        </mxCell>
        <mxCell id="3vmuXIG5i8YdK94iF34Q-41" value="hapusData()" style="shape=process;whiteSpace=wrap;html=1;backgroundOutline=1;fillColor=#CCE5FF;strokeColor=#007FFF;strokeWidth=2;shadow=1;" vertex="1" parent="1">
          <mxGeometry x="1210.5" y="2895" width="145" height="60" as="geometry" />
        </mxCell>
        <mxCell id="3vmuXIG5i8YdK94iF34Q-42" value="tampilkanLaporan()" style="shape=process;whiteSpace=wrap;html=1;backgroundOutline=1;fillColor=#CCE5FF;strokeColor=#007FFF;strokeWidth=2;shadow=1;" vertex="1" parent="1">
          <mxGeometry x="1393" y="2895" width="145" height="60" as="geometry" />
        </mxCell>
        <mxCell id="3vmuXIG5i8YdK94iF34Q-43" style="edgeStyle=orthogonalEdgeStyle;rounded=0;orthogonalLoop=1;jettySize=auto;html=1;entryX=1;entryY=0.5;entryDx=0;entryDy=0;" edge="1" parent="1" source="3vmuXIG5i8YdK94iF34Q-45" target="3vmuXIG5i8YdK94iF34Q-6">
          <mxGeometry relative="1" as="geometry">
            <Array as="points">
              <mxPoint x="1998" y="2795" />
              <mxPoint x="1998" y="2510" />
            </Array>
          </mxGeometry>
        </mxCell>
        <mxCell id="3vmuXIG5i8YdK94iF34Q-44" style="edgeStyle=orthogonalEdgeStyle;rounded=0;orthogonalLoop=1;jettySize=auto;html=1;exitX=1;exitY=1;exitDx=0;exitDy=0;" edge="1" parent="1" source="3vmuXIG5i8YdK94iF34Q-45">
          <mxGeometry relative="1" as="geometry">
            <mxPoint x="1913" y="2816.4864864864867" as="targetPoint" />
          </mxGeometry>
        </mxCell>
        <mxCell id="3vmuXIG5i8YdK94iF34Q-45" value="output&amp;nbsp;&lt;div&gt;&quot;pilihan tidak&amp;nbsp;&lt;/div&gt;&lt;div&gt;valid&quot;&lt;/div&gt;" style="shape=parallelogram;perimeter=parallelogramPerimeter;whiteSpace=wrap;html=1;fixedSize=1;fillColor=#FFCCE6;strokeColor=#FF3399;strokeWidth=2;shadow=1;" vertex="1" parent="1">
          <mxGeometry x="1773" y="2765" width="120" height="60" as="geometry" />
        </mxCell>
        <mxCell id="3vmuXIG5i8YdK94iF34Q-46" value="" style="edgeStyle=orthogonalEdgeStyle;rounded=0;orthogonalLoop=1;jettySize=auto;html=1;" edge="1" parent="1" source="3vmuXIG5i8YdK94iF34Q-47" target="3vmuXIG5i8YdK94iF34Q-11">
          <mxGeometry relative="1" as="geometry" />
        </mxCell>
        <mxCell id="3vmuXIG5i8YdK94iF34Q-47" value="input opsi" style="shape=parallelogram;perimeter=parallelogramPerimeter;whiteSpace=wrap;html=1;fixedSize=1;fillColor=#FFCCE6;strokeColor=#FF3399;strokeWidth=2;shadow=1;" vertex="1" parent="1">
          <mxGeometry x="678.5" y="2645" width="120" height="60" as="geometry" />
        </mxCell>
        <mxCell id="3vmuXIG5i8YdK94iF34Q-48" value="" style="endArrow=none;html=1;rounded=0;entryX=0.5;entryY=1;entryDx=0;entryDy=0;" edge="1" parent="1" target="3vmuXIG5i8YdK94iF34Q-40">
          <mxGeometry width="50" height="50" relative="1" as="geometry">
            <mxPoint x="553" y="3059.7058823529414" as="sourcePoint" />
            <mxPoint x="1093" y="2995" as="targetPoint" />
            <Array as="points">
              <mxPoint x="1103" y="3055" />
            </Array>
          </mxGeometry>
        </mxCell>
        <mxCell id="3vmuXIG5i8YdK94iF34Q-49" value="" style="endArrow=none;html=1;rounded=0;entryX=0.5;entryY=1;entryDx=0;entryDy=0;" edge="1" parent="1">
          <mxGeometry width="50" height="50" relative="1" as="geometry">
            <mxPoint x="1103" y="3055" as="sourcePoint" />
            <mxPoint x="1283" y="2955" as="targetPoint" />
            <Array as="points">
              <mxPoint x="1283" y="3055" />
            </Array>
          </mxGeometry>
        </mxCell>
        <mxCell id="3vmuXIG5i8YdK94iF34Q-50" value="" style="endArrow=none;html=1;rounded=0;entryX=0.5;entryY=1;entryDx=0;entryDy=0;" edge="1" parent="1">
          <mxGeometry width="50" height="50" relative="1" as="geometry">
            <mxPoint x="1283" y="3055" as="sourcePoint" />
            <mxPoint x="1463" y="2955" as="targetPoint" />
            <Array as="points">
              <mxPoint x="1463" y="3055" />
            </Array>
          </mxGeometry>
        </mxCell>
        <mxCell id="3vmuXIG5i8YdK94iF34Q-51" style="edgeStyle=orthogonalEdgeStyle;rounded=0;orthogonalLoop=1;jettySize=auto;html=1;exitX=0.5;exitY=1;exitDx=0;exitDy=0;" edge="1" parent="1" source="3vmuXIG5i8YdK94iF34Q-39">
          <mxGeometry relative="1" as="geometry">
            <mxPoint x="922.9999999999999" y="3055" as="targetPoint" />
          </mxGeometry>
        </mxCell>
        <mxCell id="3vmuXIG5i8YdK94iF34Q-52" value="" style="endArrow=classic;html=1;rounded=0;" edge="1" parent="1">
          <mxGeometry width="50" height="50" relative="1" as="geometry">
            <mxPoint x="554.55" y="3055" as="sourcePoint" />
            <mxPoint x="554.55" y="2505" as="targetPoint" />
          </mxGeometry>
        </mxCell>
        <mxCell id="3vmuXIG5i8YdK94iF34Q-53" value="" style="endArrow=classic;html=1;rounded=0;entryX=0;entryY=0.5;entryDx=0;entryDy=0;" edge="1" parent="1" target="3vmuXIG5i8YdK94iF34Q-6">
          <mxGeometry width="50" height="50" relative="1" as="geometry">
            <mxPoint x="553" y="2510" as="sourcePoint" />
            <mxPoint x="603" y="2455" as="targetPoint" />
          </mxGeometry>
        </mxCell>
        <mxCell id="3vmuXIG5i8YdK94iF34Q-54" value="END" style="strokeWidth=2;html=1;shape=mxgraph.flowchart.start_1;whiteSpace=wrap;shadow=1;strokeColor=#9933FF;fillColor=#E5CCFF;" vertex="1" parent="1">
          <mxGeometry x="688" y="3105" width="100" height="60" as="geometry" />
        </mxCell>
        <mxCell id="3vmuXIG5i8YdK94iF34Q-55" value="" style="endArrow=classic;html=1;rounded=0;" edge="1" parent="1">
          <mxGeometry width="50" height="50" relative="1" as="geometry">
            <mxPoint x="1643" y="3135" as="sourcePoint" />
            <mxPoint x="792.9999999999999" y="3135" as="targetPoint" />
          </mxGeometry>
        </mxCell>
        <mxCell id="00JhJRKnC4P_FVbmjxvB-18" style="edgeStyle=orthogonalEdgeStyle;rounded=0;orthogonalLoop=1;jettySize=auto;html=1;entryX=0.5;entryY=0;entryDx=0;entryDy=0;" edge="1" parent="1" source="00JhJRKnC4P_FVbmjxvB-22">
          <mxGeometry relative="1" as="geometry">
            <Array as="points">
              <mxPoint x="1194.86" y="3560" />
            </Array>
            <mxPoint x="1194.36" y="3620" as="targetPoint" />
          </mxGeometry>
        </mxCell>
        <mxCell id="00JhJRKnC4P_FVbmjxvB-19" value="False" style="edgeLabel;html=1;align=center;verticalAlign=middle;resizable=0;points=[];" connectable="0" vertex="1" parent="00JhJRKnC4P_FVbmjxvB-18">
          <mxGeometry x="-0.4654" relative="1" as="geometry">
            <mxPoint as="offset" />
          </mxGeometry>
        </mxCell>
        <mxCell id="00JhJRKnC4P_FVbmjxvB-20" style="edgeStyle=orthogonalEdgeStyle;rounded=0;orthogonalLoop=1;jettySize=auto;html=1;" edge="1" parent="1" source="00JhJRKnC4P_FVbmjxvB-22" target="00JhJRKnC4P_FVbmjxvB-24">
          <mxGeometry relative="1" as="geometry">
            <Array as="points">
              <mxPoint x="1491.86" y="3560" />
            </Array>
          </mxGeometry>
        </mxCell>
        <mxCell id="00JhJRKnC4P_FVbmjxvB-21" value="True" style="edgeLabel;html=1;align=center;verticalAlign=middle;resizable=0;points=[];" connectable="0" vertex="1" parent="00JhJRKnC4P_FVbmjxvB-20">
          <mxGeometry x="-0.4689" relative="1" as="geometry">
            <mxPoint as="offset" />
          </mxGeometry>
        </mxCell>
        <mxCell id="00JhJRKnC4P_FVbmjxvB-22" value="jumlahHewan &amp;lt;= 50" style="rhombus;whiteSpace=wrap;html=1;strokeColor=#FF3333;fillColor=#FFCCCC;" vertex="1" parent="1">
          <mxGeometry x="1276.86" y="3510" width="140" height="100" as="geometry" />
        </mxCell>
        <mxCell id="00JhJRKnC4P_FVbmjxvB-23" style="edgeStyle=orthogonalEdgeStyle;rounded=0;orthogonalLoop=1;jettySize=auto;html=1;" edge="1" parent="1" source="00JhJRKnC4P_FVbmjxvB-24" target="00JhJRKnC4P_FVbmjxvB-27">
          <mxGeometry relative="1" as="geometry" />
        </mxCell>
        <mxCell id="00JhJRKnC4P_FVbmjxvB-24" value="input ID, nama hewan,&amp;nbsp;&lt;div&gt;jenis, berat hewan,&amp;nbsp;&lt;span style=&quot;background-color: transparent; color: light-dark(rgb(0, 0, 0), rgb(255, 255, 255));&quot;&gt;umur,&amp;nbsp;&lt;/span&gt;&lt;div&gt;&lt;div&gt;&lt;span style=&quot;background-color: transparent; color: light-dark(rgb(0, 0, 0), rgb(255, 255, 255));&quot;&gt;perawatan,&amp;nbsp;&lt;/span&gt;&lt;span style=&quot;background-color: transparent; color: light-dark(rgb(0, 0, 0), rgb(255, 255, 255));&quot;&gt;tanggal reservasi&lt;/span&gt;&lt;/div&gt;&lt;/div&gt;&lt;/div&gt;" style="shape=parallelogram;perimeter=parallelogramPerimeter;whiteSpace=wrap;html=1;fixedSize=1;fillColor=#FFCCE6;strokeColor=#FF3399;" vertex="1" parent="1">
          <mxGeometry x="1396.86" y="3620" width="189.5" height="60" as="geometry" />
        </mxCell>
        <mxCell id="00JhJRKnC4P_FVbmjxvB-25" style="edgeStyle=orthogonalEdgeStyle;rounded=0;orthogonalLoop=1;jettySize=auto;html=1;exitX=1;exitY=1;exitDx=0;exitDy=0;" edge="1" parent="1" source="00JhJRKnC4P_FVbmjxvB-27">
          <mxGeometry relative="1" as="geometry">
            <mxPoint x="1586.8599999999994" y="3773.823529411765" as="targetPoint" />
          </mxGeometry>
        </mxCell>
        <mxCell id="00JhJRKnC4P_FVbmjxvB-26" style="edgeStyle=orthogonalEdgeStyle;rounded=0;orthogonalLoop=1;jettySize=auto;html=1;entryX=1;entryY=0.25;entryDx=0;entryDy=0;" edge="1" parent="1" source="00JhJRKnC4P_FVbmjxvB-27">
          <mxGeometry relative="1" as="geometry">
            <mxPoint x="1386.86" y="3850" as="targetPoint" />
            <Array as="points">
              <mxPoint x="1491.86" y="3850" />
            </Array>
          </mxGeometry>
        </mxCell>
        <mxCell id="00JhJRKnC4P_FVbmjxvB-27" value="Output &quot;Data hewan&lt;div&gt;berhasil ditambahkan.&quot;&lt;/div&gt;" style="shape=parallelogram;perimeter=parallelogramPerimeter;whiteSpace=wrap;html=1;fixedSize=1;fillColor=#FFCCE6;strokeColor=#FF3399;" vertex="1" parent="1">
          <mxGeometry x="1411.86" y="3720" width="160" height="60" as="geometry" />
        </mxCell>
        <mxCell id="00JhJRKnC4P_FVbmjxvB-28" style="edgeStyle=orthogonalEdgeStyle;rounded=0;orthogonalLoop=1;jettySize=auto;html=1;exitX=1;exitY=1;exitDx=0;exitDy=0;" edge="1" parent="1">
          <mxGeometry relative="1" as="geometry">
            <mxPoint x="1296.86" y="3673.823529411765" as="targetPoint" />
            <mxPoint x="1259.0221621621615" y="3673.5135135135133" as="sourcePoint" />
          </mxGeometry>
        </mxCell>
        <mxCell id="00JhJRKnC4P_FVbmjxvB-29" style="edgeStyle=orthogonalEdgeStyle;rounded=0;orthogonalLoop=1;jettySize=auto;html=1;entryX=0;entryY=0.25;entryDx=0;entryDy=0;" edge="1" parent="1">
          <mxGeometry relative="1" as="geometry">
            <mxPoint x="1306.86" y="3850" as="targetPoint" />
            <Array as="points">
              <mxPoint x="1196.86" y="3850" />
            </Array>
            <mxPoint x="1196.86" y="3680" as="sourcePoint" />
          </mxGeometry>
        </mxCell>
        <mxCell id="00JhJRKnC4P_FVbmjxvB-30" value="output &quot;Maaf, kapasitas&amp;nbsp;&lt;div&gt;penuh. Coba lagi nanti!&quot;&lt;/div&gt;" style="shape=parallelogram;perimeter=parallelogramPerimeter;whiteSpace=wrap;html=1;fixedSize=1;fillColor=#FFCCE6;strokeColor=#FF3399;" vertex="1" parent="1">
          <mxGeometry x="1118.64" y="3620" width="165" height="60" as="geometry" />
        </mxCell>
        <mxCell id="00JhJRKnC4P_FVbmjxvB-31" style="edgeStyle=orthogonalEdgeStyle;rounded=0;orthogonalLoop=1;jettySize=auto;html=1;exitX=0.5;exitY=1;exitDx=0;exitDy=0;entryX=0.5;entryY=0;entryDx=0;entryDy=0;" edge="1" parent="1" target="00JhJRKnC4P_FVbmjxvB-22">
          <mxGeometry relative="1" as="geometry">
            <mxPoint x="1346.86" y="3480" as="sourcePoint" />
          </mxGeometry>
        </mxCell>
        <mxCell id="00JhJRKnC4P_FVbmjxvB-32" value="tambahHewan()" style="shape=process;whiteSpace=wrap;html=1;backgroundOutline=1;fillColor=#E5CCFF;strokeColor=#9933FF;align=center;verticalAlign=middle;fontFamily=Helvetica;fontSize=12;fontColor=default;" vertex="1" parent="1">
          <mxGeometry x="1276.86" y="3430" width="140" height="50" as="geometry" />
        </mxCell>
        <mxCell id="00JhJRKnC4P_FVbmjxvB-33" value="END" style="ellipse;whiteSpace=wrap;html=1;fillColor=#E5CCFF;strokeColor=#9933FF;" vertex="1" parent="1">
          <mxGeometry x="1296.86" y="3820" width="100" height="60" as="geometry" />
        </mxCell>
        <mxCell id="wl5vKfPLSGNA0CRAG-PO-105" value="" style="edgeStyle=orthogonalEdgeStyle;rounded=0;orthogonalLoop=1;jettySize=auto;html=1;" edge="1" parent="1" source="00JhJRKnC4P_FVbmjxvB-35" target="00JhJRKnC4P_FVbmjxvB-41">
          <mxGeometry relative="1" as="geometry" />
        </mxCell>
        <mxCell id="00JhJRKnC4P_FVbmjxvB-35" value="tampilkanCustomer()" style="shape=process;whiteSpace=wrap;html=1;backgroundOutline=1;fillColor=#E5CCFF;strokeColor=#9933FF;align=center;verticalAlign=middle;fontFamily=Helvetica;fontSize=12;fontColor=default;" vertex="1" parent="1">
          <mxGeometry x="788.0000000000001" y="5220" width="155" height="50" as="geometry" />
        </mxCell>
        <mxCell id="00JhJRKnC4P_FVbmjxvB-38" value="END" style="ellipse;whiteSpace=wrap;html=1;fillColor=#E5CCFF;strokeColor=#9933FF;" vertex="1" parent="1">
          <mxGeometry x="815.5000000000001" y="5870" width="100" height="60" as="geometry" />
        </mxCell>
        <mxCell id="wl5vKfPLSGNA0CRAG-PO-106" value="" style="edgeStyle=orthogonalEdgeStyle;rounded=0;orthogonalLoop=1;jettySize=auto;html=1;" edge="1" parent="1" source="00JhJRKnC4P_FVbmjxvB-41" target="00JhJRKnC4P_FVbmjxvB-44">
          <mxGeometry relative="1" as="geometry" />
        </mxCell>
        <mxCell id="00JhJRKnC4P_FVbmjxvB-41" value="Ingin menampilkan:&lt;div&gt;1. Semua data customer&lt;/div&gt;&lt;div&gt;2. Cari berdasarkan username customer&lt;/div&gt;" style="shape=parallelogram;perimeter=parallelogramPerimeter;whiteSpace=wrap;html=1;fixedSize=1;fillColor=#FFCCE6;strokeColor=#FF3399;" vertex="1" parent="1">
          <mxGeometry x="734.87" y="5310" width="261.25" height="80" as="geometry" />
        </mxCell>
        <mxCell id="wl5vKfPLSGNA0CRAG-PO-108" value="" style="edgeStyle=orthogonalEdgeStyle;rounded=0;orthogonalLoop=1;jettySize=auto;html=1;" edge="1" parent="1" source="00JhJRKnC4P_FVbmjxvB-44" target="wl5vKfPLSGNA0CRAG-PO-107">
          <mxGeometry relative="1" as="geometry" />
        </mxCell>
        <mxCell id="wl5vKfPLSGNA0CRAG-PO-119" value="True" style="edgeLabel;html=1;align=center;verticalAlign=middle;resizable=0;points=[];" connectable="0" vertex="1" parent="wl5vKfPLSGNA0CRAG-PO-108">
          <mxGeometry x="-0.1062" y="-1" relative="1" as="geometry">
            <mxPoint as="offset" />
          </mxGeometry>
        </mxCell>
        <mxCell id="wl5vKfPLSGNA0CRAG-PO-114" value="" style="edgeStyle=orthogonalEdgeStyle;rounded=0;orthogonalLoop=1;jettySize=auto;html=1;" edge="1" parent="1" source="00JhJRKnC4P_FVbmjxvB-44" target="wl5vKfPLSGNA0CRAG-PO-113">
          <mxGeometry relative="1" as="geometry" />
        </mxCell>
        <mxCell id="wl5vKfPLSGNA0CRAG-PO-120" value="False" style="edgeLabel;html=1;align=center;verticalAlign=middle;resizable=0;points=[];" connectable="0" vertex="1" parent="wl5vKfPLSGNA0CRAG-PO-114">
          <mxGeometry x="0.0071" relative="1" as="geometry">
            <mxPoint as="offset" />
          </mxGeometry>
        </mxCell>
        <mxCell id="00JhJRKnC4P_FVbmjxvB-44" value="opsi==1&amp;nbsp;" style="rhombus;whiteSpace=wrap;html=1;strokeColor=#FF3333;fillColor=#FFCCCC;" vertex="1" parent="1">
          <mxGeometry x="820" y="5425" width="90" height="80" as="geometry" />
        </mxCell>
        <mxCell id="00JhJRKnC4P_FVbmjxvB-45" style="edgeStyle=orthogonalEdgeStyle;rounded=0;orthogonalLoop=1;jettySize=auto;html=1;" edge="1" parent="1" source="00JhJRKnC4P_FVbmjxvB-46">
          <mxGeometry relative="1" as="geometry">
            <mxPoint x="605.7000000000002" y="5692.5" as="targetPoint" />
          </mxGeometry>
        </mxCell>
        <mxCell id="00JhJRKnC4P_FVbmjxvB-46" value="input username&amp;nbsp;&lt;div&gt;customer&amp;nbsp;&lt;span style=&quot;background-color: transparent; color: light-dark(rgb(0, 0, 0), rgb(255, 255, 255));&quot;&gt;Yang Dicari&lt;/span&gt;&lt;/div&gt;" style="shape=parallelogram;perimeter=parallelogramPerimeter;whiteSpace=wrap;html=1;fixedSize=1;fillColor=#FFCCE6;strokeColor=#FF3399;" vertex="1" parent="1">
          <mxGeometry x="527.9300000000001" y="5602.5" width="152.95" height="60" as="geometry" />
        </mxCell>
        <mxCell id="00JhJRKnC4P_FVbmjxvB-47" style="edgeStyle=orthogonalEdgeStyle;rounded=0;orthogonalLoop=1;jettySize=auto;html=1;" edge="1" parent="1" source="00JhJRKnC4P_FVbmjxvB-51" target="00JhJRKnC4P_FVbmjxvB-53">
          <mxGeometry relative="1" as="geometry">
            <Array as="points">
              <mxPoint x="710.7000000000002" y="5737.5" />
            </Array>
          </mxGeometry>
        </mxCell>
        <mxCell id="00JhJRKnC4P_FVbmjxvB-48" value="True" style="edgeLabel;html=1;align=center;verticalAlign=middle;resizable=0;points=[];" connectable="0" vertex="1" parent="00JhJRKnC4P_FVbmjxvB-47">
          <mxGeometry x="-0.5376" y="2" relative="1" as="geometry">
            <mxPoint x="-1" y="2" as="offset" />
          </mxGeometry>
        </mxCell>
        <mxCell id="00JhJRKnC4P_FVbmjxvB-49" style="edgeStyle=orthogonalEdgeStyle;rounded=0;orthogonalLoop=1;jettySize=auto;html=1;" edge="1" parent="1" source="00JhJRKnC4P_FVbmjxvB-51">
          <mxGeometry relative="1" as="geometry">
            <mxPoint x="490.7" y="5802.5" as="targetPoint" />
          </mxGeometry>
        </mxCell>
        <mxCell id="00JhJRKnC4P_FVbmjxvB-50" value="False" style="edgeLabel;html=1;align=center;verticalAlign=middle;resizable=0;points=[];" connectable="0" vertex="1" parent="00JhJRKnC4P_FVbmjxvB-49">
          <mxGeometry x="-0.5267" y="-1" relative="1" as="geometry">
            <mxPoint as="offset" />
          </mxGeometry>
        </mxCell>
        <mxCell id="00JhJRKnC4P_FVbmjxvB-51" value="Data ditemukan?" style="rhombus;whiteSpace=wrap;html=1;strokeColor=#FF3333;fillColor=#FFCCCC;" vertex="1" parent="1">
          <mxGeometry x="553.2000000000002" y="5692.5" width="105" height="90" as="geometry" />
        </mxCell>
        <mxCell id="wl5vKfPLSGNA0CRAG-PO-117" style="edgeStyle=orthogonalEdgeStyle;rounded=0;orthogonalLoop=1;jettySize=auto;html=1;exitX=0.5;exitY=1;exitDx=0;exitDy=0;entryX=0;entryY=0.5;entryDx=0;entryDy=0;" edge="1" parent="1" source="00JhJRKnC4P_FVbmjxvB-53" target="00JhJRKnC4P_FVbmjxvB-38">
          <mxGeometry relative="1" as="geometry" />
        </mxCell>
        <mxCell id="00JhJRKnC4P_FVbmjxvB-53" value="Menampilkan Data Customer&lt;div&gt;Yang Dicari&lt;/div&gt;" style="shape=parallelogram;perimeter=parallelogramPerimeter;whiteSpace=wrap;html=1;fixedSize=1;fillColor=#FFCCE6;strokeColor=#FF3399;" vertex="1" parent="1">
          <mxGeometry x="634.4500000000002" y="5802.5" width="150" height="50" as="geometry" />
        </mxCell>
        <mxCell id="wl5vKfPLSGNA0CRAG-PO-125" style="edgeStyle=orthogonalEdgeStyle;rounded=0;orthogonalLoop=1;jettySize=auto;html=1;exitX=0.5;exitY=1;exitDx=0;exitDy=0;entryX=0;entryY=0.5;entryDx=0;entryDy=0;" edge="1" parent="1" source="00JhJRKnC4P_FVbmjxvB-56" target="00JhJRKnC4P_FVbmjxvB-38">
          <mxGeometry relative="1" as="geometry" />
        </mxCell>
        <mxCell id="00JhJRKnC4P_FVbmjxvB-56" value="&lt;div&gt;output&lt;/div&gt;&quot;Data tidak ditemukan.&quot;" style="shape=parallelogram;perimeter=parallelogramPerimeter;whiteSpace=wrap;html=1;fixedSize=1;fillColor=#FFCCE6;strokeColor=#FF3399;" vertex="1" parent="1">
          <mxGeometry x="411.95" y="5802.5" width="144.5" height="60" as="geometry" />
        </mxCell>
        <mxCell id="4CZyeN5ca-wIJ5sxMpVc-34" value="" style="edgeStyle=orthogonalEdgeStyle;rounded=0;orthogonalLoop=1;jettySize=auto;html=1;" edge="1" parent="1" source="00JhJRKnC4P_FVbmjxvB-58">
          <mxGeometry relative="1" as="geometry">
            <mxPoint x="1782.5999999999997" y="5320" as="targetPoint" />
          </mxGeometry>
        </mxCell>
        <mxCell id="00JhJRKnC4P_FVbmjxvB-58" value="tampilkanHewan()" style="shape=process;whiteSpace=wrap;html=1;backgroundOutline=1;fillColor=#E5CCFF;strokeColor=#9933FF;align=center;verticalAlign=middle;fontFamily=Helvetica;fontSize=12;fontColor=default;" vertex="1" parent="1">
          <mxGeometry x="1704.9999999999998" y="5220" width="155" height="50" as="geometry" />
        </mxCell>
        <mxCell id="4CZyeN5ca-wIJ5sxMpVc-70" value="" style="edgeStyle=orthogonalEdgeStyle;rounded=0;orthogonalLoop=1;jettySize=auto;html=1;" edge="1" parent="1" target="4CZyeN5ca-wIJ5sxMpVc-69">
          <mxGeometry relative="1" as="geometry">
            <mxPoint x="1789.0999999999997" y="5448" as="sourcePoint" />
          </mxGeometry>
        </mxCell>
        <mxCell id="00JhJRKnC4P_FVbmjxvB-64" value="END" style="ellipse;whiteSpace=wrap;html=1;fillColor=#E5CCFF;strokeColor=#9933FF;" vertex="1" parent="1">
          <mxGeometry x="1738.9999999999998" y="6008" width="100" height="60" as="geometry" />
        </mxCell>
        <mxCell id="00JhJRKnC4P_FVbmjxvB-73" style="edgeStyle=orthogonalEdgeStyle;rounded=0;orthogonalLoop=1;jettySize=auto;html=1;" edge="1" parent="1" source="00JhJRKnC4P_FVbmjxvB-74">
          <mxGeometry relative="1" as="geometry">
            <mxPoint x="1546.4999999999998" y="5688" as="targetPoint" />
          </mxGeometry>
        </mxCell>
        <mxCell id="00JhJRKnC4P_FVbmjxvB-74" value="input id Hewan&lt;div&gt;Yang Dicari&lt;/div&gt;" style="shape=parallelogram;perimeter=parallelogramPerimeter;whiteSpace=wrap;html=1;fixedSize=1;fillColor=#FFCCE6;strokeColor=#FF3399;" vertex="1" parent="1">
          <mxGeometry x="1472.7499999999998" y="5598" width="147.5" height="60" as="geometry" />
        </mxCell>
        <mxCell id="00JhJRKnC4P_FVbmjxvB-75" style="edgeStyle=orthogonalEdgeStyle;rounded=0;orthogonalLoop=1;jettySize=auto;html=1;" edge="1" parent="1" source="00JhJRKnC4P_FVbmjxvB-79" target="00JhJRKnC4P_FVbmjxvB-81">
          <mxGeometry relative="1" as="geometry">
            <Array as="points">
              <mxPoint x="1651.4999999999998" y="5793" />
            </Array>
          </mxGeometry>
        </mxCell>
        <mxCell id="00JhJRKnC4P_FVbmjxvB-76" value="True" style="edgeLabel;html=1;align=center;verticalAlign=middle;resizable=0;points=[];" connectable="0" vertex="1" parent="00JhJRKnC4P_FVbmjxvB-75">
          <mxGeometry x="-0.4809" y="-1" relative="1" as="geometry">
            <mxPoint x="1" as="offset" />
          </mxGeometry>
        </mxCell>
        <mxCell id="00JhJRKnC4P_FVbmjxvB-77" style="edgeStyle=orthogonalEdgeStyle;rounded=0;orthogonalLoop=1;jettySize=auto;html=1;" edge="1" parent="1" source="00JhJRKnC4P_FVbmjxvB-79">
          <mxGeometry relative="1" as="geometry">
            <mxPoint x="1431.4999999999998" y="5858" as="targetPoint" />
          </mxGeometry>
        </mxCell>
        <mxCell id="00JhJRKnC4P_FVbmjxvB-78" value="False" style="edgeLabel;html=1;align=center;verticalAlign=middle;resizable=0;points=[];" connectable="0" vertex="1" parent="00JhJRKnC4P_FVbmjxvB-77">
          <mxGeometry x="-0.5984" y="1" relative="1" as="geometry">
            <mxPoint x="1" as="offset" />
          </mxGeometry>
        </mxCell>
        <mxCell id="00JhJRKnC4P_FVbmjxvB-79" value="Data ditemukan?" style="rhombus;whiteSpace=wrap;html=1;strokeColor=#FF3333;fillColor=#FFCCCC;" vertex="1" parent="1">
          <mxGeometry x="1494.9999999999998" y="5750" width="105" height="90" as="geometry" />
        </mxCell>
        <mxCell id="wl5vKfPLSGNA0CRAG-PO-112" style="edgeStyle=orthogonalEdgeStyle;rounded=0;orthogonalLoop=1;jettySize=auto;html=1;exitX=0.5;exitY=1;exitDx=0;exitDy=0;entryX=0;entryY=0.5;entryDx=0;entryDy=0;" edge="1" parent="1" source="00JhJRKnC4P_FVbmjxvB-81" target="00JhJRKnC4P_FVbmjxvB-64">
          <mxGeometry relative="1" as="geometry" />
        </mxCell>
        <mxCell id="00JhJRKnC4P_FVbmjxvB-81" value="Menampilkan Data Hewan&lt;div&gt;Yang Dicari&lt;/div&gt;" style="shape=parallelogram;perimeter=parallelogramPerimeter;whiteSpace=wrap;html=1;fixedSize=1;fillColor=#FFCCE6;strokeColor=#FF3399;" vertex="1" parent="1">
          <mxGeometry x="1566.5" y="5858" width="170" height="60" as="geometry" />
        </mxCell>
        <mxCell id="00JhJRKnC4P_FVbmjxvB-82" style="edgeStyle=orthogonalEdgeStyle;rounded=0;orthogonalLoop=1;jettySize=auto;html=1;entryX=0;entryY=0.5;entryDx=0;entryDy=0;" edge="1" parent="1" source="00JhJRKnC4P_FVbmjxvB-84" target="00JhJRKnC4P_FVbmjxvB-64">
          <mxGeometry relative="1" as="geometry">
            <Array as="points">
              <mxPoint x="1431.4999999999998" y="6038" />
            </Array>
          </mxGeometry>
        </mxCell>
        <mxCell id="00JhJRKnC4P_FVbmjxvB-84" value="&lt;div&gt;output&lt;/div&gt;&quot;Data tidak ditemukan.&quot;" style="shape=parallelogram;perimeter=parallelogramPerimeter;whiteSpace=wrap;html=1;fixedSize=1;fillColor=#FFCCE6;strokeColor=#FF3399;" vertex="1" parent="1">
          <mxGeometry x="1351.5" y="5858" width="155" height="60" as="geometry" />
        </mxCell>
        <mxCell id="00JhJRKnC4P_FVbmjxvB-85" style="edgeStyle=orthogonalEdgeStyle;rounded=0;orthogonalLoop=1;jettySize=auto;html=1;" edge="1" parent="1" source="00JhJRKnC4P_FVbmjxvB-86">
          <mxGeometry relative="1" as="geometry">
            <mxPoint x="862.25" y="4260" as="targetPoint" />
          </mxGeometry>
        </mxCell>
        <mxCell id="00JhJRKnC4P_FVbmjxvB-86" value="ubahCustomer()" style="shape=process;whiteSpace=wrap;html=1;backgroundOutline=1;fillColor=#E5CCFF;strokeColor=#9933FF;align=center;verticalAlign=middle;fontFamily=Helvetica;fontSize=12;fontColor=default;" vertex="1" parent="1">
          <mxGeometry x="784.75" y="4160" width="155" height="50" as="geometry" />
        </mxCell>
        <mxCell id="00JhJRKnC4P_FVbmjxvB-87" value="" style="edgeStyle=orthogonalEdgeStyle;rounded=0;orthogonalLoop=1;jettySize=auto;html=1;" edge="1" parent="1" source="00JhJRKnC4P_FVbmjxvB-88" target="00JhJRKnC4P_FVbmjxvB-93">
          <mxGeometry relative="1" as="geometry" />
        </mxCell>
        <mxCell id="00JhJRKnC4P_FVbmjxvB-88" value="Pilih username customer yang&lt;div&gt;&amp;nbsp;ingin diubah&lt;/div&gt;" style="shape=parallelogram;perimeter=parallelogramPerimeter;whiteSpace=wrap;html=1;fixedSize=1;fillColor=#FFCCE6;strokeColor=#FF3399;strokeWidth=2;shadow=1;" vertex="1" parent="1">
          <mxGeometry x="768.75" y="4260" width="190" height="80" as="geometry" />
        </mxCell>
        <mxCell id="00JhJRKnC4P_FVbmjxvB-89" value="" style="edgeStyle=orthogonalEdgeStyle;rounded=0;orthogonalLoop=1;jettySize=auto;html=1;" edge="1" parent="1" source="00JhJRKnC4P_FVbmjxvB-93" target="00JhJRKnC4P_FVbmjxvB-94">
          <mxGeometry relative="1" as="geometry" />
        </mxCell>
        <mxCell id="00JhJRKnC4P_FVbmjxvB-90" value="" style="edgeStyle=orthogonalEdgeStyle;rounded=0;orthogonalLoop=1;jettySize=auto;html=1;" edge="1" parent="1" source="00JhJRKnC4P_FVbmjxvB-93">
          <mxGeometry relative="1" as="geometry">
            <mxPoint x="698.75" y="4430" as="targetPoint" />
          </mxGeometry>
        </mxCell>
        <mxCell id="00JhJRKnC4P_FVbmjxvB-91" value="True" style="edgeLabel;html=1;align=center;verticalAlign=middle;resizable=0;points=[];" connectable="0" vertex="1" parent="00JhJRKnC4P_FVbmjxvB-90">
          <mxGeometry x="-0.1011" relative="1" as="geometry">
            <mxPoint x="216" as="offset" />
          </mxGeometry>
        </mxCell>
        <mxCell id="00JhJRKnC4P_FVbmjxvB-92" value="False" style="edgeLabel;html=1;align=center;verticalAlign=middle;resizable=0;points=[];" connectable="0" vertex="1" parent="00JhJRKnC4P_FVbmjxvB-90">
          <mxGeometry x="-0.1715" relative="1" as="geometry">
            <mxPoint x="12" as="offset" />
          </mxGeometry>
        </mxCell>
        <mxCell id="00JhJRKnC4P_FVbmjxvB-93" value="username != username&lt;div&gt;customer&lt;/div&gt;" style="rhombus;whiteSpace=wrap;html=1;fillColor=#FFCCCC;strokeColor=#FF3333;strokeWidth=2;shadow=1;align=center;verticalAlign=middle;fontFamily=Helvetica;fontSize=12;fontColor=default;" vertex="1" parent="1">
          <mxGeometry x="788.2" y="4390" width="151.55" height="80" as="geometry" />
        </mxCell>
        <mxCell id="00JhJRKnC4P_FVbmjxvB-94" value="&lt;div&gt;output &quot;Username&lt;span style=&quot;background-color: transparent; color: light-dark(rgb(0, 0, 0), rgb(255, 255, 255));&quot;&gt;&amp;nbsp;customer&amp;nbsp;&lt;/span&gt;&lt;/div&gt;&lt;div&gt;&lt;span style=&quot;background-color: transparent; color: light-dark(rgb(0, 0, 0), rgb(255, 255, 255));&quot;&gt;tidak ada!&quot;&lt;/span&gt;&lt;/div&gt;" style="shape=parallelogram;perimeter=parallelogramPerimeter;whiteSpace=wrap;html=1;fixedSize=1;fillColor=#FFCCE6;strokeColor=#FF3399;strokeWidth=2;shadow=1;" vertex="1" parent="1">
          <mxGeometry x="1008.75" y="4400" width="179.5" height="60" as="geometry" />
        </mxCell>
        <mxCell id="00JhJRKnC4P_FVbmjxvB-95" value="" style="endArrow=classic;html=1;rounded=0;" edge="1" parent="1">
          <mxGeometry width="50" height="50" relative="1" as="geometry">
            <mxPoint x="1148.75" y="4450" as="sourcePoint" />
            <mxPoint x="1208.75" y="4450" as="targetPoint" />
          </mxGeometry>
        </mxCell>
        <mxCell id="00JhJRKnC4P_FVbmjxvB-96" value="" style="endArrow=classic;html=1;rounded=0;" edge="1" parent="1">
          <mxGeometry width="50" height="50" relative="1" as="geometry">
            <mxPoint x="741.75" y="4270" as="sourcePoint" />
            <mxPoint x="801.75" y="4270" as="targetPoint" />
          </mxGeometry>
        </mxCell>
        <mxCell id="00JhJRKnC4P_FVbmjxvB-97" value="&lt;div&gt;output&lt;/div&gt;&quot;Data customer&lt;div&gt;&amp;nbsp;berhasil diubah&quot;&lt;/div&gt;" style="shape=parallelogram;perimeter=parallelogramPerimeter;whiteSpace=wrap;html=1;fixedSize=1;fillColor=#FFCCE6;strokeColor=#FF3399;strokeWidth=2;shadow=1;" vertex="1" parent="1">
          <mxGeometry x="560.75" y="4610" width="155" height="60" as="geometry" />
        </mxCell>
        <mxCell id="00JhJRKnC4P_FVbmjxvB-98" value="" style="endArrow=classic;html=1;rounded=0;" edge="1" parent="1">
          <mxGeometry width="50" height="50" relative="1" as="geometry">
            <mxPoint x="691.25" y="4660" as="sourcePoint" />
            <mxPoint x="738.25" y="4660" as="targetPoint" />
          </mxGeometry>
        </mxCell>
        <mxCell id="00JhJRKnC4P_FVbmjxvB-99" style="edgeStyle=orthogonalEdgeStyle;rounded=0;orthogonalLoop=1;jettySize=auto;html=1;entryX=0.5;entryY=0;entryDx=0;entryDy=0;" edge="1" parent="1" source="00JhJRKnC4P_FVbmjxvB-100" target="00JhJRKnC4P_FVbmjxvB-97">
          <mxGeometry relative="1" as="geometry">
            <Array as="points">
              <mxPoint x="638.25" y="4510" />
              <mxPoint x="638.25" y="4510" />
            </Array>
          </mxGeometry>
        </mxCell>
        <mxCell id="00JhJRKnC4P_FVbmjxvB-100" value="input data customer baru" style="shape=parallelogram;perimeter=parallelogramPerimeter;whiteSpace=wrap;html=1;fixedSize=1;fillColor=#FFCCE6;strokeColor=#FF3399;strokeWidth=2;shadow=1;" vertex="1" parent="1">
          <mxGeometry x="548.25" y="4400" width="190" height="80" as="geometry" />
        </mxCell>
        <mxCell id="00JhJRKnC4P_FVbmjxvB-101" value="" style="endArrow=classic;html=1;rounded=0;" edge="1" parent="1">
          <mxGeometry width="50" height="50" relative="1" as="geometry">
            <mxPoint x="521.25" y="4410" as="sourcePoint" />
            <mxPoint x="581.25" y="4410" as="targetPoint" />
          </mxGeometry>
        </mxCell>
        <mxCell id="00JhJRKnC4P_FVbmjxvB-102" style="edgeStyle=orthogonalEdgeStyle;rounded=0;orthogonalLoop=1;jettySize=auto;html=1;shadow=1;" edge="1" parent="1" source="00JhJRKnC4P_FVbmjxvB-103">
          <mxGeometry relative="1" as="geometry">
            <mxPoint x="1831.4999999999998" y="4250" as="targetPoint" />
          </mxGeometry>
        </mxCell>
        <mxCell id="00JhJRKnC4P_FVbmjxvB-103" value="ubahHewan()" style="shape=process;whiteSpace=wrap;html=1;backgroundOutline=1;fillColor=#E5CCFF;strokeColor=#9933FF;shadow=1;align=center;verticalAlign=middle;fontFamily=Helvetica;fontSize=12;fontColor=default;" vertex="1" parent="1">
          <mxGeometry x="1753.9999999999998" y="4150" width="155" height="50" as="geometry" />
        </mxCell>
        <mxCell id="00JhJRKnC4P_FVbmjxvB-104" value="" style="edgeStyle=orthogonalEdgeStyle;rounded=0;orthogonalLoop=1;jettySize=auto;html=1;shadow=1;" edge="1" parent="1" source="00JhJRKnC4P_FVbmjxvB-105" target="00JhJRKnC4P_FVbmjxvB-110">
          <mxGeometry relative="1" as="geometry" />
        </mxCell>
        <mxCell id="00JhJRKnC4P_FVbmjxvB-105" value="input&amp;nbsp; id hewan yang&lt;div&gt;&amp;nbsp;ingin diubah&lt;/div&gt;" style="shape=parallelogram;perimeter=parallelogramPerimeter;whiteSpace=wrap;html=1;fixedSize=1;fillColor=#FFCCE6;strokeColor=#FF3399;strokeWidth=2;shadow=1;" vertex="1" parent="1">
          <mxGeometry x="1737.9999999999998" y="4250" width="190" height="80" as="geometry" />
        </mxCell>
        <mxCell id="00JhJRKnC4P_FVbmjxvB-106" value="" style="edgeStyle=orthogonalEdgeStyle;rounded=0;orthogonalLoop=1;jettySize=auto;html=1;shadow=1;" edge="1" parent="1" source="00JhJRKnC4P_FVbmjxvB-110" target="00JhJRKnC4P_FVbmjxvB-111">
          <mxGeometry relative="1" as="geometry" />
        </mxCell>
        <mxCell id="00JhJRKnC4P_FVbmjxvB-107" value="" style="edgeStyle=orthogonalEdgeStyle;rounded=0;orthogonalLoop=1;jettySize=auto;html=1;shadow=1;" edge="1" parent="1" source="00JhJRKnC4P_FVbmjxvB-110">
          <mxGeometry relative="1" as="geometry">
            <mxPoint x="1667.9999999999998" y="4420" as="targetPoint" />
          </mxGeometry>
        </mxCell>
        <mxCell id="00JhJRKnC4P_FVbmjxvB-108" value="True" style="edgeLabel;html=1;align=center;verticalAlign=middle;resizable=0;points=[];shadow=1;" connectable="0" vertex="1" parent="00JhJRKnC4P_FVbmjxvB-107">
          <mxGeometry x="-0.1011" relative="1" as="geometry">
            <mxPoint x="216" as="offset" />
          </mxGeometry>
        </mxCell>
        <mxCell id="00JhJRKnC4P_FVbmjxvB-109" value="False" style="edgeLabel;html=1;align=center;verticalAlign=middle;resizable=0;points=[];shadow=1;" connectable="0" vertex="1" parent="00JhJRKnC4P_FVbmjxvB-107">
          <mxGeometry x="-0.1715" relative="1" as="geometry">
            <mxPoint x="12" as="offset" />
          </mxGeometry>
        </mxCell>
        <mxCell id="00JhJRKnC4P_FVbmjxvB-110" value="id != id&amp;nbsp;&lt;span style=&quot;background-color: transparent; color: light-dark(rgb(0, 0, 0), rgb(255, 255, 255));&quot;&gt;hewan&lt;/span&gt;" style="rhombus;whiteSpace=wrap;html=1;fillColor=#FFCCCC;strokeColor=#FF3333;strokeWidth=2;shadow=1;" vertex="1" parent="1">
          <mxGeometry x="1770.9999999999998" y="4380" width="125" height="80" as="geometry" />
        </mxCell>
        <mxCell id="00JhJRKnC4P_FVbmjxvB-111" value="output &quot;id Hewan&amp;nbsp;&lt;div&gt;tidak ada!&quot;&lt;/div&gt;" style="shape=parallelogram;perimeter=parallelogramPerimeter;whiteSpace=wrap;html=1;fixedSize=1;fillColor=#FFCCE6;strokeColor=#FF3399;strokeWidth=2;shadow=1;" vertex="1" parent="1">
          <mxGeometry x="1977.9999999999998" y="4390" width="179.5" height="60" as="geometry" />
        </mxCell>
        <mxCell id="00JhJRKnC4P_FVbmjxvB-112" value="" style="endArrow=classic;html=1;rounded=0;shadow=1;" edge="1" parent="1">
          <mxGeometry width="50" height="50" relative="1" as="geometry">
            <mxPoint x="2118" y="4440" as="sourcePoint" />
            <mxPoint x="2178" y="4440" as="targetPoint" />
          </mxGeometry>
        </mxCell>
        <mxCell id="00JhJRKnC4P_FVbmjxvB-113" value="" style="endArrow=classic;html=1;rounded=0;shadow=1;" edge="1" parent="1">
          <mxGeometry width="50" height="50" relative="1" as="geometry">
            <mxPoint x="1710.9999999999998" y="4260" as="sourcePoint" />
            <mxPoint x="1770.9999999999998" y="4260" as="targetPoint" />
          </mxGeometry>
        </mxCell>
        <mxCell id="00JhJRKnC4P_FVbmjxvB-114" value="" style="edgeStyle=orthogonalEdgeStyle;rounded=0;orthogonalLoop=1;jettySize=auto;html=1;entryX=0;entryY=0.5;entryDx=0;entryDy=0;entryPerimeter=0;shadow=1;" edge="1" parent="1" source="00JhJRKnC4P_FVbmjxvB-115" target="00JhJRKnC4P_FVbmjxvB-124">
          <mxGeometry relative="1" as="geometry">
            <mxPoint x="1608.5" y="4770" as="targetPoint" />
            <Array as="points">
              <mxPoint x="1609.5" y="4800" />
            </Array>
          </mxGeometry>
        </mxCell>
        <mxCell id="00JhJRKnC4P_FVbmjxvB-115" value="output &quot;Data Hewan&amp;nbsp;&lt;div&gt;berhasil&amp;nbsp;&lt;span style=&quot;background-color: transparent; color: light-dark(rgb(0, 0, 0), rgb(255, 255, 255));&quot;&gt;diubah&quot;&lt;/span&gt;&lt;/div&gt;" style="shape=parallelogram;perimeter=parallelogramPerimeter;whiteSpace=wrap;html=1;fixedSize=1;fillColor=#FFCCE6;strokeColor=#FF3399;strokeWidth=2;shadow=1;" vertex="1" parent="1">
          <mxGeometry x="1530" y="4600" width="155" height="60" as="geometry" />
        </mxCell>
        <mxCell id="00JhJRKnC4P_FVbmjxvB-116" value="" style="endArrow=classic;html=1;rounded=0;shadow=1;" edge="1" parent="1">
          <mxGeometry width="50" height="50" relative="1" as="geometry">
            <mxPoint x="1647.4999999999998" y="4650" as="sourcePoint" />
            <mxPoint x="1707.4999999999998" y="4650" as="targetPoint" />
          </mxGeometry>
        </mxCell>
        <mxCell id="00JhJRKnC4P_FVbmjxvB-117" style="edgeStyle=orthogonalEdgeStyle;rounded=0;orthogonalLoop=1;jettySize=auto;html=1;entryX=0.5;entryY=0;entryDx=0;entryDy=0;shadow=1;" edge="1" parent="1" source="00JhJRKnC4P_FVbmjxvB-118" target="00JhJRKnC4P_FVbmjxvB-115">
          <mxGeometry relative="1" as="geometry">
            <Array as="points">
              <mxPoint x="1607.5" y="4500" />
              <mxPoint x="1607.5" y="4500" />
            </Array>
          </mxGeometry>
        </mxCell>
        <mxCell id="00JhJRKnC4P_FVbmjxvB-118" value="input data hewan baru" style="shape=parallelogram;perimeter=parallelogramPerimeter;whiteSpace=wrap;html=1;fixedSize=1;fillColor=#FFCCE6;strokeColor=#FF3399;strokeWidth=2;shadow=1;" vertex="1" parent="1">
          <mxGeometry x="1517.5" y="4390" width="190" height="80" as="geometry" />
        </mxCell>
        <mxCell id="00JhJRKnC4P_FVbmjxvB-119" value="" style="endArrow=classic;html=1;rounded=0;shadow=1;" edge="1" parent="1">
          <mxGeometry width="50" height="50" relative="1" as="geometry">
            <mxPoint x="1490.5" y="4400" as="sourcePoint" />
            <mxPoint x="1550.5" y="4400" as="targetPoint" />
          </mxGeometry>
        </mxCell>
        <mxCell id="00JhJRKnC4P_FVbmjxvB-120" value="" style="edgeStyle=orthogonalEdgeStyle;rounded=0;orthogonalLoop=1;jettySize=auto;html=1;exitX=0.5;exitY=1;exitDx=0;exitDy=0;entryX=1;entryY=0.5;entryDx=0;entryDy=0;entryPerimeter=0;" edge="1" parent="1" source="00JhJRKnC4P_FVbmjxvB-94" target="00JhJRKnC4P_FVbmjxvB-121">
          <mxGeometry relative="1" as="geometry">
            <mxPoint x="1098.25" y="4460" as="sourcePoint" />
            <mxPoint x="689.25" y="4810" as="targetPoint" />
          </mxGeometry>
        </mxCell>
        <mxCell id="00JhJRKnC4P_FVbmjxvB-121" value="END" style="strokeWidth=2;html=1;shape=mxgraph.flowchart.start_1;whiteSpace=wrap;shadow=1;strokeColor=#9933FF;fillColor=#E5CCFF;" vertex="1" parent="1">
          <mxGeometry x="816.25" y="4770" width="100" height="60" as="geometry" />
        </mxCell>
        <mxCell id="00JhJRKnC4P_FVbmjxvB-122" style="edgeStyle=orthogonalEdgeStyle;rounded=0;orthogonalLoop=1;jettySize=auto;html=1;entryX=0;entryY=0.5;entryDx=0;entryDy=0;entryPerimeter=0;" edge="1" parent="1" source="00JhJRKnC4P_FVbmjxvB-97" target="00JhJRKnC4P_FVbmjxvB-121">
          <mxGeometry relative="1" as="geometry">
            <Array as="points">
              <mxPoint x="641.25" y="4800" />
            </Array>
          </mxGeometry>
        </mxCell>
        <mxCell id="00JhJRKnC4P_FVbmjxvB-123" value="" style="edgeStyle=orthogonalEdgeStyle;rounded=0;orthogonalLoop=1;jettySize=auto;html=1;exitX=0.5;exitY=1;exitDx=0;exitDy=0;entryX=1;entryY=0.5;entryDx=0;entryDy=0;entryPerimeter=0;shadow=1;" edge="1" parent="1" source="00JhJRKnC4P_FVbmjxvB-111" target="00JhJRKnC4P_FVbmjxvB-124">
          <mxGeometry relative="1" as="geometry">
            <mxPoint x="2067.5" y="4450" as="sourcePoint" />
            <mxPoint x="1658.4999999999998" y="4800" as="targetPoint" />
          </mxGeometry>
        </mxCell>
        <mxCell id="00JhJRKnC4P_FVbmjxvB-124" value="END" style="strokeWidth=2;html=1;shape=mxgraph.flowchart.start_1;whiteSpace=wrap;shadow=1;strokeColor=#9933FF;fillColor=#E5CCFF;" vertex="1" parent="1">
          <mxGeometry x="1781.4999999999998" y="4770" width="100" height="60" as="geometry" />
        </mxCell>
        <mxCell id="00JhJRKnC4P_FVbmjxvB-131" value="" style="endArrow=classic;html=1;rounded=0;entryX=0;entryY=0;entryDx=0;entryDy=0;" edge="1" parent="1" target="00JhJRKnC4P_FVbmjxvB-24">
          <mxGeometry width="50" height="50" relative="1" as="geometry">
            <mxPoint x="1378.36" y="3626" as="sourcePoint" />
            <mxPoint x="1288.36" y="3480" as="targetPoint" />
          </mxGeometry>
        </mxCell>
        <mxCell id="00JhJRKnC4P_FVbmjxvB-134" value="tampilkanLaporan" style="shape=process;whiteSpace=wrap;html=1;backgroundOutline=1;strokeColor=#9933FF;align=center;verticalAlign=middle;fontFamily=Helvetica;fontSize=12;fontColor=default;fillColor=#E5CCFF;" vertex="1" parent="1">
          <mxGeometry x="2782.75" y="3430" width="170" height="60" as="geometry" />
        </mxCell>
        <mxCell id="00JhJRKnC4P_FVbmjxvB-135" value="" style="endArrow=classic;html=1;rounded=0;exitX=0.5;exitY=1;exitDx=0;exitDy=0;" edge="1" parent="1" source="00JhJRKnC4P_FVbmjxvB-134">
          <mxGeometry width="50" height="50" relative="1" as="geometry">
            <mxPoint x="3162.75" y="3690" as="sourcePoint" />
            <mxPoint x="2867.75" y="3540" as="targetPoint" />
          </mxGeometry>
        </mxCell>
        <mxCell id="00JhJRKnC4P_FVbmjxvB-136" style="edgeStyle=orthogonalEdgeStyle;rounded=0;orthogonalLoop=1;jettySize=auto;html=1;" edge="1" parent="1" source="00JhJRKnC4P_FVbmjxvB-137">
          <mxGeometry relative="1" as="geometry">
            <mxPoint x="2867.75" y="3630" as="targetPoint" />
          </mxGeometry>
        </mxCell>
        <mxCell id="00JhJRKnC4P_FVbmjxvB-137" value="input tanggal, bulan, dan tahun reservasi" style="shape=parallelogram;perimeter=parallelogramPerimeter;whiteSpace=wrap;html=1;fixedSize=1;strokeColor=#FF3399;align=center;verticalAlign=middle;fontFamily=Helvetica;fontSize=12;fontColor=default;fillColor=#FFCCE6;" vertex="1" parent="1">
          <mxGeometry x="2767.88" y="3540" width="199.75" height="60" as="geometry" />
        </mxCell>
        <mxCell id="00JhJRKnC4P_FVbmjxvB-138" value="" style="endArrow=classic;html=1;rounded=0;entryX=0;entryY=0;entryDx=0;entryDy=0;" edge="1" parent="1" target="00JhJRKnC4P_FVbmjxvB-137">
          <mxGeometry width="50" height="50" relative="1" as="geometry">
            <mxPoint x="2720" y="3545" as="sourcePoint" />
            <mxPoint x="2822.75" y="3500" as="targetPoint" />
          </mxGeometry>
        </mxCell>
        <mxCell id="00JhJRKnC4P_FVbmjxvB-139" style="edgeStyle=orthogonalEdgeStyle;rounded=0;orthogonalLoop=1;jettySize=auto;html=1;" edge="1" parent="1" source="00JhJRKnC4P_FVbmjxvB-140">
          <mxGeometry relative="1" as="geometry">
            <mxPoint x="2867.75" y="3710" as="targetPoint" />
          </mxGeometry>
        </mxCell>
        <mxCell id="00JhJRKnC4P_FVbmjxvB-140" value="filter data" style="rounded=0;whiteSpace=wrap;html=1;strokeColor=#FF9933;align=center;verticalAlign=middle;fontFamily=Helvetica;fontSize=12;fontColor=default;fillColor=#FFE6CC;" vertex="1" parent="1">
          <mxGeometry x="2807.75" y="3630" width="120" height="50" as="geometry" />
        </mxCell>
        <mxCell id="00JhJRKnC4P_FVbmjxvB-141" style="edgeStyle=orthogonalEdgeStyle;rounded=0;orthogonalLoop=1;jettySize=auto;html=1;entryX=0.5;entryY=0;entryDx=0;entryDy=0;" edge="1" parent="1" source="00JhJRKnC4P_FVbmjxvB-142" target="00JhJRKnC4P_FVbmjxvB-144">
          <mxGeometry relative="1" as="geometry" />
        </mxCell>
        <mxCell id="00JhJRKnC4P_FVbmjxvB-142" value="output data yang dicari" style="shape=parallelogram;perimeter=parallelogramPerimeter;whiteSpace=wrap;html=1;fixedSize=1;strokeColor=#FF3399;align=center;verticalAlign=middle;fontFamily=Helvetica;fontSize=12;fontColor=default;fillColor=#FFCCE6;" vertex="1" parent="1">
          <mxGeometry x="2792.75" y="3710" width="155" height="60" as="geometry" />
        </mxCell>
        <mxCell id="00JhJRKnC4P_FVbmjxvB-143" value="" style="endArrow=classic;html=1;rounded=0;" edge="1" parent="1">
          <mxGeometry width="50" height="50" relative="1" as="geometry">
            <mxPoint x="2932.75" y="3760" as="sourcePoint" />
            <mxPoint x="2962.75" y="3760" as="targetPoint" />
          </mxGeometry>
        </mxCell>
        <mxCell id="00JhJRKnC4P_FVbmjxvB-144" value="END" style="ellipse;whiteSpace=wrap;html=1;fillColor=#E5CCFF;strokeColor=#9933FF;" vertex="1" parent="1">
          <mxGeometry x="2820.25" y="3810" width="100" height="60" as="geometry" />
        </mxCell>
        <mxCell id="00JhJRKnC4P_FVbmjxvB-145" style="edgeStyle=orthogonalEdgeStyle;rounded=0;orthogonalLoop=1;jettySize=auto;html=1;" edge="1" parent="1" source="00JhJRKnC4P_FVbmjxvB-146">
          <mxGeometry relative="1" as="geometry">
            <mxPoint x="3278.16" y="5490" as="targetPoint" />
          </mxGeometry>
        </mxCell>
        <mxCell id="00JhJRKnC4P_FVbmjxvB-146" value="tampilkanData()" style="shape=process;whiteSpace=wrap;html=1;backgroundOutline=1;fillColor=#CCE5FF;strokeColor=#007FFF;strokeWidth=2;shadow=1;" vertex="1" parent="1">
          <mxGeometry x="3205.66" y="5380" width="145" height="60" as="geometry" />
        </mxCell>
        <mxCell id="00JhJRKnC4P_FVbmjxvB-147" style="edgeStyle=orthogonalEdgeStyle;rounded=0;orthogonalLoop=1;jettySize=auto;html=1;" edge="1" parent="1" source="00JhJRKnC4P_FVbmjxvB-148">
          <mxGeometry relative="1" as="geometry">
            <mxPoint x="3278.16" y="5590" as="targetPoint" />
          </mxGeometry>
        </mxCell>
        <mxCell id="00JhJRKnC4P_FVbmjxvB-148" value="input data yang ingin ditampilkan [Customer/Hewan]" style="shape=parallelogram;perimeter=parallelogramPerimeter;whiteSpace=wrap;html=1;fixedSize=1;shadow=1;strokeColor=#FF3399;strokeWidth=2;align=center;verticalAlign=middle;fontFamily=Helvetica;fontSize=12;fontColor=default;fillColor=#FFCCE6;" vertex="1" parent="1">
          <mxGeometry x="3197.41" y="5490" width="161.5" height="60" as="geometry" />
        </mxCell>
        <mxCell id="00JhJRKnC4P_FVbmjxvB-149" value="" style="endArrow=classic;html=1;rounded=0;entryX=0.086;entryY=0.196;entryDx=0;entryDy=0;entryPerimeter=0;" edge="1" parent="1" target="00JhJRKnC4P_FVbmjxvB-148">
          <mxGeometry width="50" height="50" relative="1" as="geometry">
            <mxPoint x="3169.66" y="5502" as="sourcePoint" />
            <mxPoint x="3219.66" y="5450" as="targetPoint" />
          </mxGeometry>
        </mxCell>
        <mxCell id="00JhJRKnC4P_FVbmjxvB-150" style="edgeStyle=orthogonalEdgeStyle;rounded=0;orthogonalLoop=1;jettySize=auto;html=1;" edge="1" parent="1" source="00JhJRKnC4P_FVbmjxvB-152">
          <mxGeometry relative="1" as="geometry">
            <mxPoint x="3278.16" y="5730" as="targetPoint" />
          </mxGeometry>
        </mxCell>
        <mxCell id="00JhJRKnC4P_FVbmjxvB-151" style="edgeStyle=orthogonalEdgeStyle;rounded=0;orthogonalLoop=1;jettySize=auto;html=1;" edge="1" parent="1" source="00JhJRKnC4P_FVbmjxvB-152">
          <mxGeometry relative="1" as="geometry">
            <mxPoint x="3409.66" y="5640" as="targetPoint" />
          </mxGeometry>
        </mxCell>
        <mxCell id="00JhJRKnC4P_FVbmjxvB-152" value="Data Customer?" style="rhombus;whiteSpace=wrap;html=1;shadow=1;strokeColor=#FF3333;strokeWidth=2;align=center;verticalAlign=middle;fontFamily=Helvetica;fontSize=12;fontColor=default;fillColor=#FFCCCC;" vertex="1" parent="1">
          <mxGeometry x="3222.41" y="5590" width="111.5" height="100" as="geometry" />
        </mxCell>
        <mxCell id="00JhJRKnC4P_FVbmjxvB-153" style="edgeStyle=orthogonalEdgeStyle;rounded=0;orthogonalLoop=1;jettySize=auto;html=1;" edge="1" parent="1" source="00JhJRKnC4P_FVbmjxvB-154">
          <mxGeometry relative="1" as="geometry">
            <mxPoint x="3275.66" y="5830" as="targetPoint" />
          </mxGeometry>
        </mxCell>
        <mxCell id="00JhJRKnC4P_FVbmjxvB-154" value="tampilkanCustomer()" style="shape=process;whiteSpace=wrap;html=1;backgroundOutline=1;fillColor=#CCFFCC;strokeColor=#97D077;" vertex="1" parent="1">
          <mxGeometry x="3205.66" y="5730" width="140" height="50" as="geometry" />
        </mxCell>
        <mxCell id="00JhJRKnC4P_FVbmjxvB-155" style="edgeStyle=orthogonalEdgeStyle;rounded=0;orthogonalLoop=1;jettySize=auto;html=1;" edge="1" parent="1" source="00JhJRKnC4P_FVbmjxvB-157">
          <mxGeometry relative="1" as="geometry">
            <mxPoint x="3465.409999999999" y="5730" as="targetPoint" />
          </mxGeometry>
        </mxCell>
        <mxCell id="00JhJRKnC4P_FVbmjxvB-156" style="edgeStyle=orthogonalEdgeStyle;rounded=0;orthogonalLoop=1;jettySize=auto;html=1;" edge="1" parent="1" source="00JhJRKnC4P_FVbmjxvB-157">
          <mxGeometry relative="1" as="geometry">
            <mxPoint x="3569.66" y="5640" as="targetPoint" />
          </mxGeometry>
        </mxCell>
        <mxCell id="00JhJRKnC4P_FVbmjxvB-157" value="Data Hewan?" style="rhombus;whiteSpace=wrap;html=1;shadow=1;strokeColor=#FF3333;strokeWidth=2;align=center;verticalAlign=middle;fontFamily=Helvetica;fontSize=12;fontColor=default;fillColor=#FFCCCC;" vertex="1" parent="1">
          <mxGeometry x="3409.66" y="5590" width="111.5" height="100" as="geometry" />
        </mxCell>
        <mxCell id="00JhJRKnC4P_FVbmjxvB-158" style="edgeStyle=orthogonalEdgeStyle;rounded=0;orthogonalLoop=1;jettySize=auto;html=1;entryX=1;entryY=0.5;entryDx=0;entryDy=0;entryPerimeter=0;" edge="1" parent="1" source="00JhJRKnC4P_FVbmjxvB-159" target="00JhJRKnC4P_FVbmjxvB-163">
          <mxGeometry relative="1" as="geometry">
            <mxPoint x="3465.66" y="5830" as="targetPoint" />
            <Array as="points">
              <mxPoint x="3465.66" y="5860" />
            </Array>
          </mxGeometry>
        </mxCell>
        <mxCell id="00JhJRKnC4P_FVbmjxvB-159" value="tampilkanHewan()" style="shape=process;whiteSpace=wrap;html=1;backgroundOutline=1;fillColor=#CCFFCC;strokeColor=#97D077;" vertex="1" parent="1">
          <mxGeometry x="3395.41" y="5730" width="140" height="50" as="geometry" />
        </mxCell>
        <mxCell id="00JhJRKnC4P_FVbmjxvB-160" style="edgeStyle=orthogonalEdgeStyle;rounded=0;orthogonalLoop=1;jettySize=auto;html=1;exitX=1;exitY=1;exitDx=0;exitDy=0;" edge="1" parent="1" source="00JhJRKnC4P_FVbmjxvB-162">
          <mxGeometry relative="1" as="geometry">
            <mxPoint x="3709.66" y="5662.384615384615" as="targetPoint" />
          </mxGeometry>
        </mxCell>
        <mxCell id="00JhJRKnC4P_FVbmjxvB-161" style="edgeStyle=orthogonalEdgeStyle;rounded=0;orthogonalLoop=1;jettySize=auto;html=1;entryX=1;entryY=0.5;entryDx=0;entryDy=0;" edge="1" parent="1" source="00JhJRKnC4P_FVbmjxvB-162" target="00JhJRKnC4P_FVbmjxvB-148">
          <mxGeometry relative="1" as="geometry">
            <Array as="points">
              <mxPoint x="3629.66" y="5520" />
            </Array>
          </mxGeometry>
        </mxCell>
        <mxCell id="00JhJRKnC4P_FVbmjxvB-162" value="output &quot;jenis data&lt;div&gt;tidak ditemukan.&quot;&lt;/div&gt;" style="shape=parallelogram;perimeter=parallelogramPerimeter;whiteSpace=wrap;html=1;fixedSize=1;shadow=1;strokeColor=#FF3399;strokeWidth=2;align=center;verticalAlign=middle;fontFamily=Helvetica;fontSize=12;fontColor=default;fillColor=#FFCCE6;" vertex="1" parent="1">
          <mxGeometry x="3559.66" y="5610" width="140" height="60" as="geometry" />
        </mxCell>
        <mxCell id="00JhJRKnC4P_FVbmjxvB-163" value="END" style="strokeWidth=2;html=1;shape=mxgraph.flowchart.start_1;whiteSpace=wrap;shadow=1;strokeColor=#9933FF;fillColor=#E5CCFF;" vertex="1" parent="1">
          <mxGeometry x="3225.66" y="5830" width="100" height="60" as="geometry" />
        </mxCell>
        <mxCell id="00JhJRKnC4P_FVbmjxvB-183" style="edgeStyle=orthogonalEdgeStyle;rounded=0;orthogonalLoop=1;jettySize=auto;html=1;" edge="1" parent="1" source="00JhJRKnC4P_FVbmjxvB-184">
          <mxGeometry relative="1" as="geometry">
            <mxPoint x="2734.21" y="4270" as="targetPoint" />
          </mxGeometry>
        </mxCell>
        <mxCell id="00JhJRKnC4P_FVbmjxvB-184" value="ubahData()" style="shape=process;whiteSpace=wrap;html=1;backgroundOutline=1;fillColor=#CCE5FF;strokeColor=#007FFF;strokeWidth=2;shadow=1;" vertex="1" parent="1">
          <mxGeometry x="2661.71" y="4160" width="145" height="60" as="geometry" />
        </mxCell>
        <mxCell id="00JhJRKnC4P_FVbmjxvB-185" style="edgeStyle=orthogonalEdgeStyle;rounded=0;orthogonalLoop=1;jettySize=auto;html=1;" edge="1" parent="1" source="00JhJRKnC4P_FVbmjxvB-186">
          <mxGeometry relative="1" as="geometry">
            <mxPoint x="2734.21" y="4370" as="targetPoint" />
          </mxGeometry>
        </mxCell>
        <mxCell id="00JhJRKnC4P_FVbmjxvB-186" value="input data yang ingin&amp;nbsp;&lt;div&gt;diubah [Customer/Hewan]&lt;/div&gt;" style="shape=parallelogram;perimeter=parallelogramPerimeter;whiteSpace=wrap;html=1;fixedSize=1;shadow=1;strokeColor=#FF3399;strokeWidth=2;align=center;verticalAlign=middle;fontFamily=Helvetica;fontSize=12;fontColor=default;fillColor=#FFCCE6;" vertex="1" parent="1">
          <mxGeometry x="2653.46" y="4270" width="161.5" height="60" as="geometry" />
        </mxCell>
        <mxCell id="00JhJRKnC4P_FVbmjxvB-187" value="" style="endArrow=classic;html=1;rounded=0;entryX=0.086;entryY=0.196;entryDx=0;entryDy=0;entryPerimeter=0;" edge="1" parent="1" target="00JhJRKnC4P_FVbmjxvB-186">
          <mxGeometry width="50" height="50" relative="1" as="geometry">
            <mxPoint x="2625.71" y="4282" as="sourcePoint" />
            <mxPoint x="2675.71" y="4230" as="targetPoint" />
          </mxGeometry>
        </mxCell>
        <mxCell id="00JhJRKnC4P_FVbmjxvB-188" style="edgeStyle=orthogonalEdgeStyle;rounded=0;orthogonalLoop=1;jettySize=auto;html=1;" edge="1" parent="1" source="00JhJRKnC4P_FVbmjxvB-190">
          <mxGeometry relative="1" as="geometry">
            <mxPoint x="2734.21" y="4510" as="targetPoint" />
          </mxGeometry>
        </mxCell>
        <mxCell id="00JhJRKnC4P_FVbmjxvB-189" style="edgeStyle=orthogonalEdgeStyle;rounded=0;orthogonalLoop=1;jettySize=auto;html=1;" edge="1" parent="1" source="00JhJRKnC4P_FVbmjxvB-190">
          <mxGeometry relative="1" as="geometry">
            <mxPoint x="2865.71" y="4420" as="targetPoint" />
          </mxGeometry>
        </mxCell>
        <mxCell id="00JhJRKnC4P_FVbmjxvB-190" value="Data Customer?" style="rhombus;whiteSpace=wrap;html=1;shadow=1;strokeColor=#FF3333;strokeWidth=2;align=center;verticalAlign=middle;fontFamily=Helvetica;fontSize=12;fontColor=default;fillColor=#FFCCCC;" vertex="1" parent="1">
          <mxGeometry x="2678.46" y="4370" width="111.5" height="100" as="geometry" />
        </mxCell>
        <mxCell id="00JhJRKnC4P_FVbmjxvB-191" style="edgeStyle=orthogonalEdgeStyle;rounded=0;orthogonalLoop=1;jettySize=auto;html=1;" edge="1" parent="1" source="00JhJRKnC4P_FVbmjxvB-192">
          <mxGeometry relative="1" as="geometry">
            <mxPoint x="2731.71" y="4610" as="targetPoint" />
          </mxGeometry>
        </mxCell>
        <mxCell id="00JhJRKnC4P_FVbmjxvB-192" value="ubahCustomer()" style="shape=process;whiteSpace=wrap;html=1;backgroundOutline=1;fillColor=#CCFFCC;strokeColor=#97D077;" vertex="1" parent="1">
          <mxGeometry x="2661.71" y="4510" width="140" height="50" as="geometry" />
        </mxCell>
        <mxCell id="00JhJRKnC4P_FVbmjxvB-193" style="edgeStyle=orthogonalEdgeStyle;rounded=0;orthogonalLoop=1;jettySize=auto;html=1;" edge="1" parent="1" source="00JhJRKnC4P_FVbmjxvB-195">
          <mxGeometry relative="1" as="geometry">
            <mxPoint x="2921.4599999999996" y="4510" as="targetPoint" />
          </mxGeometry>
        </mxCell>
        <mxCell id="00JhJRKnC4P_FVbmjxvB-194" style="edgeStyle=orthogonalEdgeStyle;rounded=0;orthogonalLoop=1;jettySize=auto;html=1;" edge="1" parent="1" source="00JhJRKnC4P_FVbmjxvB-195">
          <mxGeometry relative="1" as="geometry">
            <mxPoint x="3025.71" y="4420" as="targetPoint" />
          </mxGeometry>
        </mxCell>
        <mxCell id="00JhJRKnC4P_FVbmjxvB-195" value="Data Hewan?" style="rhombus;whiteSpace=wrap;html=1;shadow=1;strokeColor=#FF3333;strokeWidth=2;align=center;verticalAlign=middle;fontFamily=Helvetica;fontSize=12;fontColor=default;fillColor=#FFCCCC;" vertex="1" parent="1">
          <mxGeometry x="2865.71" y="4370" width="111.5" height="100" as="geometry" />
        </mxCell>
        <mxCell id="00JhJRKnC4P_FVbmjxvB-196" style="edgeStyle=orthogonalEdgeStyle;rounded=0;orthogonalLoop=1;jettySize=auto;html=1;entryX=1;entryY=0.5;entryDx=0;entryDy=0;entryPerimeter=0;" edge="1" parent="1" source="00JhJRKnC4P_FVbmjxvB-197" target="00JhJRKnC4P_FVbmjxvB-201">
          <mxGeometry relative="1" as="geometry">
            <mxPoint x="2921.71" y="4610" as="targetPoint" />
            <Array as="points">
              <mxPoint x="2921.71" y="4640" />
            </Array>
          </mxGeometry>
        </mxCell>
        <mxCell id="00JhJRKnC4P_FVbmjxvB-197" value="ubahHewan()" style="shape=process;whiteSpace=wrap;html=1;backgroundOutline=1;fillColor=#CCFFCC;strokeColor=#97D077;" vertex="1" parent="1">
          <mxGeometry x="2851.46" y="4510" width="140" height="50" as="geometry" />
        </mxCell>
        <mxCell id="00JhJRKnC4P_FVbmjxvB-198" style="edgeStyle=orthogonalEdgeStyle;rounded=0;orthogonalLoop=1;jettySize=auto;html=1;exitX=1;exitY=1;exitDx=0;exitDy=0;" edge="1" parent="1" source="00JhJRKnC4P_FVbmjxvB-200">
          <mxGeometry relative="1" as="geometry">
            <mxPoint x="3165.71" y="4442.384615384615" as="targetPoint" />
          </mxGeometry>
        </mxCell>
        <mxCell id="00JhJRKnC4P_FVbmjxvB-199" style="edgeStyle=orthogonalEdgeStyle;rounded=0;orthogonalLoop=1;jettySize=auto;html=1;entryX=1;entryY=0.5;entryDx=0;entryDy=0;" edge="1" parent="1" source="00JhJRKnC4P_FVbmjxvB-200" target="00JhJRKnC4P_FVbmjxvB-186">
          <mxGeometry relative="1" as="geometry">
            <Array as="points">
              <mxPoint x="3085.71" y="4300" />
            </Array>
          </mxGeometry>
        </mxCell>
        <mxCell id="00JhJRKnC4P_FVbmjxvB-200" value="output &quot;jenis data&lt;div&gt;tidak ditemukan.&quot;&lt;/div&gt;" style="shape=parallelogram;perimeter=parallelogramPerimeter;whiteSpace=wrap;html=1;fixedSize=1;shadow=1;strokeColor=#FF3399;strokeWidth=2;align=center;verticalAlign=middle;fontFamily=Helvetica;fontSize=12;fontColor=default;fillColor=#FFCCE6;" vertex="1" parent="1">
          <mxGeometry x="3015.71" y="4390" width="140" height="60" as="geometry" />
        </mxCell>
        <mxCell id="00JhJRKnC4P_FVbmjxvB-201" value="END" style="strokeWidth=2;html=1;shape=mxgraph.flowchart.start_1;whiteSpace=wrap;shadow=1;strokeColor=#9933FF;fillColor=#E5CCFF;" vertex="1" parent="1">
          <mxGeometry x="2681.71" y="4610" width="100" height="60" as="geometry" />
        </mxCell>
        <mxCell id="00JhJRKnC4P_FVbmjxvB-202" style="edgeStyle=orthogonalEdgeStyle;rounded=0;orthogonalLoop=1;jettySize=auto;html=1;" edge="1" parent="1" source="00JhJRKnC4P_FVbmjxvB-203">
          <mxGeometry relative="1" as="geometry">
            <mxPoint x="3258.33" y="6760" as="targetPoint" />
          </mxGeometry>
        </mxCell>
        <mxCell id="00JhJRKnC4P_FVbmjxvB-203" value="hapusData()" style="shape=process;whiteSpace=wrap;html=1;backgroundOutline=1;fillColor=#CCE5FF;strokeColor=#007FFF;strokeWidth=2;shadow=1;" vertex="1" parent="1">
          <mxGeometry x="3185.83" y="6650" width="145" height="60" as="geometry" />
        </mxCell>
        <mxCell id="00JhJRKnC4P_FVbmjxvB-204" style="edgeStyle=orthogonalEdgeStyle;rounded=0;orthogonalLoop=1;jettySize=auto;html=1;" edge="1" parent="1" source="00JhJRKnC4P_FVbmjxvB-205">
          <mxGeometry relative="1" as="geometry">
            <mxPoint x="3258.33" y="6860" as="targetPoint" />
          </mxGeometry>
        </mxCell>
        <mxCell id="00JhJRKnC4P_FVbmjxvB-205" value="input data yang ingin&amp;nbsp;&lt;div&gt;dihapus [Customer/Hewan]&lt;/div&gt;" style="shape=parallelogram;perimeter=parallelogramPerimeter;whiteSpace=wrap;html=1;fixedSize=1;shadow=1;strokeColor=#FF3399;strokeWidth=2;align=center;verticalAlign=middle;fontFamily=Helvetica;fontSize=12;fontColor=default;fillColor=#FFCCE6;" vertex="1" parent="1">
          <mxGeometry x="3165.71" y="6760" width="185.25" height="60" as="geometry" />
        </mxCell>
        <mxCell id="00JhJRKnC4P_FVbmjxvB-206" value="" style="endArrow=classic;html=1;rounded=0;entryX=0.086;entryY=0.196;entryDx=0;entryDy=0;entryPerimeter=0;" edge="1" parent="1" target="00JhJRKnC4P_FVbmjxvB-205">
          <mxGeometry width="50" height="50" relative="1" as="geometry">
            <mxPoint x="3149.83" y="6772" as="sourcePoint" />
            <mxPoint x="3199.83" y="6720" as="targetPoint" />
          </mxGeometry>
        </mxCell>
        <mxCell id="00JhJRKnC4P_FVbmjxvB-207" style="edgeStyle=orthogonalEdgeStyle;rounded=0;orthogonalLoop=1;jettySize=auto;html=1;" edge="1" parent="1" source="00JhJRKnC4P_FVbmjxvB-209">
          <mxGeometry relative="1" as="geometry">
            <mxPoint x="3258.33" y="7000" as="targetPoint" />
          </mxGeometry>
        </mxCell>
        <mxCell id="00JhJRKnC4P_FVbmjxvB-208" style="edgeStyle=orthogonalEdgeStyle;rounded=0;orthogonalLoop=1;jettySize=auto;html=1;" edge="1" parent="1" source="00JhJRKnC4P_FVbmjxvB-209">
          <mxGeometry relative="1" as="geometry">
            <mxPoint x="3389.83" y="6910" as="targetPoint" />
          </mxGeometry>
        </mxCell>
        <mxCell id="00JhJRKnC4P_FVbmjxvB-209" value="Data Customer?" style="rhombus;whiteSpace=wrap;html=1;shadow=1;strokeColor=#FF3333;strokeWidth=2;align=center;verticalAlign=middle;fontFamily=Helvetica;fontSize=12;fontColor=default;fillColor=#FFCCCC;" vertex="1" parent="1">
          <mxGeometry x="3202.58" y="6860" width="111.5" height="100" as="geometry" />
        </mxCell>
        <mxCell id="00JhJRKnC4P_FVbmjxvB-210" style="edgeStyle=orthogonalEdgeStyle;rounded=0;orthogonalLoop=1;jettySize=auto;html=1;" edge="1" parent="1" source="00JhJRKnC4P_FVbmjxvB-211">
          <mxGeometry relative="1" as="geometry">
            <mxPoint x="3255.83" y="7100" as="targetPoint" />
          </mxGeometry>
        </mxCell>
        <mxCell id="00JhJRKnC4P_FVbmjxvB-211" value="hapusCustomer()" style="shape=process;whiteSpace=wrap;html=1;backgroundOutline=1;fillColor=#CCFFCC;strokeColor=#97D077;" vertex="1" parent="1">
          <mxGeometry x="3185.83" y="7000" width="140" height="50" as="geometry" />
        </mxCell>
        <mxCell id="00JhJRKnC4P_FVbmjxvB-212" style="edgeStyle=orthogonalEdgeStyle;rounded=0;orthogonalLoop=1;jettySize=auto;html=1;" edge="1" parent="1" source="00JhJRKnC4P_FVbmjxvB-214">
          <mxGeometry relative="1" as="geometry">
            <mxPoint x="3445.5799999999995" y="7000" as="targetPoint" />
          </mxGeometry>
        </mxCell>
        <mxCell id="00JhJRKnC4P_FVbmjxvB-213" style="edgeStyle=orthogonalEdgeStyle;rounded=0;orthogonalLoop=1;jettySize=auto;html=1;" edge="1" parent="1" source="00JhJRKnC4P_FVbmjxvB-214">
          <mxGeometry relative="1" as="geometry">
            <mxPoint x="3549.83" y="6910" as="targetPoint" />
          </mxGeometry>
        </mxCell>
        <mxCell id="00JhJRKnC4P_FVbmjxvB-214" value="Data Hewan?" style="rhombus;whiteSpace=wrap;html=1;shadow=1;strokeColor=#FF3333;strokeWidth=2;align=center;verticalAlign=middle;fontFamily=Helvetica;fontSize=12;fontColor=default;fillColor=#FFCCCC;" vertex="1" parent="1">
          <mxGeometry x="3389.83" y="6860" width="111.5" height="100" as="geometry" />
        </mxCell>
        <mxCell id="00JhJRKnC4P_FVbmjxvB-215" style="edgeStyle=orthogonalEdgeStyle;rounded=0;orthogonalLoop=1;jettySize=auto;html=1;entryX=1;entryY=0.5;entryDx=0;entryDy=0;entryPerimeter=0;" edge="1" parent="1" source="00JhJRKnC4P_FVbmjxvB-216" target="00JhJRKnC4P_FVbmjxvB-220">
          <mxGeometry relative="1" as="geometry">
            <mxPoint x="3445.83" y="7100" as="targetPoint" />
            <Array as="points">
              <mxPoint x="3445.83" y="7130" />
            </Array>
          </mxGeometry>
        </mxCell>
        <mxCell id="00JhJRKnC4P_FVbmjxvB-216" value="hapusHewan()" style="shape=process;whiteSpace=wrap;html=1;backgroundOutline=1;fillColor=#CCFFCC;strokeColor=#97D077;" vertex="1" parent="1">
          <mxGeometry x="3375.58" y="7000" width="140" height="50" as="geometry" />
        </mxCell>
        <mxCell id="00JhJRKnC4P_FVbmjxvB-217" style="edgeStyle=orthogonalEdgeStyle;rounded=0;orthogonalLoop=1;jettySize=auto;html=1;exitX=1;exitY=1;exitDx=0;exitDy=0;" edge="1" parent="1" source="00JhJRKnC4P_FVbmjxvB-219">
          <mxGeometry relative="1" as="geometry">
            <mxPoint x="3689.83" y="6932.384615384615" as="targetPoint" />
          </mxGeometry>
        </mxCell>
        <mxCell id="00JhJRKnC4P_FVbmjxvB-218" style="edgeStyle=orthogonalEdgeStyle;rounded=0;orthogonalLoop=1;jettySize=auto;html=1;entryX=1;entryY=0.5;entryDx=0;entryDy=0;" edge="1" parent="1" source="00JhJRKnC4P_FVbmjxvB-219" target="00JhJRKnC4P_FVbmjxvB-205">
          <mxGeometry relative="1" as="geometry">
            <Array as="points">
              <mxPoint x="3609.92" y="6790" />
            </Array>
          </mxGeometry>
        </mxCell>
        <mxCell id="00JhJRKnC4P_FVbmjxvB-219" value="output &quot;jenis data&lt;div&gt;tidak ditemukan.&quot;&lt;/div&gt;" style="shape=parallelogram;perimeter=parallelogramPerimeter;whiteSpace=wrap;html=1;fixedSize=1;shadow=1;strokeColor=#FF3399;strokeWidth=2;align=center;verticalAlign=middle;fontFamily=Helvetica;fontSize=12;fontColor=default;fillColor=#FFCCE6;" vertex="1" parent="1">
          <mxGeometry x="3539.83" y="6880" width="140" height="60" as="geometry" />
        </mxCell>
        <mxCell id="00JhJRKnC4P_FVbmjxvB-220" value="END" style="strokeWidth=2;html=1;shape=mxgraph.flowchart.start_1;whiteSpace=wrap;shadow=1;strokeColor=#9933FF;fillColor=#E5CCFF;" vertex="1" parent="1">
          <mxGeometry x="3205.83" y="7100" width="100" height="60" as="geometry" />
        </mxCell>
        <mxCell id="3PhvzCpmbgAPnzb8skuk-1" value="" style="edgeStyle=orthogonalEdgeStyle;rounded=0;orthogonalLoop=1;jettySize=auto;html=1;" edge="1" parent="1" source="3PhvzCpmbgAPnzb8skuk-2" target="3PhvzCpmbgAPnzb8skuk-7">
          <mxGeometry relative="1" as="geometry" />
        </mxCell>
        <mxCell id="3PhvzCpmbgAPnzb8skuk-2" value="Pilih username customer yang&lt;div&gt;&amp;nbsp;ingin dihapus&lt;/div&gt;" style="shape=parallelogram;perimeter=parallelogramPerimeter;whiteSpace=wrap;html=1;fixedSize=1;fillColor=#FFCCE6;strokeColor=#FF3399;strokeWidth=2;shadow=1;" vertex="1" parent="1">
          <mxGeometry x="1019.83" y="6400" width="190" height="80" as="geometry" />
        </mxCell>
        <mxCell id="3PhvzCpmbgAPnzb8skuk-3" value="" style="edgeStyle=orthogonalEdgeStyle;rounded=0;orthogonalLoop=1;jettySize=auto;html=1;" edge="1" parent="1" source="3PhvzCpmbgAPnzb8skuk-7" target="3PhvzCpmbgAPnzb8skuk-8">
          <mxGeometry relative="1" as="geometry" />
        </mxCell>
        <mxCell id="3PhvzCpmbgAPnzb8skuk-4" value="" style="edgeStyle=orthogonalEdgeStyle;rounded=0;orthogonalLoop=1;jettySize=auto;html=1;" edge="1" parent="1" source="3PhvzCpmbgAPnzb8skuk-7" target="3PhvzCpmbgAPnzb8skuk-11">
          <mxGeometry relative="1" as="geometry" />
        </mxCell>
        <mxCell id="3PhvzCpmbgAPnzb8skuk-5" value="True" style="edgeLabel;html=1;align=center;verticalAlign=middle;resizable=0;points=[];" connectable="0" vertex="1" parent="3PhvzCpmbgAPnzb8skuk-4">
          <mxGeometry x="-0.1011" relative="1" as="geometry">
            <mxPoint x="107" y="-80" as="offset" />
          </mxGeometry>
        </mxCell>
        <mxCell id="3PhvzCpmbgAPnzb8skuk-6" value="False" style="edgeLabel;html=1;align=center;verticalAlign=middle;resizable=0;points=[];" connectable="0" vertex="1" parent="3PhvzCpmbgAPnzb8skuk-4">
          <mxGeometry x="-0.1462" y="-1" relative="1" as="geometry">
            <mxPoint as="offset" />
          </mxGeometry>
        </mxCell>
        <mxCell id="3PhvzCpmbgAPnzb8skuk-7" value="username != username&lt;div&gt;customer&lt;/div&gt;" style="rhombus;whiteSpace=wrap;html=1;fillColor=#FFCCCC;strokeColor=#FF3333;strokeWidth=2;shadow=1;" vertex="1" parent="1">
          <mxGeometry x="1036.83" y="6525" width="157.17" height="90" as="geometry" />
        </mxCell>
        <mxCell id="3PhvzCpmbgAPnzb8skuk-8" value="Username customer tidak ada!" style="shape=parallelogram;perimeter=parallelogramPerimeter;whiteSpace=wrap;html=1;fixedSize=1;fillColor=#FFCCE6;strokeColor=#FF3399;strokeWidth=2;shadow=1;" vertex="1" parent="1">
          <mxGeometry x="1323.74" y="6540" width="186.26" height="60" as="geometry" />
        </mxCell>
        <mxCell id="3PhvzCpmbgAPnzb8skuk-9" value="" style="endArrow=classic;html=1;rounded=0;" edge="1" parent="1">
          <mxGeometry width="50" height="50" relative="1" as="geometry">
            <mxPoint x="1470" y="6590" as="sourcePoint" />
            <mxPoint x="1530" y="6590" as="targetPoint" />
          </mxGeometry>
        </mxCell>
        <mxCell id="3PhvzCpmbgAPnzb8skuk-10" value="" style="endArrow=classic;html=1;rounded=0;" edge="1" parent="1">
          <mxGeometry width="50" height="50" relative="1" as="geometry">
            <mxPoint x="992.83" y="6410" as="sourcePoint" />
            <mxPoint x="1052.83" y="6410" as="targetPoint" />
          </mxGeometry>
        </mxCell>
        <mxCell id="wl5vKfPLSGNA0CRAG-PO-2" value="" style="edgeStyle=orthogonalEdgeStyle;rounded=0;orthogonalLoop=1;jettySize=auto;html=1;" edge="1" parent="1" source="3PhvzCpmbgAPnzb8skuk-11" target="wl5vKfPLSGNA0CRAG-PO-1">
          <mxGeometry relative="1" as="geometry" />
        </mxCell>
        <mxCell id="3PhvzCpmbgAPnzb8skuk-11" value="menghapus customer" style="whiteSpace=wrap;html=1;fillColor=#FFE6CC;strokeColor=#FF9933;strokeWidth=2;shadow=1;" vertex="1" parent="1">
          <mxGeometry x="1052.83" y="6690" width="120" height="60" as="geometry" />
        </mxCell>
        <mxCell id="3PhvzCpmbgAPnzb8skuk-13" value="" style="edgeStyle=orthogonalEdgeStyle;rounded=0;orthogonalLoop=1;jettySize=auto;html=1;" edge="1" parent="1" source="3PhvzCpmbgAPnzb8skuk-14" target="3PhvzCpmbgAPnzb8skuk-16">
          <mxGeometry relative="1" as="geometry" />
        </mxCell>
        <mxCell id="3PhvzCpmbgAPnzb8skuk-14" value="jumlahcustomer -1" style="whiteSpace=wrap;html=1;fillColor=#FFE6CC;strokeColor=#FF9933;strokeWidth=2;shadow=1;" vertex="1" parent="1">
          <mxGeometry x="842.08" y="6960" width="120" height="60" as="geometry" />
        </mxCell>
        <mxCell id="3PhvzCpmbgAPnzb8skuk-16" value="Data customer berhasil dihapus" style="shape=parallelogram;perimeter=parallelogramPerimeter;whiteSpace=wrap;html=1;fixedSize=1;fillColor=#FFCCE6;strokeColor=#FF3399;strokeWidth=2;shadow=1;" vertex="1" parent="1">
          <mxGeometry x="824.58" y="7090" width="155" height="60" as="geometry" />
        </mxCell>
        <mxCell id="3PhvzCpmbgAPnzb8skuk-17" value="" style="endArrow=classic;html=1;rounded=0;" edge="1" parent="1">
          <mxGeometry width="50" height="50" relative="1" as="geometry">
            <mxPoint x="944.5200000000001" y="7140" as="sourcePoint" />
            <mxPoint x="1004.5200000000001" y="7140" as="targetPoint" />
          </mxGeometry>
        </mxCell>
        <mxCell id="3PhvzCpmbgAPnzb8skuk-18" style="edgeStyle=orthogonalEdgeStyle;rounded=0;orthogonalLoop=1;jettySize=auto;html=1;entryX=0.5;entryY=0;entryDx=0;entryDy=0;" edge="1" parent="1" source="3PhvzCpmbgAPnzb8skuk-19" target="3PhvzCpmbgAPnzb8skuk-2">
          <mxGeometry relative="1" as="geometry" />
        </mxCell>
        <mxCell id="3PhvzCpmbgAPnzb8skuk-19" value="hapusCustomer()" style="shape=process;whiteSpace=wrap;html=1;backgroundOutline=1;fillColor=#E5CCFF;strokeColor=#9933FF;" vertex="1" parent="1">
          <mxGeometry x="1037.83" y="6290" width="155" height="50" as="geometry" />
        </mxCell>
        <mxCell id="3PhvzCpmbgAPnzb8skuk-20" value="" style="edgeStyle=orthogonalEdgeStyle;rounded=0;orthogonalLoop=1;jettySize=auto;html=1;exitX=0.5;exitY=1;exitDx=0;exitDy=0;entryX=1;entryY=0.5;entryDx=0;entryDy=0;entryPerimeter=0;" edge="1" parent="1" source="3PhvzCpmbgAPnzb8skuk-8" target="3PhvzCpmbgAPnzb8skuk-21">
          <mxGeometry relative="1" as="geometry">
            <mxPoint x="1349.83" y="6600" as="sourcePoint" />
            <mxPoint x="939.83" y="6950" as="targetPoint" />
          </mxGeometry>
        </mxCell>
        <mxCell id="3PhvzCpmbgAPnzb8skuk-21" value="END" style="strokeWidth=2;html=1;shape=mxgraph.flowchart.start_1;whiteSpace=wrap;shadow=1;strokeColor=#9933FF;fillColor=#E5CCFF;" vertex="1" parent="1">
          <mxGeometry x="1062.83" y="7210" width="100" height="60" as="geometry" />
        </mxCell>
        <mxCell id="fw-Dkt5grC2mR6McyDsN-29" value="" style="rounded=0;whiteSpace=wrap;html=1;fillColor=#d5e8d4;strokeColor=#82b366;" vertex="1" parent="1">
          <mxGeometry x="2580.33" y="430" width="380" height="200" as="geometry" />
        </mxCell>
        <mxCell id="fw-Dkt5grC2mR6McyDsN-30" value="&lt;h1 style=&quot;margin-top: 0px;&quot;&gt;Percobaan Login&lt;/h1&gt;&lt;p&gt;Percobaan Login hanya dibatasi sebanyak 3 kali. Jika percobaan lebih dari 3 kali, maka program akan ditutup.&lt;/p&gt;" style="text;html=1;whiteSpace=wrap;overflow=hidden;rounded=0;" vertex="1" parent="1">
          <mxGeometry x="2745.33" y="460" width="210" height="140" as="geometry" />
        </mxCell>
        <mxCell id="fw-Dkt5grC2mR6McyDsN-31" value="percobaan_login = 0" style="rounded=0;whiteSpace=wrap;html=1;strokeColor=#FF9933;fillColor=#FFE6CC;" vertex="1" parent="1">
          <mxGeometry x="2605.08" y="460" width="120" height="60" as="geometry" />
        </mxCell>
        <mxCell id="fw-Dkt5grC2mR6McyDsN-32" value="percobaan_login &amp;lt;= 3&amp;nbsp;" style="shape=hexagon;perimeter=hexagonPerimeter2;whiteSpace=wrap;html=1;fixedSize=1;rounded=0;fillColor=#fff2cc;strokeColor=#d6b656;" vertex="1" parent="1">
          <mxGeometry x="2590.08" y="540" width="150" height="60" as="geometry" />
        </mxCell>
        <mxCell id="fw-Dkt5grC2mR6McyDsN-34" value="" style="rounded=0;whiteSpace=wrap;html=1;fillColor=#ffe6cc;strokeColor=#d79b00;" vertex="1" parent="1">
          <mxGeometry x="2992.75" y="200" width="380" height="200" as="geometry" />
        </mxCell>
        <mxCell id="fw-Dkt5grC2mR6McyDsN-37" value="MENU ADMIN" style="shape=process;whiteSpace=wrap;html=1;backgroundOutline=1;rounded=0;fillColor=#CCFFCC;strokeColor=#97D077;" vertex="1" parent="1">
          <mxGeometry x="3013.75" y="270" width="120" height="60" as="geometry" />
        </mxCell>
        <mxCell id="fw-Dkt5grC2mR6McyDsN-38" value="&lt;h1 style=&quot;margin-top: 0px;&quot;&gt;Menu Admin&lt;/h1&gt;&lt;p&gt;Menu admin digunakan oleh admin dengan username = &quot;pawpatrol&quot;. Admin memiliki akses untuk menampilkan data, menambahkan data, mengubah data, menghapus data, dan menampilkan laporan yang berisikan data yang sudah difilter&lt;/p&gt;" style="text;html=1;whiteSpace=wrap;overflow=hidden;rounded=0;" vertex="1" parent="1">
          <mxGeometry x="3151.25" y="220" width="210" height="160" as="geometry" />
        </mxCell>
        <mxCell id="fw-Dkt5grC2mR6McyDsN-39" value="" style="rounded=0;whiteSpace=wrap;html=1;fillColor=#fff2cc;strokeColor=#d6b656;" vertex="1" parent="1">
          <mxGeometry x="2992.75" y="435" width="380" height="200" as="geometry" />
        </mxCell>
        <mxCell id="fw-Dkt5grC2mR6McyDsN-40" value="MENU PENGGUNA" style="shape=process;whiteSpace=wrap;html=1;backgroundOutline=1;fillColor=#CCFFCC;rounded=0;strokeColor=#97D077;" vertex="1" parent="1">
          <mxGeometry x="3017.5" y="505" width="120" height="60" as="geometry" />
        </mxCell>
        <mxCell id="fw-Dkt5grC2mR6McyDsN-41" value="&lt;h1 style=&quot;margin-top: 0px;&quot;&gt;Menu Pengguna&lt;/h1&gt;&lt;p style=&quot;&quot;&gt;Menu pengguna digunakan oleh pengguna untuk membuat menambahkan data mereka, hewannya, dan menampilkan data hewan yang telah merevisi.&amp;nbsp;&lt;/p&gt;" style="text;html=1;whiteSpace=wrap;overflow=hidden;rounded=0;" vertex="1" parent="1">
          <mxGeometry x="3152.5" y="455" width="210" height="160" as="geometry" />
        </mxCell>
        <mxCell id="sPpjFu0KEkCYgrgoaxfR-1" value="" style="rounded=0;whiteSpace=wrap;html=1;fillColor=#b1ddf0;strokeColor=#10739e;" vertex="1" parent="1">
          <mxGeometry x="2605.08" y="1624.5" width="380" height="200" as="geometry" />
        </mxCell>
        <mxCell id="sPpjFu0KEkCYgrgoaxfR-2" value="tampilkanDatar()" style="shape=process;whiteSpace=wrap;html=1;backgroundOutline=1;fillColor=#CCE5FF;strokeColor=#007FFF;strokeWidth=2;shadow=1;" vertex="1" parent="1">
          <mxGeometry x="2627.08" y="1684.5" width="127.5" height="60" as="geometry" />
        </mxCell>
        <mxCell id="sPpjFu0KEkCYgrgoaxfR-7" value="&lt;h1 style=&quot;margin-top: 0px;&quot;&gt;Tampilkan Data&lt;/h1&gt;&lt;p style=&quot;&quot;&gt;Memanggil fungsi untuk menampilkan data customer dan hewan.&lt;/p&gt;" style="text;html=1;whiteSpace=wrap;overflow=hidden;rounded=0;" vertex="1" parent="1">
          <mxGeometry x="2775.08" y="1674.5" width="210" height="160" as="geometry" />
        </mxCell>
        <mxCell id="sPpjFu0KEkCYgrgoaxfR-11" value="" style="rounded=0;whiteSpace=wrap;html=1;fillColor=#b1ddf0;strokeColor=#10739e;" vertex="1" parent="1">
          <mxGeometry x="3012.75" y="1624.5" width="380" height="200" as="geometry" />
        </mxCell>
        <mxCell id="sPpjFu0KEkCYgrgoaxfR-12" value="ubahData()" style="shape=process;whiteSpace=wrap;html=1;backgroundOutline=1;fillColor=#CCE5FF;strokeColor=#007FFF;strokeWidth=2;shadow=1;" vertex="1" parent="1">
          <mxGeometry x="3034.75" y="1694.5" width="126.25" height="60" as="geometry" />
        </mxCell>
        <mxCell id="sPpjFu0KEkCYgrgoaxfR-13" value="&lt;h1 style=&quot;margin-top: 0px;&quot;&gt;Mengubah Data&lt;/h1&gt;&lt;p style=&quot;&quot;&gt;Memanggil fungsi untuk menghapus data customer dan hewan.&lt;/p&gt;" style="text;html=1;whiteSpace=wrap;overflow=hidden;rounded=0;" vertex="1" parent="1">
          <mxGeometry x="3176.25" y="1674.5" width="210" height="160" as="geometry" />
        </mxCell>
        <mxCell id="sPpjFu0KEkCYgrgoaxfR-14" value="" style="rounded=0;whiteSpace=wrap;html=1;fillColor=#b1ddf0;strokeColor=#10739e;" vertex="1" parent="1">
          <mxGeometry x="3012.75" y="1864.5" width="380" height="200" as="geometry" />
        </mxCell>
        <mxCell id="sPpjFu0KEkCYgrgoaxfR-15" value="&lt;h1 style=&quot;margin-top: 0px;&quot;&gt;Menghapus Data&lt;/h1&gt;&lt;p style=&quot;&quot;&gt;Memanggil fungsi untuk menghapus data customer dan hewan.&lt;/p&gt;" style="text;html=1;whiteSpace=wrap;overflow=hidden;rounded=0;" vertex="1" parent="1">
          <mxGeometry x="3177.75" y="1904.5" width="210" height="160" as="geometry" />
        </mxCell>
        <mxCell id="sPpjFu0KEkCYgrgoaxfR-16" value="hapusData()" style="shape=process;whiteSpace=wrap;html=1;backgroundOutline=1;fillColor=#CCE5FF;strokeColor=#007FFF;strokeWidth=2;shadow=1;" vertex="1" parent="1">
          <mxGeometry x="3041.5" y="1914.5" width="116" height="60" as="geometry" />
        </mxCell>
        <mxCell id="sPpjFu0KEkCYgrgoaxfR-17" value="" style="rounded=0;whiteSpace=wrap;html=1;fillColor=#b1ddf0;strokeColor=#10739e;" vertex="1" parent="1">
          <mxGeometry x="2605.08" y="1854.5" width="380" height="200" as="geometry" />
        </mxCell>
        <mxCell id="sPpjFu0KEkCYgrgoaxfR-18" value="tampilkanLaporan()" style="shape=process;whiteSpace=wrap;html=1;backgroundOutline=1;fillColor=#CCE5FF;strokeColor=#007FFF;strokeWidth=2;shadow=1;" vertex="1" parent="1">
          <mxGeometry x="2627.58" y="1914.5" width="128.5" height="60" as="geometry" />
        </mxCell>
        <mxCell id="sPpjFu0KEkCYgrgoaxfR-19" value="&lt;h1 style=&quot;margin-top: 0px;&quot;&gt;Menampilkan Laporan&lt;/h1&gt;&lt;p style=&quot;&quot;&gt;Memanggil fungsi untuk menampilkan dan mecari&amp;nbsp; data yang sudah difilter.&lt;/p&gt;" style="text;html=1;whiteSpace=wrap;overflow=hidden;rounded=0;" vertex="1" parent="1">
          <mxGeometry x="2777.08" y="1884.5" width="210" height="160" as="geometry" />
        </mxCell>
        <mxCell id="sPpjFu0KEkCYgrgoaxfR-21" value="" style="rounded=0;whiteSpace=wrap;html=1;fillColor=#d5e8d4;strokeColor=#82b366;" vertex="1" parent="1">
          <mxGeometry x="2581.83" y="200" width="380" height="200" as="geometry" />
        </mxCell>
        <mxCell id="sPpjFu0KEkCYgrgoaxfR-22" value="registrasi pengguna baru" style="rounded=0;whiteSpace=wrap;html=1;fillColor=#FFE6CC;strokeColor=#FF9933;" vertex="1" parent="1">
          <mxGeometry x="2601.83" y="260" width="120" height="60" as="geometry" />
        </mxCell>
        <mxCell id="sPpjFu0KEkCYgrgoaxfR-23" value="&lt;h1 style=&quot;margin-top: 0px;&quot;&gt;Registrasi&lt;/h1&gt;&lt;p&gt;Registrasi untuk pengguna agar dapat mengakses sistem manajemen.&lt;/p&gt;" style="text;html=1;whiteSpace=wrap;overflow=hidden;rounded=0;" vertex="1" parent="1">
          <mxGeometry x="2738.58" y="240" width="210" height="140" as="geometry" />
        </mxCell>
        <mxCell id="sPpjFu0KEkCYgrgoaxfR-25" value="" style="rounded=0;whiteSpace=wrap;html=1;fillColor=#b0e3e6;strokeColor=#0e8088;" vertex="1" parent="1">
          <mxGeometry x="2582.75" y="667" width="380" height="200" as="geometry" />
        </mxCell>
        <mxCell id="sPpjFu0KEkCYgrgoaxfR-27" value="tambahCustomer()" style="shape=process;whiteSpace=wrap;html=1;backgroundOutline=1;fillColor=#E5CCFF;strokeColor=#9933FF;align=center;verticalAlign=middle;fontFamily=Helvetica;fontSize=12;fontColor=default;" vertex="1" parent="1">
          <mxGeometry x="2592.75" y="732" width="140" height="50" as="geometry" />
        </mxCell>
        <mxCell id="sPpjFu0KEkCYgrgoaxfR-28" value="&lt;h1 style=&quot;margin-top: 0px;&quot;&gt;Tambah Customer&lt;/h1&gt;&lt;p&gt;Fungsi ini berfungsi menambahkan data customer yang berisi nama, alamat, no. hp, dan ID hewan..&lt;/p&gt;" style="text;html=1;whiteSpace=wrap;overflow=hidden;rounded=0;" vertex="1" parent="1">
          <mxGeometry x="2745" y="697" width="210" height="140" as="geometry" />
        </mxCell>
        <mxCell id="sPpjFu0KEkCYgrgoaxfR-29" value="" style="rounded=0;whiteSpace=wrap;html=1;fillColor=#b0e3e6;strokeColor=#0e8088;" vertex="1" parent="1">
          <mxGeometry x="2582.75" y="897" width="380" height="200" as="geometry" />
        </mxCell>
        <mxCell id="sPpjFu0KEkCYgrgoaxfR-30" value="tampilkanCustomer()" style="shape=process;whiteSpace=wrap;html=1;backgroundOutline=1;fillColor=#E5CCFF;strokeColor=#9933FF;align=center;verticalAlign=middle;fontFamily=Helvetica;fontSize=12;fontColor=default;" vertex="1" parent="1">
          <mxGeometry x="2592.75" y="962" width="140" height="50" as="geometry" />
        </mxCell>
        <mxCell id="sPpjFu0KEkCYgrgoaxfR-31" value="&lt;h1 style=&quot;margin-top: 0px;&quot;&gt;Tampilkan Customer&lt;/h1&gt;&lt;p&gt;Fungsi ini berfungsi menampilkan seluruh data customer.&lt;/p&gt;" style="text;html=1;whiteSpace=wrap;overflow=hidden;rounded=0;" vertex="1" parent="1">
          <mxGeometry x="2745" y="927" width="210" height="140" as="geometry" />
        </mxCell>
        <mxCell id="sPpjFu0KEkCYgrgoaxfR-38" value="" style="rounded=0;whiteSpace=wrap;html=1;fillColor=#b0e3e6;strokeColor=#0e8088;" vertex="1" parent="1">
          <mxGeometry x="2992.75" y="899.5" width="380" height="200" as="geometry" />
        </mxCell>
        <mxCell id="sPpjFu0KEkCYgrgoaxfR-39" value="hapusCustomer()" style="shape=process;whiteSpace=wrap;html=1;backgroundOutline=1;fillColor=#E5CCFF;strokeColor=#9933FF;align=center;verticalAlign=middle;fontFamily=Helvetica;fontSize=12;fontColor=default;" vertex="1" parent="1">
          <mxGeometry x="3002.75" y="964.5" width="140" height="50" as="geometry" />
        </mxCell>
        <mxCell id="sPpjFu0KEkCYgrgoaxfR-40" value="&lt;h1 style=&quot;margin-top: 0px;&quot;&gt;Hapus Customer&lt;/h1&gt;&lt;p&gt;Fungsi ini berfungsi menghapus data customer yang diinginkan.&lt;/p&gt;" style="text;html=1;whiteSpace=wrap;overflow=hidden;rounded=0;" vertex="1" parent="1">
          <mxGeometry x="3155" y="929.5" width="210" height="140" as="geometry" />
        </mxCell>
        <mxCell id="sPpjFu0KEkCYgrgoaxfR-47" value="" style="rounded=0;whiteSpace=wrap;html=1;fillColor=#b0e3e6;strokeColor=#0e8088;" vertex="1" parent="1">
          <mxGeometry x="2992.75" y="664.5" width="380" height="200" as="geometry" />
        </mxCell>
        <mxCell id="sPpjFu0KEkCYgrgoaxfR-48" value="ubahCustomer()" style="shape=process;whiteSpace=wrap;html=1;backgroundOutline=1;fillColor=#E5CCFF;strokeColor=#9933FF;align=center;verticalAlign=middle;fontFamily=Helvetica;fontSize=12;fontColor=default;" vertex="1" parent="1">
          <mxGeometry x="3002.75" y="729.5" width="140" height="50" as="geometry" />
        </mxCell>
        <mxCell id="sPpjFu0KEkCYgrgoaxfR-49" value="&lt;h1 style=&quot;margin-top: 0px;&quot;&gt;Ubah Customer&lt;/h1&gt;&lt;p&gt;Fungsi ini berfungsi mengubah data customer yang diperlukan.&lt;/p&gt;" style="text;html=1;whiteSpace=wrap;overflow=hidden;rounded=0;" vertex="1" parent="1">
          <mxGeometry x="3155" y="694.5" width="210" height="140" as="geometry" />
        </mxCell>
        <mxCell id="sPpjFu0KEkCYgrgoaxfR-50" value="" style="rounded=0;whiteSpace=wrap;html=1;fillColor=#fad9d5;strokeColor=#ae4132;" vertex="1" parent="1">
          <mxGeometry x="2394.33" y="1144.5" width="380" height="200" as="geometry" />
        </mxCell>
        <mxCell id="sPpjFu0KEkCYgrgoaxfR-51" value="" style="rounded=0;whiteSpace=wrap;html=1;fillColor=#fad9d5;strokeColor=#ae4132;" vertex="1" parent="1">
          <mxGeometry x="3190" y="1144.5" width="380" height="200" as="geometry" />
        </mxCell>
        <mxCell id="sPpjFu0KEkCYgrgoaxfR-53" value="tambahHewan()" style="shape=process;whiteSpace=wrap;html=1;backgroundOutline=1;fillColor=#E5CCFF;strokeColor=#9933FF;align=center;verticalAlign=middle;fontFamily=Helvetica;fontSize=12;fontColor=default;" vertex="1" parent="1">
          <mxGeometry x="2404.33" y="1209.5" width="140" height="50" as="geometry" />
        </mxCell>
        <mxCell id="sPpjFu0KEkCYgrgoaxfR-54" value="&lt;h1 style=&quot;margin-top: 0px;&quot;&gt;Tambah Hewan&lt;/h1&gt;&lt;p&gt;Fungsi ini berfungsi untuk menambahkan data hewan, seperti&amp;nbsp; ID hewan, nama, jenis, ras, perawatan, dan tanggal reservasi&lt;/p&gt;" style="text;html=1;whiteSpace=wrap;overflow=hidden;rounded=0;" vertex="1" parent="1">
          <mxGeometry x="2559.83" y="1184.5" width="210" height="140" as="geometry" />
        </mxCell>
        <mxCell id="sPpjFu0KEkCYgrgoaxfR-55" value="tampilkanHewan()" style="shape=process;whiteSpace=wrap;html=1;backgroundOutline=1;fillColor=#E5CCFF;strokeColor=#9933FF;align=center;verticalAlign=middle;fontFamily=Helvetica;fontSize=12;fontColor=default;" vertex="1" parent="1">
          <mxGeometry x="3200" y="1204.5" width="140" height="50" as="geometry" />
        </mxCell>
        <mxCell id="sPpjFu0KEkCYgrgoaxfR-57" value="&lt;h1 style=&quot;margin-top: 0px;&quot;&gt;Tampilkan Hewan&lt;/h1&gt;&lt;p&gt;Fungsi ini berfungsi untuk menampilkan keseluruhan data hewan.&lt;/p&gt;" style="text;html=1;whiteSpace=wrap;overflow=hidden;rounded=0;" vertex="1" parent="1">
          <mxGeometry x="3352.25" y="1184.5" width="210" height="140" as="geometry" />
        </mxCell>
        <mxCell id="sPpjFu0KEkCYgrgoaxfR-58" value="" style="rounded=0;whiteSpace=wrap;html=1;fillColor=#fad9d5;strokeColor=#ae4132;" vertex="1" parent="1">
          <mxGeometry x="2609.83" y="1384.5" width="380" height="200" as="geometry" />
        </mxCell>
        <mxCell id="sPpjFu0KEkCYgrgoaxfR-59" value="ubahHewan()" style="shape=process;whiteSpace=wrap;html=1;backgroundOutline=1;fillColor=#E5CCFF;strokeColor=#9933FF;align=center;verticalAlign=middle;fontFamily=Helvetica;fontSize=12;fontColor=default;" vertex="1" parent="1">
          <mxGeometry x="2619.83" y="1449.5" width="140" height="50" as="geometry" />
        </mxCell>
        <mxCell id="sPpjFu0KEkCYgrgoaxfR-60" value="&lt;h1 style=&quot;margin-top: 0px;&quot;&gt;Ubah Hewan&lt;/h1&gt;&lt;p&gt;Fungsi ini berfungsi untuk mengubah data hewan yang diperlukan.&lt;/p&gt;" style="text;html=1;whiteSpace=wrap;overflow=hidden;rounded=0;" vertex="1" parent="1">
          <mxGeometry x="2775.33" y="1414.5" width="210" height="140" as="geometry" />
        </mxCell>
        <mxCell id="sPpjFu0KEkCYgrgoaxfR-61" value="" style="rounded=0;whiteSpace=wrap;html=1;fillColor=#fad9d5;strokeColor=#ae4132;" vertex="1" parent="1">
          <mxGeometry x="3009" y="1384.5" width="380" height="200" as="geometry" />
        </mxCell>
        <mxCell id="sPpjFu0KEkCYgrgoaxfR-62" value="hapusHewan()" style="shape=process;whiteSpace=wrap;html=1;backgroundOutline=1;fillColor=#E5CCFF;strokeColor=#9933FF;align=center;verticalAlign=middle;fontFamily=Helvetica;fontSize=12;fontColor=default;" vertex="1" parent="1">
          <mxGeometry x="3019" y="1449.5" width="140" height="50" as="geometry" />
        </mxCell>
        <mxCell id="sPpjFu0KEkCYgrgoaxfR-63" value="&lt;h1 style=&quot;margin-top: 0px;&quot;&gt;Hapus Hewan&lt;/h1&gt;&lt;p&gt;Fungsi ini berfungsi untuk menghapus data hewan yang diinginkan.&lt;/p&gt;" style="text;html=1;whiteSpace=wrap;overflow=hidden;rounded=0;" vertex="1" parent="1">
          <mxGeometry x="3174.5" y="1414.5" width="210" height="140" as="geometry" />
        </mxCell>
        <mxCell id="OEmXZxtR8yDGG8L4QjC0-5" value="" style="edgeStyle=orthogonalEdgeStyle;rounded=0;orthogonalLoop=1;jettySize=auto;html=1;" edge="1" parent="1" source="OEmXZxtR8yDGG8L4QjC0-1" target="5fkRjXRHGFC-vEdVIcNM-22">
          <mxGeometry relative="1" as="geometry" />
        </mxCell>
        <mxCell id="OEmXZxtR8yDGG8L4QjC0-1" value="pengguna_baru &amp;amp; password_baru" style="whiteSpace=wrap;html=1;fillColor=#FFE6CC;strokeColor=#FF9933;strokeWidth=2;shadow=1;" vertex="1" parent="1">
          <mxGeometry x="1263.1200000000001" y="1410" width="143.75" height="90" as="geometry" />
        </mxCell>
        <mxCell id="FohTjnUAe-nF-T1eV7DM-33" value="" style="edgeStyle=orthogonalEdgeStyle;rounded=0;orthogonalLoop=1;jettySize=auto;html=1;" edge="1" parent="1" source="FohTjnUAe-nF-T1eV7DM-34" target="FohTjnUAe-nF-T1eV7DM-37">
          <mxGeometry relative="1" as="geometry" />
        </mxCell>
        <mxCell id="FohTjnUAe-nF-T1eV7DM-34" value="Menu Pengguna" style="shape=process;whiteSpace=wrap;html=1;backgroundOutline=1;shadow=1;strokeColor=#97D077;fillColor=#CCFFCC;" vertex="1" parent="1">
          <mxGeometry x="2726.45" y="2345" width="120" height="60" as="geometry" />
        </mxCell>
        <mxCell id="FohTjnUAe-nF-T1eV7DM-35" style="edgeStyle=orthogonalEdgeStyle;rounded=0;orthogonalLoop=1;jettySize=auto;html=1;entryX=0.5;entryY=0;entryDx=0;entryDy=0;" edge="1" parent="1" source="FohTjnUAe-nF-T1eV7DM-37">
          <mxGeometry relative="1" as="geometry">
            <mxPoint x="2786.45" y="2595" as="targetPoint" />
          </mxGeometry>
        </mxCell>
        <mxCell id="FohTjnUAe-nF-T1eV7DM-36" style="edgeStyle=orthogonalEdgeStyle;rounded=0;orthogonalLoop=1;jettySize=auto;html=1;exitX=1;exitY=1;exitDx=0;exitDy=0;" edge="1" parent="1" source="FohTjnUAe-nF-T1eV7DM-37">
          <mxGeometry relative="1" as="geometry">
            <mxPoint x="2950.95" y="2520" as="targetPoint" />
          </mxGeometry>
        </mxCell>
        <mxCell id="FohTjnUAe-nF-T1eV7DM-37" value="&lt;div&gt;&lt;span style=&quot;background-color: transparent; color: light-dark(rgb(0, 0, 0), rgb(255, 255, 255));&quot;&gt;Menu Pengguna&lt;/span&gt;&lt;/div&gt;&lt;div&gt;&lt;span style=&quot;background-color: transparent; color: light-dark(rgb(0, 0, 0), rgb(255, 255, 255));&quot;&gt;1. Tampilkan Data Hewan&lt;/span&gt;&lt;/div&gt;&lt;div&gt;&lt;div&gt;2. Menambah Data Hewan&lt;/div&gt;&lt;/div&gt;&lt;div&gt;&lt;div&gt;&lt;span style=&quot;background-color: transparent; color: light-dark(rgb(0, 0, 0), rgb(255, 255, 255));&quot;&gt;3. Kembali&lt;/span&gt;&lt;/div&gt;&lt;/div&gt;" style="shape=parallelogram;perimeter=parallelogramPerimeter;whiteSpace=wrap;html=1;fixedSize=1;verticalAlign=top;fillColor=#FFCCE6;strokeColor=#FF3399;rounded=0;shadow=1;" vertex="1" parent="1">
          <mxGeometry x="2660.45" y="2455" width="252" height="70" as="geometry" />
        </mxCell>
        <mxCell id="FohTjnUAe-nF-T1eV7DM-38" value="" style="edgeStyle=orthogonalEdgeStyle;rounded=0;orthogonalLoop=1;jettySize=auto;html=1;" edge="1" parent="1" source="FohTjnUAe-nF-T1eV7DM-42" target="FohTjnUAe-nF-T1eV7DM-47">
          <mxGeometry relative="1" as="geometry" />
        </mxCell>
        <mxCell id="FohTjnUAe-nF-T1eV7DM-39" value="False" style="edgeLabel;html=1;align=center;verticalAlign=middle;resizable=0;points=[];" connectable="0" vertex="1" parent="FohTjnUAe-nF-T1eV7DM-38">
          <mxGeometry x="-0.12" y="1" relative="1" as="geometry">
            <mxPoint as="offset" />
          </mxGeometry>
        </mxCell>
        <mxCell id="FohTjnUAe-nF-T1eV7DM-40" value="" style="edgeStyle=orthogonalEdgeStyle;rounded=0;orthogonalLoop=1;jettySize=auto;html=1;" edge="1" parent="1" source="FohTjnUAe-nF-T1eV7DM-42">
          <mxGeometry relative="1" as="geometry">
            <mxPoint x="2786.45" y="2865" as="targetPoint" />
          </mxGeometry>
        </mxCell>
        <mxCell id="FohTjnUAe-nF-T1eV7DM-41" value="True" style="edgeLabel;html=1;align=center;verticalAlign=middle;resizable=0;points=[];" connectable="0" vertex="1" parent="FohTjnUAe-nF-T1eV7DM-40">
          <mxGeometry x="-0.2397" relative="1" as="geometry">
            <mxPoint as="offset" />
          </mxGeometry>
        </mxCell>
        <mxCell id="FohTjnUAe-nF-T1eV7DM-42" value="Opsi==1" style="rhombus;whiteSpace=wrap;html=1;fillColor=#FFCCCC;strokeColor=#FF0000;strokeWidth=2;shadow=1;" vertex="1" parent="1">
          <mxGeometry x="2746.45" y="2715" width="80" height="80" as="geometry" />
        </mxCell>
        <mxCell id="FohTjnUAe-nF-T1eV7DM-43" value="" style="edgeStyle=orthogonalEdgeStyle;rounded=0;orthogonalLoop=1;jettySize=auto;html=1;" edge="1" parent="1" source="FohTjnUAe-nF-T1eV7DM-47">
          <mxGeometry relative="1" as="geometry">
            <mxPoint x="3110.95" y="2755" as="targetPoint" />
          </mxGeometry>
        </mxCell>
        <mxCell id="FohTjnUAe-nF-T1eV7DM-44" value="False" style="edgeLabel;html=1;align=center;verticalAlign=middle;resizable=0;points=[];" connectable="0" vertex="1" parent="FohTjnUAe-nF-T1eV7DM-43">
          <mxGeometry x="-0.112" y="-1" relative="1" as="geometry">
            <mxPoint as="offset" />
          </mxGeometry>
        </mxCell>
        <mxCell id="FohTjnUAe-nF-T1eV7DM-45" value="" style="edgeStyle=orthogonalEdgeStyle;rounded=0;orthogonalLoop=1;jettySize=auto;html=1;" edge="1" parent="1" source="FohTjnUAe-nF-T1eV7DM-47" target="FohTjnUAe-nF-T1eV7DM-58">
          <mxGeometry relative="1" as="geometry" />
        </mxCell>
        <mxCell id="FohTjnUAe-nF-T1eV7DM-46" value="True" style="edgeLabel;html=1;align=center;verticalAlign=middle;resizable=0;points=[];" connectable="0" vertex="1" parent="FohTjnUAe-nF-T1eV7DM-45">
          <mxGeometry x="-0.1742" y="-2" relative="1" as="geometry">
            <mxPoint as="offset" />
          </mxGeometry>
        </mxCell>
        <mxCell id="FohTjnUAe-nF-T1eV7DM-47" value="Opsi==2" style="rhombus;whiteSpace=wrap;html=1;fillColor=#FFCCCC;strokeColor=#FF0000;strokeWidth=2;shadow=1;" vertex="1" parent="1">
          <mxGeometry x="2930.95" y="2715" width="80" height="80" as="geometry" />
        </mxCell>
        <mxCell id="FohTjnUAe-nF-T1eV7DM-48" value="pilihan tidak valid" style="shape=parallelogram;perimeter=parallelogramPerimeter;whiteSpace=wrap;html=1;fixedSize=1;fillColor=#FFCCE6;strokeColor=#FF3399;strokeWidth=2;shadow=1;" vertex="1" parent="1">
          <mxGeometry x="3270.95" y="2725" width="120" height="60" as="geometry" />
        </mxCell>
        <mxCell id="FohTjnUAe-nF-T1eV7DM-49" value="" style="edgeStyle=orthogonalEdgeStyle;rounded=0;orthogonalLoop=1;jettySize=auto;html=1;" edge="1" parent="1" target="FohTjnUAe-nF-T1eV7DM-42">
          <mxGeometry relative="1" as="geometry">
            <mxPoint x="2786.45" y="2655" as="sourcePoint" />
          </mxGeometry>
        </mxCell>
        <mxCell id="FohTjnUAe-nF-T1eV7DM-50" style="edgeStyle=orthogonalEdgeStyle;rounded=0;orthogonalLoop=1;jettySize=auto;html=1;exitX=0.5;exitY=0;exitDx=0;exitDy=0;" edge="1" parent="1" source="FohTjnUAe-nF-T1eV7DM-48" target="FohTjnUAe-nF-T1eV7DM-37">
          <mxGeometry relative="1" as="geometry">
            <Array as="points">
              <mxPoint x="3330.95" y="2505" />
            </Array>
          </mxGeometry>
        </mxCell>
        <mxCell id="FohTjnUAe-nF-T1eV7DM-51" value="" style="edgeStyle=orthogonalEdgeStyle;rounded=0;orthogonalLoop=1;jettySize=auto;html=1;entryX=1;entryY=0.5;entryDx=0;entryDy=0;entryPerimeter=0;" edge="1" parent="1" source="FohTjnUAe-nF-T1eV7DM-55" target="FohTjnUAe-nF-T1eV7DM-60">
          <mxGeometry relative="1" as="geometry">
            <mxPoint x="3333.45" y="2865" as="targetPoint" />
            <Array as="points">
              <mxPoint x="3150.95" y="3125" />
            </Array>
          </mxGeometry>
        </mxCell>
        <mxCell id="FohTjnUAe-nF-T1eV7DM-52" value="True" style="edgeLabel;html=1;align=center;verticalAlign=middle;resizable=0;points=[];" connectable="0" vertex="1" parent="FohTjnUAe-nF-T1eV7DM-51">
          <mxGeometry x="-0.1899" y="1" relative="1" as="geometry">
            <mxPoint x="12" y="-301" as="offset" />
          </mxGeometry>
        </mxCell>
        <mxCell id="FohTjnUAe-nF-T1eV7DM-53" value="" style="edgeStyle=orthogonalEdgeStyle;rounded=0;orthogonalLoop=1;jettySize=auto;html=1;" edge="1" parent="1" source="FohTjnUAe-nF-T1eV7DM-55" target="FohTjnUAe-nF-T1eV7DM-48">
          <mxGeometry relative="1" as="geometry" />
        </mxCell>
        <mxCell id="FohTjnUAe-nF-T1eV7DM-54" value="False" style="edgeLabel;html=1;align=center;verticalAlign=middle;resizable=0;points=[];" connectable="0" vertex="1" parent="FohTjnUAe-nF-T1eV7DM-53">
          <mxGeometry x="-0.085" y="-1" relative="1" as="geometry">
            <mxPoint as="offset" />
          </mxGeometry>
        </mxCell>
        <mxCell id="FohTjnUAe-nF-T1eV7DM-55" value="Opsi==3" style="rhombus;whiteSpace=wrap;html=1;fillColor=#FFCCCC;strokeColor=#FF0000;strokeWidth=2;shadow=1;" vertex="1" parent="1">
          <mxGeometry x="3110.95" y="2715" width="80" height="80" as="geometry" />
        </mxCell>
        <mxCell id="FohTjnUAe-nF-T1eV7DM-56" value="" style="edgeStyle=orthogonalEdgeStyle;rounded=0;orthogonalLoop=1;jettySize=auto;html=1;" edge="1" parent="1" source="FohTjnUAe-nF-T1eV7DM-57">
          <mxGeometry relative="1" as="geometry">
            <mxPoint x="2785.95" y="3015" as="targetPoint" />
          </mxGeometry>
        </mxCell>
        <mxCell id="FohTjnUAe-nF-T1eV7DM-57" value="&lt;font style=&quot;font-size: 9px;&quot;&gt;tampilkanHewanByUser()&lt;/font&gt;" style="shape=process;whiteSpace=wrap;html=1;backgroundOutline=1;fillColor=#CCE5FF;strokeColor=#007FFF;strokeWidth=2;shadow=1;" vertex="1" parent="1">
          <mxGeometry x="2713.95" y="2865" width="145" height="60" as="geometry" />
        </mxCell>
        <mxCell id="FohTjnUAe-nF-T1eV7DM-58" value="tambahHewan()" style="shape=process;whiteSpace=wrap;html=1;backgroundOutline=1;fillColor=#CCE5FF;strokeColor=#007FFF;strokeWidth=2;shadow=1;" vertex="1" parent="1">
          <mxGeometry x="2898.45" y="2865" width="145" height="60" as="geometry" />
        </mxCell>
        <mxCell id="FohTjnUAe-nF-T1eV7DM-59" style="edgeStyle=orthogonalEdgeStyle;rounded=0;orthogonalLoop=1;jettySize=auto;html=1;exitX=0.5;exitY=1;exitDx=0;exitDy=0;" edge="1" parent="1" source="FohTjnUAe-nF-T1eV7DM-58">
          <mxGeometry relative="1" as="geometry">
            <mxPoint x="2560.95" y="3015" as="targetPoint" />
            <Array as="points">
              <mxPoint x="2970.95" y="3015" />
            </Array>
          </mxGeometry>
        </mxCell>
        <mxCell id="FohTjnUAe-nF-T1eV7DM-60" value="END" style="strokeWidth=2;html=1;shape=mxgraph.flowchart.start_1;whiteSpace=wrap;shadow=1;strokeColor=#9933FF;fillColor=#E5CCFF;" vertex="1" parent="1">
          <mxGeometry x="2736.45" y="3095" width="100" height="60" as="geometry" />
        </mxCell>
        <mxCell id="FohTjnUAe-nF-T1eV7DM-61" value="" style="endArrow=none;html=1;rounded=0;" edge="1" parent="1">
          <mxGeometry width="50" height="50" relative="1" as="geometry">
            <mxPoint x="2560.95" y="3015" as="sourcePoint" />
            <mxPoint x="2560.95" y="2495" as="targetPoint" />
          </mxGeometry>
        </mxCell>
        <mxCell id="FohTjnUAe-nF-T1eV7DM-62" value="" style="endArrow=classic;html=1;rounded=0;" edge="1" parent="1" target="FohTjnUAe-nF-T1eV7DM-37">
          <mxGeometry width="50" height="50" relative="1" as="geometry">
            <mxPoint x="2560.95" y="2495" as="sourcePoint" />
            <mxPoint x="2610.95" y="2445" as="targetPoint" />
          </mxGeometry>
        </mxCell>
        <mxCell id="FohTjnUAe-nF-T1eV7DM-63" value="input opsi" style="shape=parallelogram;perimeter=parallelogramPerimeter;whiteSpace=wrap;html=1;fixedSize=1;fillColor=#FFCCE6;strokeColor=#FF3399;strokeWidth=2;shadow=1;" vertex="1" parent="1">
          <mxGeometry x="2726.45" y="2595" width="120" height="60" as="geometry" />
        </mxCell>
        <mxCell id="FohTjnUAe-nF-T1eV7DM-64" value="" style="endArrow=classic;html=1;rounded=0;entryX=0;entryY=0;entryDx=0;entryDy=0;" edge="1" parent="1" target="FohTjnUAe-nF-T1eV7DM-63">
          <mxGeometry width="50" height="50" relative="1" as="geometry">
            <mxPoint x="2700.95" y="2604" as="sourcePoint" />
            <mxPoint x="2760.95" y="2555" as="targetPoint" />
          </mxGeometry>
        </mxCell>
        <mxCell id="4CZyeN5ca-wIJ5sxMpVc-1" value="" style="endArrow=classic;html=1;rounded=0;" edge="1" parent="1">
          <mxGeometry width="50" height="50" relative="1" as="geometry">
            <mxPoint x="648.75" y="2655" as="sourcePoint" />
            <mxPoint x="718.7499999999999" y="2655" as="targetPoint" />
          </mxGeometry>
        </mxCell>
        <mxCell id="4CZyeN5ca-wIJ5sxMpVc-2" value="" style="endArrow=classic;html=1;rounded=0;" edge="1" parent="1">
          <mxGeometry width="50" height="50" relative="1" as="geometry">
            <mxPoint x="820.2499999999999" y="2555" as="sourcePoint" />
            <mxPoint x="890.2499999999999" y="2555" as="targetPoint" />
          </mxGeometry>
        </mxCell>
        <mxCell id="4CZyeN5ca-wIJ5sxMpVc-3" value="True" style="edgeLabel;html=1;align=center;verticalAlign=middle;resizable=0;points=[];" connectable="0" vertex="1" parent="1">
          <mxGeometry x="3150.95" y="2825" as="geometry" />
        </mxCell>
        <mxCell id="vJtvrgLwbrTX-_Lk1-qA-5" value="" style="edgeStyle=orthogonalEdgeStyle;rounded=0;orthogonalLoop=1;jettySize=auto;html=1;" edge="1" parent="1" source="4CZyeN5ca-wIJ5sxMpVc-65" target="00JhJRKnC4P_FVbmjxvB-74">
          <mxGeometry relative="1" as="geometry" />
        </mxCell>
        <mxCell id="4CZyeN5ca-wIJ5sxMpVc-65" value="opsi==2" style="shape=parallelogram;perimeter=parallelogramPerimeter;whiteSpace=wrap;html=1;fixedSize=1;fillColor=#FFCCE6;strokeColor=#FF3399;" vertex="1" parent="1">
          <mxGeometry x="1496.9999999999998" y="5515.5" width="99" height="35" as="geometry" />
        </mxCell>
        <mxCell id="vJtvrgLwbrTX-_Lk1-qA-2" value="" style="edgeStyle=orthogonalEdgeStyle;rounded=0;orthogonalLoop=1;jettySize=auto;html=1;" edge="1" parent="1" source="4CZyeN5ca-wIJ5sxMpVc-69" target="vJtvrgLwbrTX-_Lk1-qA-1">
          <mxGeometry relative="1" as="geometry" />
        </mxCell>
        <mxCell id="vJtvrgLwbrTX-_Lk1-qA-6" value="True" style="edgeLabel;html=1;align=center;verticalAlign=middle;resizable=0;points=[];" connectable="0" vertex="1" parent="vJtvrgLwbrTX-_Lk1-qA-2">
          <mxGeometry x="-0.1556" y="-2" relative="1" as="geometry">
            <mxPoint as="offset" />
          </mxGeometry>
        </mxCell>
        <mxCell id="vJtvrgLwbrTX-_Lk1-qA-4" value="" style="edgeStyle=orthogonalEdgeStyle;rounded=0;orthogonalLoop=1;jettySize=auto;html=1;" edge="1" parent="1" source="4CZyeN5ca-wIJ5sxMpVc-69" target="4CZyeN5ca-wIJ5sxMpVc-65">
          <mxGeometry relative="1" as="geometry" />
        </mxCell>
        <mxCell id="vJtvrgLwbrTX-_Lk1-qA-9" value="False" style="edgeLabel;html=1;align=center;verticalAlign=middle;resizable=0;points=[];" connectable="0" vertex="1" parent="vJtvrgLwbrTX-_Lk1-qA-4">
          <mxGeometry x="-0.0297" relative="1" as="geometry">
            <mxPoint as="offset" />
          </mxGeometry>
        </mxCell>
        <mxCell id="4CZyeN5ca-wIJ5sxMpVc-69" value="opsi==1&amp;nbsp;" style="rhombus;whiteSpace=wrap;html=1;strokeColor=#FF3333;fillColor=#FFCCCC;" vertex="1" parent="1">
          <mxGeometry x="1743.9999999999998" y="5493" width="90" height="80" as="geometry" />
        </mxCell>
        <mxCell id="wl5vKfPLSGNA0CRAG-PO-111" style="edgeStyle=orthogonalEdgeStyle;rounded=0;orthogonalLoop=1;jettySize=auto;html=1;exitX=0.5;exitY=1;exitDx=0;exitDy=0;" edge="1" parent="1" source="vJtvrgLwbrTX-_Lk1-qA-1" target="00JhJRKnC4P_FVbmjxvB-64">
          <mxGeometry relative="1" as="geometry" />
        </mxCell>
        <mxCell id="vJtvrgLwbrTX-_Lk1-qA-1" value="Menampilkan semua data hewan" style="shape=parallelogram;perimeter=parallelogramPerimeter;whiteSpace=wrap;html=1;fixedSize=1;fillColor=#FFCCE6;strokeColor=#FF3399;" vertex="1" parent="1">
          <mxGeometry x="1701.4999999999998" y="5618" width="175" height="60" as="geometry" />
        </mxCell>
        <mxCell id="vJtvrgLwbrTX-_Lk1-qA-3" value="" style="endArrow=classic;html=1;rounded=0;entryX=0;entryY=0;entryDx=0;entryDy=0;" edge="1" parent="1">
          <mxGeometry width="50" height="50" relative="1" as="geometry">
            <mxPoint x="1848.9999999999998" y="5668" as="sourcePoint" />
            <mxPoint x="1896.4999999999998" y="5668" as="targetPoint" />
          </mxGeometry>
        </mxCell>
        <mxCell id="vJtvrgLwbrTX-_Lk1-qA-10" value="" style="endArrow=classic;html=1;rounded=0;entryX=0;entryY=0;entryDx=0;entryDy=0;" edge="1" parent="1">
          <mxGeometry width="50" height="50" relative="1" as="geometry">
            <mxPoint x="1464.4999999999998" y="5607" as="sourcePoint" />
            <mxPoint x="1511.9999999999998" y="5607" as="targetPoint" />
          </mxGeometry>
        </mxCell>
        <mxCell id="caTqFsODvWTbqU7TfdW9-2" value="Ingin menampilkan:&lt;div&gt;1. Semua data hewan&lt;/div&gt;&lt;div&gt;2. Cari berdasarkan id hewan&lt;/div&gt;" style="shape=parallelogram;perimeter=parallelogramPerimeter;whiteSpace=wrap;html=1;fixedSize=1;fillColor=#FFCCE6;strokeColor=#FF3399;" vertex="1" parent="1">
          <mxGeometry x="1663.6699999999998" y="5390" width="240" height="70" as="geometry" />
        </mxCell>
        <mxCell id="caTqFsODvWTbqU7TfdW9-3" value="" style="endArrow=classic;html=1;rounded=0;entryX=0;entryY=0;entryDx=0;entryDy=0;" edge="1" parent="1">
          <mxGeometry width="50" height="50" relative="1" as="geometry">
            <mxPoint x="1653.9999999999998" y="5398" as="sourcePoint" />
            <mxPoint x="1701.4999999999998" y="5398" as="targetPoint" />
          </mxGeometry>
        </mxCell>
        <mxCell id="wl5vKfPLSGNA0CRAG-PO-4" value="" style="edgeStyle=orthogonalEdgeStyle;rounded=0;orthogonalLoop=1;jettySize=auto;html=1;" edge="1" parent="1" source="wl5vKfPLSGNA0CRAG-PO-1" target="wl5vKfPLSGNA0CRAG-PO-3">
          <mxGeometry relative="1" as="geometry" />
        </mxCell>
        <mxCell id="wl5vKfPLSGNA0CRAG-PO-1" value="Apakah anda yakin ingin menghapus?" style="shape=parallelogram;perimeter=parallelogramPerimeter;whiteSpace=wrap;html=1;fixedSize=1;fillColor=#FFCCE6;strokeColor=#FF3399;strokeWidth=2;shadow=1;" vertex="1" parent="1">
          <mxGeometry x="812.33" y="6690" width="179.5" height="60" as="geometry" />
        </mxCell>
        <mxCell id="wl5vKfPLSGNA0CRAG-PO-5" value="" style="edgeStyle=orthogonalEdgeStyle;rounded=0;orthogonalLoop=1;jettySize=auto;html=1;" edge="1" parent="1" source="wl5vKfPLSGNA0CRAG-PO-3" target="3PhvzCpmbgAPnzb8skuk-14">
          <mxGeometry relative="1" as="geometry" />
        </mxCell>
        <mxCell id="wl5vKfPLSGNA0CRAG-PO-8" value="True" style="edgeLabel;html=1;align=center;verticalAlign=middle;resizable=0;points=[];" connectable="0" vertex="1" parent="wl5vKfPLSGNA0CRAG-PO-5">
          <mxGeometry x="-0.248" y="-1" relative="1" as="geometry">
            <mxPoint as="offset" />
          </mxGeometry>
        </mxCell>
        <mxCell id="wl5vKfPLSGNA0CRAG-PO-7" value="" style="edgeStyle=orthogonalEdgeStyle;rounded=0;orthogonalLoop=1;jettySize=auto;html=1;" edge="1" parent="1" source="wl5vKfPLSGNA0CRAG-PO-3" target="wl5vKfPLSGNA0CRAG-PO-6">
          <mxGeometry relative="1" as="geometry" />
        </mxCell>
        <mxCell id="wl5vKfPLSGNA0CRAG-PO-9" value="False" style="edgeLabel;html=1;align=center;verticalAlign=middle;resizable=0;points=[];" connectable="0" vertex="1" parent="wl5vKfPLSGNA0CRAG-PO-7">
          <mxGeometry x="-0.0812" y="-2" relative="1" as="geometry">
            <mxPoint x="5" y="2" as="offset" />
          </mxGeometry>
        </mxCell>
        <mxCell id="wl5vKfPLSGNA0CRAG-PO-3" value="Pilihan == &#39;y&#39;" style="rhombus;whiteSpace=wrap;html=1;fillColor=#FFCCCC;strokeColor=#FF3333;strokeWidth=2;shadow=1;" vertex="1" parent="1">
          <mxGeometry x="839.58" y="6830" width="125" height="80" as="geometry" />
        </mxCell>
        <mxCell id="wl5vKfPLSGNA0CRAG-PO-11" value="" style="edgeStyle=orthogonalEdgeStyle;rounded=0;orthogonalLoop=1;jettySize=auto;html=1;" edge="1" parent="1" source="wl5vKfPLSGNA0CRAG-PO-6" target="wl5vKfPLSGNA0CRAG-PO-10">
          <mxGeometry relative="1" as="geometry" />
        </mxCell>
        <mxCell id="wl5vKfPLSGNA0CRAG-PO-12" value="True" style="edgeLabel;html=1;align=center;verticalAlign=middle;resizable=0;points=[];" connectable="0" vertex="1" parent="wl5vKfPLSGNA0CRAG-PO-11">
          <mxGeometry x="-0.0848" y="1" relative="1" as="geometry">
            <mxPoint x="-1" as="offset" />
          </mxGeometry>
        </mxCell>
        <mxCell id="wl5vKfPLSGNA0CRAG-PO-18" value="" style="edgeStyle=orthogonalEdgeStyle;rounded=0;orthogonalLoop=1;jettySize=auto;html=1;" edge="1" parent="1" source="wl5vKfPLSGNA0CRAG-PO-6" target="wl5vKfPLSGNA0CRAG-PO-17">
          <mxGeometry relative="1" as="geometry" />
        </mxCell>
        <mxCell id="wl5vKfPLSGNA0CRAG-PO-19" value="False" style="edgeLabel;html=1;align=center;verticalAlign=middle;resizable=0;points=[];" connectable="0" vertex="1" parent="wl5vKfPLSGNA0CRAG-PO-18">
          <mxGeometry x="-0.0138" y="-2" relative="1" as="geometry">
            <mxPoint y="2" as="offset" />
          </mxGeometry>
        </mxCell>
        <mxCell id="wl5vKfPLSGNA0CRAG-PO-6" value="Pilihan == &#39;n&#39;" style="rhombus;whiteSpace=wrap;html=1;fillColor=#FFCCCC;strokeColor=#FF3333;strokeWidth=2;shadow=1;" vertex="1" parent="1">
          <mxGeometry x="622.33" y="6830" width="125" height="80" as="geometry" />
        </mxCell>
        <mxCell id="wl5vKfPLSGNA0CRAG-PO-10" value="Penghapusan dibatalkan" style="shape=parallelogram;perimeter=parallelogramPerimeter;whiteSpace=wrap;html=1;fixedSize=1;fillColor=#FFCCE6;strokeColor=#FF3399;strokeWidth=2;shadow=1;" vertex="1" parent="1">
          <mxGeometry x="602.33" y="6960" width="165" height="50" as="geometry" />
        </mxCell>
        <mxCell id="wl5vKfPLSGNA0CRAG-PO-13" style="edgeStyle=orthogonalEdgeStyle;rounded=0;orthogonalLoop=1;jettySize=auto;html=1;exitX=0.5;exitY=1;exitDx=0;exitDy=0;entryX=0;entryY=0.5;entryDx=0;entryDy=0;entryPerimeter=0;" edge="1" parent="1" source="3PhvzCpmbgAPnzb8skuk-16" target="3PhvzCpmbgAPnzb8skuk-21">
          <mxGeometry relative="1" as="geometry" />
        </mxCell>
        <mxCell id="wl5vKfPLSGNA0CRAG-PO-16" style="edgeStyle=orthogonalEdgeStyle;rounded=0;orthogonalLoop=1;jettySize=auto;html=1;exitX=0.5;exitY=1;exitDx=0;exitDy=0;entryX=0;entryY=0.5;entryDx=0;entryDy=0;entryPerimeter=0;" edge="1" parent="1" source="wl5vKfPLSGNA0CRAG-PO-10" target="3PhvzCpmbgAPnzb8skuk-21">
          <mxGeometry relative="1" as="geometry" />
        </mxCell>
        <mxCell id="wl5vKfPLSGNA0CRAG-PO-17" value="Input tidak valid" style="shape=parallelogram;perimeter=parallelogramPerimeter;whiteSpace=wrap;html=1;fixedSize=1;fillColor=#FFCCE6;strokeColor=#FF3399;strokeWidth=2;shadow=1;" vertex="1" parent="1">
          <mxGeometry x="359.83" y="6845" width="165" height="50" as="geometry" />
        </mxCell>
        <mxCell id="wl5vKfPLSGNA0CRAG-PO-20" style="edgeStyle=orthogonalEdgeStyle;rounded=0;orthogonalLoop=1;jettySize=auto;html=1;exitX=0.5;exitY=1;exitDx=0;exitDy=0;entryX=0;entryY=0.5;entryDx=0;entryDy=0;entryPerimeter=0;" edge="1" parent="1" source="wl5vKfPLSGNA0CRAG-PO-17" target="3PhvzCpmbgAPnzb8skuk-21">
          <mxGeometry relative="1" as="geometry" />
        </mxCell>
        <mxCell id="wl5vKfPLSGNA0CRAG-PO-21" value="" style="edgeStyle=orthogonalEdgeStyle;rounded=0;orthogonalLoop=1;jettySize=auto;html=1;" edge="1" parent="1" source="wl5vKfPLSGNA0CRAG-PO-22" target="wl5vKfPLSGNA0CRAG-PO-27">
          <mxGeometry relative="1" as="geometry" />
        </mxCell>
        <mxCell id="wl5vKfPLSGNA0CRAG-PO-22" value="Pilih id hewan yang&lt;div&gt;&amp;nbsp;ingin dihapus&lt;/div&gt;" style="shape=parallelogram;perimeter=parallelogramPerimeter;whiteSpace=wrap;html=1;fixedSize=1;fillColor=#FFCCE6;strokeColor=#FF3399;strokeWidth=2;shadow=1;" vertex="1" parent="1">
          <mxGeometry x="2351.33" y="6400" width="190" height="80" as="geometry" />
        </mxCell>
        <mxCell id="wl5vKfPLSGNA0CRAG-PO-23" value="" style="edgeStyle=orthogonalEdgeStyle;rounded=0;orthogonalLoop=1;jettySize=auto;html=1;" edge="1" parent="1" source="wl5vKfPLSGNA0CRAG-PO-27" target="wl5vKfPLSGNA0CRAG-PO-28">
          <mxGeometry relative="1" as="geometry" />
        </mxCell>
        <mxCell id="wl5vKfPLSGNA0CRAG-PO-24" value="" style="edgeStyle=orthogonalEdgeStyle;rounded=0;orthogonalLoop=1;jettySize=auto;html=1;" edge="1" parent="1" source="wl5vKfPLSGNA0CRAG-PO-27" target="wl5vKfPLSGNA0CRAG-PO-32">
          <mxGeometry relative="1" as="geometry" />
        </mxCell>
        <mxCell id="wl5vKfPLSGNA0CRAG-PO-25" value="True" style="edgeLabel;html=1;align=center;verticalAlign=middle;resizable=0;points=[];" connectable="0" vertex="1" parent="wl5vKfPLSGNA0CRAG-PO-24">
          <mxGeometry x="-0.1011" relative="1" as="geometry">
            <mxPoint x="126" y="-77" as="offset" />
          </mxGeometry>
        </mxCell>
        <mxCell id="wl5vKfPLSGNA0CRAG-PO-26" value="False" style="edgeLabel;html=1;align=center;verticalAlign=middle;resizable=0;points=[];" connectable="0" vertex="1" parent="wl5vKfPLSGNA0CRAG-PO-24">
          <mxGeometry x="-0.1462" y="-1" relative="1" as="geometry">
            <mxPoint as="offset" />
          </mxGeometry>
        </mxCell>
        <mxCell id="wl5vKfPLSGNA0CRAG-PO-27" value="id != id hewan" style="rhombus;whiteSpace=wrap;html=1;fillColor=#FFCCCC;strokeColor=#FF3333;strokeWidth=2;shadow=1;" vertex="1" parent="1">
          <mxGeometry x="2384.33" y="6530" width="125" height="80" as="geometry" />
        </mxCell>
        <mxCell id="wl5vKfPLSGNA0CRAG-PO-28" value="id Hewan tidak ada!" style="shape=parallelogram;perimeter=parallelogramPerimeter;whiteSpace=wrap;html=1;fixedSize=1;fillColor=#FFCCE6;strokeColor=#FF3399;strokeWidth=2;shadow=1;" vertex="1" parent="1">
          <mxGeometry x="2655.2400000000002" y="6540" width="179.5" height="60" as="geometry" />
        </mxCell>
        <mxCell id="wl5vKfPLSGNA0CRAG-PO-29" value="" style="endArrow=classic;html=1;rounded=0;" edge="1" parent="1">
          <mxGeometry width="50" height="50" relative="1" as="geometry">
            <mxPoint x="2794.3300000000004" y="6590" as="sourcePoint" />
            <mxPoint x="2854.3300000000004" y="6590" as="targetPoint" />
          </mxGeometry>
        </mxCell>
        <mxCell id="wl5vKfPLSGNA0CRAG-PO-30" value="" style="endArrow=classic;html=1;rounded=0;" edge="1" parent="1">
          <mxGeometry width="50" height="50" relative="1" as="geometry">
            <mxPoint x="2324.33" y="6410" as="sourcePoint" />
            <mxPoint x="2384.33" y="6410" as="targetPoint" />
          </mxGeometry>
        </mxCell>
        <mxCell id="wl5vKfPLSGNA0CRAG-PO-31" value="" style="edgeStyle=orthogonalEdgeStyle;rounded=0;orthogonalLoop=1;jettySize=auto;html=1;" edge="1" parent="1" source="wl5vKfPLSGNA0CRAG-PO-32" target="wl5vKfPLSGNA0CRAG-PO-42">
          <mxGeometry relative="1" as="geometry" />
        </mxCell>
        <mxCell id="wl5vKfPLSGNA0CRAG-PO-32" value="menghapus hewan" style="whiteSpace=wrap;html=1;fillColor=#FFE6CC;strokeColor=#FF9933;strokeWidth=2;shadow=1;" vertex="1" parent="1">
          <mxGeometry x="2384.33" y="6690" width="120" height="60" as="geometry" />
        </mxCell>
        <mxCell id="wl5vKfPLSGNA0CRAG-PO-33" value="" style="edgeStyle=orthogonalEdgeStyle;rounded=0;orthogonalLoop=1;jettySize=auto;html=1;" edge="1" parent="1" source="wl5vKfPLSGNA0CRAG-PO-34" target="wl5vKfPLSGNA0CRAG-PO-35">
          <mxGeometry relative="1" as="geometry" />
        </mxCell>
        <mxCell id="wl5vKfPLSGNA0CRAG-PO-34" value="jumlahhewan -1" style="whiteSpace=wrap;html=1;fillColor=#FFE6CC;strokeColor=#FF9933;strokeWidth=2;shadow=1;" vertex="1" parent="1">
          <mxGeometry x="2173.58" y="6960" width="120" height="60" as="geometry" />
        </mxCell>
        <mxCell id="wl5vKfPLSGNA0CRAG-PO-35" value="Data hewan berhasil dihapus" style="shape=parallelogram;perimeter=parallelogramPerimeter;whiteSpace=wrap;html=1;fixedSize=1;fillColor=#FFCCE6;strokeColor=#FF3399;strokeWidth=2;shadow=1;" vertex="1" parent="1">
          <mxGeometry x="2156.08" y="7090" width="155" height="60" as="geometry" />
        </mxCell>
        <mxCell id="wl5vKfPLSGNA0CRAG-PO-36" value="" style="endArrow=classic;html=1;rounded=0;" edge="1" parent="1">
          <mxGeometry width="50" height="50" relative="1" as="geometry">
            <mxPoint x="2276.02" y="7140" as="sourcePoint" />
            <mxPoint x="2336.02" y="7140" as="targetPoint" />
          </mxGeometry>
        </mxCell>
        <mxCell id="wl5vKfPLSGNA0CRAG-PO-37" style="edgeStyle=orthogonalEdgeStyle;rounded=0;orthogonalLoop=1;jettySize=auto;html=1;entryX=0.5;entryY=0;entryDx=0;entryDy=0;" edge="1" parent="1" source="wl5vKfPLSGNA0CRAG-PO-38" target="wl5vKfPLSGNA0CRAG-PO-22">
          <mxGeometry relative="1" as="geometry" />
        </mxCell>
        <mxCell id="wl5vKfPLSGNA0CRAG-PO-38" value="hapusHewan()" style="shape=process;whiteSpace=wrap;html=1;backgroundOutline=1;fillColor=#E5CCFF;strokeColor=#9933FF;" vertex="1" parent="1">
          <mxGeometry x="2369.33" y="6290" width="155" height="50" as="geometry" />
        </mxCell>
        <mxCell id="wl5vKfPLSGNA0CRAG-PO-39" value="" style="edgeStyle=orthogonalEdgeStyle;rounded=0;orthogonalLoop=1;jettySize=auto;html=1;exitX=0.5;exitY=1;exitDx=0;exitDy=0;entryX=1;entryY=0.5;entryDx=0;entryDy=0;entryPerimeter=0;" edge="1" parent="1" source="wl5vKfPLSGNA0CRAG-PO-28" target="wl5vKfPLSGNA0CRAG-PO-40">
          <mxGeometry relative="1" as="geometry">
            <mxPoint x="2681.3300000000004" y="6600" as="sourcePoint" />
            <mxPoint x="2271.33" y="6950" as="targetPoint" />
          </mxGeometry>
        </mxCell>
        <mxCell id="wl5vKfPLSGNA0CRAG-PO-40" value="END" style="strokeWidth=2;html=1;shape=mxgraph.flowchart.start_1;whiteSpace=wrap;shadow=1;strokeColor=#9933FF;fillColor=#E5CCFF;" vertex="1" parent="1">
          <mxGeometry x="2394.33" y="7210" width="100" height="60" as="geometry" />
        </mxCell>
        <mxCell id="wl5vKfPLSGNA0CRAG-PO-41" value="" style="edgeStyle=orthogonalEdgeStyle;rounded=0;orthogonalLoop=1;jettySize=auto;html=1;" edge="1" parent="1" source="wl5vKfPLSGNA0CRAG-PO-42" target="wl5vKfPLSGNA0CRAG-PO-47">
          <mxGeometry relative="1" as="geometry" />
        </mxCell>
        <mxCell id="wl5vKfPLSGNA0CRAG-PO-42" value="Apakah anda yakin ingin menghapus?" style="shape=parallelogram;perimeter=parallelogramPerimeter;whiteSpace=wrap;html=1;fixedSize=1;fillColor=#FFCCE6;strokeColor=#FF3399;strokeWidth=2;shadow=1;" vertex="1" parent="1">
          <mxGeometry x="2143.83" y="6690" width="179.5" height="60" as="geometry" />
        </mxCell>
        <mxCell id="wl5vKfPLSGNA0CRAG-PO-43" value="" style="edgeStyle=orthogonalEdgeStyle;rounded=0;orthogonalLoop=1;jettySize=auto;html=1;" edge="1" parent="1" source="wl5vKfPLSGNA0CRAG-PO-47" target="wl5vKfPLSGNA0CRAG-PO-34">
          <mxGeometry relative="1" as="geometry" />
        </mxCell>
        <mxCell id="wl5vKfPLSGNA0CRAG-PO-44" value="True" style="edgeLabel;html=1;align=center;verticalAlign=middle;resizable=0;points=[];" connectable="0" vertex="1" parent="wl5vKfPLSGNA0CRAG-PO-43">
          <mxGeometry x="-0.248" y="-1" relative="1" as="geometry">
            <mxPoint as="offset" />
          </mxGeometry>
        </mxCell>
        <mxCell id="wl5vKfPLSGNA0CRAG-PO-45" value="" style="edgeStyle=orthogonalEdgeStyle;rounded=0;orthogonalLoop=1;jettySize=auto;html=1;" edge="1" parent="1" source="wl5vKfPLSGNA0CRAG-PO-47" target="wl5vKfPLSGNA0CRAG-PO-52">
          <mxGeometry relative="1" as="geometry" />
        </mxCell>
        <mxCell id="wl5vKfPLSGNA0CRAG-PO-46" value="False" style="edgeLabel;html=1;align=center;verticalAlign=middle;resizable=0;points=[];" connectable="0" vertex="1" parent="wl5vKfPLSGNA0CRAG-PO-45">
          <mxGeometry x="-0.0812" y="-2" relative="1" as="geometry">
            <mxPoint x="5" y="2" as="offset" />
          </mxGeometry>
        </mxCell>
        <mxCell id="wl5vKfPLSGNA0CRAG-PO-47" value="Pilihan == &#39;y&#39;" style="rhombus;whiteSpace=wrap;html=1;fillColor=#FFCCCC;strokeColor=#FF3333;strokeWidth=2;shadow=1;" vertex="1" parent="1">
          <mxGeometry x="2171.08" y="6830" width="125" height="80" as="geometry" />
        </mxCell>
        <mxCell id="wl5vKfPLSGNA0CRAG-PO-48" value="" style="edgeStyle=orthogonalEdgeStyle;rounded=0;orthogonalLoop=1;jettySize=auto;html=1;" edge="1" parent="1" source="wl5vKfPLSGNA0CRAG-PO-52" target="wl5vKfPLSGNA0CRAG-PO-53">
          <mxGeometry relative="1" as="geometry" />
        </mxCell>
        <mxCell id="wl5vKfPLSGNA0CRAG-PO-49" value="True" style="edgeLabel;html=1;align=center;verticalAlign=middle;resizable=0;points=[];" connectable="0" vertex="1" parent="wl5vKfPLSGNA0CRAG-PO-48">
          <mxGeometry x="-0.0848" y="1" relative="1" as="geometry">
            <mxPoint x="-1" as="offset" />
          </mxGeometry>
        </mxCell>
        <mxCell id="wl5vKfPLSGNA0CRAG-PO-50" value="" style="edgeStyle=orthogonalEdgeStyle;rounded=0;orthogonalLoop=1;jettySize=auto;html=1;" edge="1" parent="1" source="wl5vKfPLSGNA0CRAG-PO-52" target="wl5vKfPLSGNA0CRAG-PO-56">
          <mxGeometry relative="1" as="geometry" />
        </mxCell>
        <mxCell id="wl5vKfPLSGNA0CRAG-PO-51" value="False" style="edgeLabel;html=1;align=center;verticalAlign=middle;resizable=0;points=[];" connectable="0" vertex="1" parent="wl5vKfPLSGNA0CRAG-PO-50">
          <mxGeometry x="-0.0138" y="-2" relative="1" as="geometry">
            <mxPoint y="2" as="offset" />
          </mxGeometry>
        </mxCell>
        <mxCell id="wl5vKfPLSGNA0CRAG-PO-52" value="Pilihan == &#39;n&#39;" style="rhombus;whiteSpace=wrap;html=1;fillColor=#FFCCCC;strokeColor=#FF3333;strokeWidth=2;shadow=1;" vertex="1" parent="1">
          <mxGeometry x="1953.83" y="6830" width="125" height="80" as="geometry" />
        </mxCell>
        <mxCell id="wl5vKfPLSGNA0CRAG-PO-53" value="Penghapusan dibatalkan" style="shape=parallelogram;perimeter=parallelogramPerimeter;whiteSpace=wrap;html=1;fixedSize=1;fillColor=#FFCCE6;strokeColor=#FF3399;strokeWidth=2;shadow=1;" vertex="1" parent="1">
          <mxGeometry x="1933.83" y="6960" width="165" height="50" as="geometry" />
        </mxCell>
        <mxCell id="wl5vKfPLSGNA0CRAG-PO-54" style="edgeStyle=orthogonalEdgeStyle;rounded=0;orthogonalLoop=1;jettySize=auto;html=1;exitX=0.5;exitY=1;exitDx=0;exitDy=0;entryX=0;entryY=0.5;entryDx=0;entryDy=0;entryPerimeter=0;" edge="1" parent="1" source="wl5vKfPLSGNA0CRAG-PO-35" target="wl5vKfPLSGNA0CRAG-PO-40">
          <mxGeometry relative="1" as="geometry" />
        </mxCell>
        <mxCell id="wl5vKfPLSGNA0CRAG-PO-55" style="edgeStyle=orthogonalEdgeStyle;rounded=0;orthogonalLoop=1;jettySize=auto;html=1;exitX=0.5;exitY=1;exitDx=0;exitDy=0;entryX=0;entryY=0.5;entryDx=0;entryDy=0;entryPerimeter=0;" edge="1" parent="1" source="wl5vKfPLSGNA0CRAG-PO-53" target="wl5vKfPLSGNA0CRAG-PO-40">
          <mxGeometry relative="1" as="geometry" />
        </mxCell>
        <mxCell id="wl5vKfPLSGNA0CRAG-PO-56" value="Input tidak valid" style="shape=parallelogram;perimeter=parallelogramPerimeter;whiteSpace=wrap;html=1;fixedSize=1;fillColor=#FFCCE6;strokeColor=#FF3399;strokeWidth=2;shadow=1;" vertex="1" parent="1">
          <mxGeometry x="1691.33" y="6845" width="165" height="50" as="geometry" />
        </mxCell>
        <mxCell id="wl5vKfPLSGNA0CRAG-PO-57" style="edgeStyle=orthogonalEdgeStyle;rounded=0;orthogonalLoop=1;jettySize=auto;html=1;exitX=0.5;exitY=1;exitDx=0;exitDy=0;entryX=0;entryY=0.5;entryDx=0;entryDy=0;entryPerimeter=0;" edge="1" parent="1" source="wl5vKfPLSGNA0CRAG-PO-56" target="wl5vKfPLSGNA0CRAG-PO-40">
          <mxGeometry relative="1" as="geometry" />
        </mxCell>
        <mxCell id="ba6c0RpfKHp4X5wGSwr2-3" style="edgeStyle=orthogonalEdgeStyle;rounded=0;orthogonalLoop=1;jettySize=auto;html=1;" edge="1" parent="1" source="wl5vKfPLSGNA0CRAG-PO-59">
          <mxGeometry relative="1" as="geometry">
            <mxPoint x="2417.41" y="5410" as="targetPoint" />
          </mxGeometry>
        </mxCell>
        <mxCell id="wl5vKfPLSGNA0CRAG-PO-59" value="tampilkanHewanByUser()" style="shape=process;whiteSpace=wrap;html=1;backgroundOutline=1;fillColor=#E5CCFF;strokeColor=#9933FF;align=center;verticalAlign=middle;fontFamily=Helvetica;fontSize=12;fontColor=default;" vertex="1" parent="1">
          <mxGeometry x="2330.16" y="5300" width="174.5" height="60" as="geometry" />
        </mxCell>
        <mxCell id="wl5vKfPLSGNA0CRAG-PO-61" value="END" style="ellipse;whiteSpace=wrap;html=1;fillColor=#E5CCFF;strokeColor=#9933FF;" vertex="1" parent="1">
          <mxGeometry x="2367.41" y="5765" width="100" height="60" as="geometry" />
        </mxCell>
        <mxCell id="wl5vKfPLSGNA0CRAG-PO-91" value="" style="edgeStyle=orthogonalEdgeStyle;rounded=0;orthogonalLoop=1;jettySize=auto;html=1;" edge="1" parent="1" source="wl5vKfPLSGNA0CRAG-PO-83" target="wl5vKfPLSGNA0CRAG-PO-61">
          <mxGeometry relative="1" as="geometry" />
        </mxCell>
        <mxCell id="wl5vKfPLSGNA0CRAG-PO-83" value="Menampilkan semua data hewan user" style="shape=parallelogram;perimeter=parallelogramPerimeter;whiteSpace=wrap;html=1;fixedSize=1;fillColor=#FFCCE6;strokeColor=#FF3399;" vertex="1" parent="1">
          <mxGeometry x="2330.16" y="5635" width="175" height="60" as="geometry" />
        </mxCell>
        <mxCell id="wl5vKfPLSGNA0CRAG-PO-84" value="" style="endArrow=classic;html=1;rounded=0;entryX=0;entryY=0;entryDx=0;entryDy=0;" edge="1" parent="1">
          <mxGeometry width="50" height="50" relative="1" as="geometry">
            <mxPoint x="2479.91" y="5685" as="sourcePoint" />
            <mxPoint x="2527.41" y="5685" as="targetPoint" />
          </mxGeometry>
        </mxCell>
        <mxCell id="wl5vKfPLSGNA0CRAG-PO-90" value="" style="edgeStyle=orthogonalEdgeStyle;rounded=0;orthogonalLoop=1;jettySize=auto;html=1;" edge="1" parent="1" source="wl5vKfPLSGNA0CRAG-PO-88" target="wl5vKfPLSGNA0CRAG-PO-83">
          <mxGeometry relative="1" as="geometry" />
        </mxCell>
        <mxCell id="wl5vKfPLSGNA0CRAG-PO-99" value="True" style="edgeLabel;html=1;align=center;verticalAlign=middle;resizable=0;points=[];" connectable="0" vertex="1" parent="wl5vKfPLSGNA0CRAG-PO-90">
          <mxGeometry x="-0.1438" y="2" relative="1" as="geometry">
            <mxPoint x="-2" y="1" as="offset" />
          </mxGeometry>
        </mxCell>
        <mxCell id="wl5vKfPLSGNA0CRAG-PO-93" value="" style="edgeStyle=orthogonalEdgeStyle;rounded=0;orthogonalLoop=1;jettySize=auto;html=1;" edge="1" parent="1" source="wl5vKfPLSGNA0CRAG-PO-88" target="wl5vKfPLSGNA0CRAG-PO-92">
          <mxGeometry relative="1" as="geometry" />
        </mxCell>
        <mxCell id="wl5vKfPLSGNA0CRAG-PO-96" value="False" style="edgeLabel;html=1;align=center;verticalAlign=middle;resizable=0;points=[];" connectable="0" vertex="1" parent="wl5vKfPLSGNA0CRAG-PO-93">
          <mxGeometry x="-0.165" y="-3" relative="1" as="geometry">
            <mxPoint y="-3" as="offset" />
          </mxGeometry>
        </mxCell>
        <mxCell id="wl5vKfPLSGNA0CRAG-PO-88" value="Data ditemukan?" style="rhombus;whiteSpace=wrap;html=1;strokeColor=#FF3333;fillColor=#FFCCCC;" vertex="1" parent="1">
          <mxGeometry x="2365.16" y="5490" width="105" height="90" as="geometry" />
        </mxCell>
        <mxCell id="wl5vKfPLSGNA0CRAG-PO-98" style="edgeStyle=orthogonalEdgeStyle;rounded=0;orthogonalLoop=1;jettySize=auto;html=1;exitX=0.5;exitY=1;exitDx=0;exitDy=0;entryX=1;entryY=0.5;entryDx=0;entryDy=0;" edge="1" parent="1" source="wl5vKfPLSGNA0CRAG-PO-92" target="wl5vKfPLSGNA0CRAG-PO-61">
          <mxGeometry relative="1" as="geometry" />
        </mxCell>
        <mxCell id="wl5vKfPLSGNA0CRAG-PO-92" value="Tidak ada data hewan&amp;nbsp;&lt;div&gt;yang dimiliki&lt;/div&gt;" style="shape=parallelogram;perimeter=parallelogramPerimeter;whiteSpace=wrap;html=1;fixedSize=1;fillColor=#FFCCE6;strokeColor=#FF3399;" vertex="1" parent="1">
          <mxGeometry x="2573.16" y="5505" width="175" height="60" as="geometry" />
        </mxCell>
        <mxCell id="wl5vKfPLSGNA0CRAG-PO-97" value="" style="endArrow=classic;html=1;rounded=0;entryX=0;entryY=0;entryDx=0;entryDy=0;" edge="1" parent="1">
          <mxGeometry width="50" height="50" relative="1" as="geometry">
            <mxPoint x="2717.66" y="5555" as="sourcePoint" />
            <mxPoint x="2765.16" y="5555" as="targetPoint" />
          </mxGeometry>
        </mxCell>
        <mxCell id="wl5vKfPLSGNA0CRAG-PO-100" value="" style="rounded=0;whiteSpace=wrap;html=1;fillColor=#fad9d5;strokeColor=#ae4132;" vertex="1" parent="1">
          <mxGeometry x="2793.88" y="1144.5" width="380" height="200" as="geometry" />
        </mxCell>
        <mxCell id="wl5vKfPLSGNA0CRAG-PO-101" value="tampilkanHewanByUser()" style="shape=process;whiteSpace=wrap;html=1;backgroundOutline=1;fillColor=#E5CCFF;strokeColor=#9933FF;align=center;verticalAlign=middle;fontFamily=Helvetica;fontSize=12;fontColor=default;" vertex="1" parent="1">
          <mxGeometry x="2803.88" y="1194.5" width="176.12" height="60" as="geometry" />
        </mxCell>
        <mxCell id="wl5vKfPLSGNA0CRAG-PO-102" value="&lt;h1 style=&quot;margin-top: 0px;&quot;&gt;Tampilkan Hewan By User&lt;/h1&gt;&lt;p&gt;Fungsi ini berfungsi untuk menampilkan keseluruhan data hewan di menu user.&lt;/p&gt;" style="text;html=1;whiteSpace=wrap;overflow=hidden;rounded=0;" vertex="1" parent="1">
          <mxGeometry x="2990.01" y="1169.5" width="183.87" height="130" as="geometry" />
        </mxCell>
        <mxCell id="wl5vKfPLSGNA0CRAG-PO-118" style="edgeStyle=orthogonalEdgeStyle;rounded=0;orthogonalLoop=1;jettySize=auto;html=1;exitX=0.5;exitY=1;exitDx=0;exitDy=0;entryX=0.5;entryY=0;entryDx=0;entryDy=0;" edge="1" parent="1" source="wl5vKfPLSGNA0CRAG-PO-107" target="00JhJRKnC4P_FVbmjxvB-38">
          <mxGeometry relative="1" as="geometry" />
        </mxCell>
        <mxCell id="wl5vKfPLSGNA0CRAG-PO-107" value="Menampilkan semua data customer" style="shape=parallelogram;perimeter=parallelogramPerimeter;whiteSpace=wrap;html=1;fixedSize=1;fillColor=#FFCCE6;strokeColor=#FF3399;" vertex="1" parent="1">
          <mxGeometry x="777.5" y="5550" width="175" height="60" as="geometry" />
        </mxCell>
        <mxCell id="wl5vKfPLSGNA0CRAG-PO-109" value="" style="endArrow=classic;html=1;rounded=0;entryX=0;entryY=0;entryDx=0;entryDy=0;" edge="1" parent="1">
          <mxGeometry width="50" height="50" relative="1" as="geometry">
            <mxPoint x="720" y="5320" as="sourcePoint" />
            <mxPoint x="767.5" y="5320" as="targetPoint" />
          </mxGeometry>
        </mxCell>
        <mxCell id="wl5vKfPLSGNA0CRAG-PO-110" value="" style="endArrow=classic;html=1;rounded=0;entryX=0;entryY=0;entryDx=0;entryDy=0;" edge="1" parent="1">
          <mxGeometry width="50" height="50" relative="1" as="geometry">
            <mxPoint x="921.5" y="5600" as="sourcePoint" />
            <mxPoint x="969" y="5600" as="targetPoint" />
          </mxGeometry>
        </mxCell>
        <mxCell id="wl5vKfPLSGNA0CRAG-PO-115" value="" style="edgeStyle=orthogonalEdgeStyle;rounded=0;orthogonalLoop=1;jettySize=auto;html=1;" edge="1" parent="1" target="00JhJRKnC4P_FVbmjxvB-46">
          <mxGeometry relative="1" as="geometry">
            <mxPoint x="604.5026315789476" y="5564.999999999999" as="sourcePoint" />
          </mxGeometry>
        </mxCell>
        <mxCell id="ba6c0RpfKHp4X5wGSwr2-12" style="edgeStyle=orthogonalEdgeStyle;rounded=0;orthogonalLoop=1;jettySize=auto;html=1;" edge="1" parent="1" source="wl5vKfPLSGNA0CRAG-PO-113" target="ba6c0RpfKHp4X5wGSwr2-11">
          <mxGeometry relative="1" as="geometry" />
        </mxCell>
        <mxCell id="wl5vKfPLSGNA0CRAG-PO-113" value="opsi==2" style="shape=parallelogram;perimeter=parallelogramPerimeter;whiteSpace=wrap;html=1;fixedSize=1;fillColor=#FFCCE6;strokeColor=#FF3399;" vertex="1" parent="1">
          <mxGeometry x="558.45" y="5447.5" width="99" height="35" as="geometry" />
        </mxCell>
        <mxCell id="wl5vKfPLSGNA0CRAG-PO-116" value="" style="endArrow=classic;html=1;rounded=0;entryX=0;entryY=0;entryDx=0;entryDy=0;" edge="1" parent="1">
          <mxGeometry width="50" height="50" relative="1" as="geometry">
            <mxPoint x="514.45" y="5612.5" as="sourcePoint" />
            <mxPoint x="561.95" y="5612.5" as="targetPoint" />
          </mxGeometry>
        </mxCell>
        <mxCell id="wl5vKfPLSGNA0CRAG-PO-121" value="" style="endArrow=classic;html=1;rounded=0;entryX=0;entryY=0;entryDx=0;entryDy=0;" edge="1" parent="1">
          <mxGeometry width="50" height="50" relative="1" as="geometry">
            <mxPoint x="1474.36" y="5908" as="sourcePoint" />
            <mxPoint x="1521.86" y="5908" as="targetPoint" />
          </mxGeometry>
        </mxCell>
        <mxCell id="wl5vKfPLSGNA0CRAG-PO-122" value="" style="endArrow=classic;html=1;rounded=0;entryX=0;entryY=0;entryDx=0;entryDy=0;" edge="1" parent="1">
          <mxGeometry width="50" height="50" relative="1" as="geometry">
            <mxPoint x="1706.5" y="5908" as="sourcePoint" />
            <mxPoint x="1754" y="5908" as="targetPoint" />
          </mxGeometry>
        </mxCell>
        <mxCell id="wl5vKfPLSGNA0CRAG-PO-124" value="" style="endArrow=classic;html=1;rounded=0;entryX=0;entryY=0;entryDx=0;entryDy=0;" edge="1" parent="1">
          <mxGeometry width="50" height="50" relative="1" as="geometry">
            <mxPoint x="527.7" y="5852.5" as="sourcePoint" />
            <mxPoint x="575.2" y="5852.5" as="targetPoint" />
          </mxGeometry>
        </mxCell>
        <mxCell id="wl5vKfPLSGNA0CRAG-PO-126" value="" style="endArrow=classic;html=1;rounded=0;entryX=0;entryY=0;entryDx=0;entryDy=0;" edge="1" parent="1">
          <mxGeometry width="50" height="50" relative="1" as="geometry">
            <mxPoint x="756.45" y="5846.99" as="sourcePoint" />
            <mxPoint x="803.95" y="5846.99" as="targetPoint" />
          </mxGeometry>
        </mxCell>
        <mxCell id="ba6c0RpfKHp4X5wGSwr2-5" style="edgeStyle=orthogonalEdgeStyle;rounded=0;orthogonalLoop=1;jettySize=auto;html=1;entryX=0.5;entryY=0;entryDx=0;entryDy=0;" edge="1" parent="1" source="ba6c0RpfKHp4X5wGSwr2-4" target="wl5vKfPLSGNA0CRAG-PO-88">
          <mxGeometry relative="1" as="geometry" />
        </mxCell>
        <mxCell id="ba6c0RpfKHp4X5wGSwr2-4" value="bubble sort berdasarkan nama secara descending" style="rounded=0;whiteSpace=wrap;html=1;shadow=1;strokeColor=#FF9933;strokeWidth=2;align=center;verticalAlign=middle;fontFamily=Helvetica;fontSize=12;fontColor=default;fillColor=#FFE6CC;" vertex="1" parent="1">
          <mxGeometry x="2341.99" y="5410" width="152.34" height="50" as="geometry" />
        </mxCell>
        <mxCell id="ba6c0RpfKHp4X5wGSwr2-8" style="edgeStyle=orthogonalEdgeStyle;rounded=0;orthogonalLoop=1;jettySize=auto;html=1;entryX=0.5;entryY=0;entryDx=0;entryDy=0;" edge="1" parent="1" source="ba6c0RpfKHp4X5wGSwr2-6" target="caTqFsODvWTbqU7TfdW9-2">
          <mxGeometry relative="1" as="geometry" />
        </mxCell>
        <mxCell id="ba6c0RpfKHp4X5wGSwr2-6" value="Selection sort berdasarkan ID hewan secara ascending" style="rounded=0;whiteSpace=wrap;html=1;shadow=1;strokeColor=#FF9933;strokeWidth=2;align=center;verticalAlign=middle;fontFamily=Helvetica;fontSize=12;fontColor=default;fillColor=#FFE6CC;" vertex="1" parent="1">
          <mxGeometry x="1702.5" y="5300" width="162.34" height="50" as="geometry" />
        </mxCell>
        <mxCell id="ba6c0RpfKHp4X5wGSwr2-10" style="edgeStyle=orthogonalEdgeStyle;rounded=0;orthogonalLoop=1;jettySize=auto;html=1;exitX=0.5;exitY=1;exitDx=0;exitDy=0;entryX=0.5;entryY=0;entryDx=0;entryDy=0;" edge="1" parent="1" source="ba6c0RpfKHp4X5wGSwr2-9" target="00JhJRKnC4P_FVbmjxvB-79">
          <mxGeometry relative="1" as="geometry" />
        </mxCell>
        <mxCell id="ba6c0RpfKHp4X5wGSwr2-9" value="Cari data dengan&amp;nbsp;&lt;div&gt;Jump Search&lt;/div&gt;" style="rounded=0;whiteSpace=wrap;html=1;shadow=1;strokeColor=#FF9933;strokeWidth=2;align=center;verticalAlign=middle;fontFamily=Helvetica;fontSize=12;fontColor=default;fillColor=#FFE6CC;" vertex="1" parent="1">
          <mxGeometry x="1473" y="5680" width="147.67" height="46" as="geometry" />
        </mxCell>
        <mxCell id="ba6c0RpfKHp4X5wGSwr2-11" value="Cari data dengan&amp;nbsp;&lt;div&gt;Linear Search&lt;/div&gt;" style="rounded=0;whiteSpace=wrap;html=1;shadow=1;strokeColor=#FF9933;strokeWidth=2;align=center;verticalAlign=middle;fontFamily=Helvetica;fontSize=12;fontColor=default;fillColor=#FFE6CC;" vertex="1" parent="1">
          <mxGeometry x="534.1099999999999" y="5519" width="147.67" height="46" as="geometry" />
        </mxCell>
      </root>
    </mxGraphModel>
  </diagram>
  <diagram id="KAojOi_U6Em8UWiGRwFF" name="Page-2">
    <mxGraphModel grid="1" page="1" gridSize="10" guides="1" tooltips="1" connect="1" arrows="1" fold="1" pageScale="1" pageWidth="850" pageHeight="1100" math="0" shadow="0">
      <root>
        <mxCell id="0" />
        <mxCell id="1" parent="0" />
      </root>
    </mxGraphModel>
  </diagram>
</mxfile>
